<svg xmlns="http://www.w3.org/2000/svg" xmlns:xlink="http://www.w3.org/1999/xlink">
	<defs>
		<symbol viewBox="0 0 21 21" id="ic-cart">
			<path d="M19 14H5C4.73478 14 4.48043 13.8946 4.29289 13.7071C4.10536 13.5196 4 13.2652 4 13C4 12.7348 4.10536 12.4804 4.29289 12.2929C4.48043 12.1054 4.73478 12 5 12H15.44C16.1087 12 16.7582 11.7767 17.2854 11.3654C17.8126 10.9542 18.1873 10.3786 18.35 9.73L20 3.24C20.0375 3.09241 20.0407 2.93821 20.0095 2.78917C19.9783 2.64013 19.9135 2.50018 19.82 2.38C19.7227 2.25673 19.5978 2.1581 19.4554 2.09208C19.3129 2.02606 19.1569 1.99452 19 2H4.76C4.55369 1.41645 4.17193 0.910998 3.66707 0.552938C3.1622 0.194879 2.55894 0.00173951 1.94 0H1C0.734784 0 0.48043 0.105357 0.292893 0.292893C0.105357 0.48043 0 0.734784 0 1C0 1.26522 0.105357 1.51957 0.292893 1.70711C0.48043 1.89464 0.734784 2 1 2H1.94C2.16843 1.99334 2.39226 2.06513 2.57421 2.20341C2.75615 2.34169 2.88525 2.53812 2.94 2.76L3 3.24L4.73 10C3.93435 10.0358 3.18551 10.3862 2.64822 10.9741C2.11093 11.5621 1.8292 12.3394 1.865 13.135C1.9008 13.9306 2.25121 14.6795 2.83914 15.2168C3.42707 15.7541 4.20435 16.0358 5 16H5.18C5.01554 16.4531 4.96269 16.9392 5.02593 17.4171C5.08917 17.895 5.26665 18.3506 5.54332 18.7454C5.81999 19.1401 6.18772 19.4624 6.61535 19.6849C7.04299 19.9074 7.51795 20.0235 8 20.0235C8.48205 20.0235 8.95701 19.9074 9.38465 19.6849C9.81228 19.4624 10.18 19.1401 10.4567 18.7454C10.7334 18.3506 10.9108 17.895 10.9741 17.4171C11.0373 16.9392 10.9845 16.4531 10.82 16H13.18C13.0155 16.4531 12.9627 16.9392 13.0259 17.4171C13.0892 17.895 13.2666 18.3506 13.5433 18.7454C13.82 19.1401 14.1877 19.4624 14.6154 19.6849C15.043 19.9074 15.5179 20.0235 16 20.0235C16.4821 20.0235 16.957 19.9074 17.3846 19.6849C17.8123 19.4624 18.18 19.1401 18.4567 18.7454C18.7334 18.3506 18.9108 17.895 18.9741 17.4171C19.0373 16.9392 18.9845 16.4531 18.82 16H19C19.2652 16 19.5196 15.8946 19.7071 15.7071C19.8946 15.5196 20 15.2652 20 15C20 14.7348 19.8946 14.4804 19.7071 14.2929C19.5196 14.1054 19.2652 14 19 14ZM17.72 4L16.41 9.24C16.3552 9.46188 16.2262 9.65831 16.0442 9.79659C15.8623 9.93487 15.6384 10.0067 15.41 10H6.78L5.28 4H17.72ZM8 18C7.80222 18 7.60888 17.9414 7.44443 17.8315C7.27998 17.7216 7.15181 17.5654 7.07612 17.3827C7.00043 17.2 6.98063 16.9989 7.01921 16.8049C7.0578 16.6109 7.15304 16.4327 7.29289 16.2929C7.43275 16.153 7.61093 16.0578 7.80491 16.0192C7.99889 15.9806 8.19996 16.0004 8.38268 16.0761C8.56541 16.1518 8.72159 16.28 8.83147 16.4444C8.94135 16.6089 9 16.8022 9 17C9 17.2652 8.89464 17.5196 8.70711 17.7071C8.51957 17.8946 8.26522 18 8 18ZM16 18C15.8022 18 15.6089 17.9414 15.4444 17.8315C15.28 17.7216 15.1518 17.5654 15.0761 17.3827C15.0004 17.2 14.9806 16.9989 15.0192 16.8049C15.0578 16.6109 15.153 16.4327 15.2929 16.2929C15.4327 16.153 15.6109 16.0578 15.8049 16.0192C15.9989 15.9806 16.2 16.0004 16.3827 16.0761C16.5654 16.1518 16.7216 16.28 16.8315 16.4444C16.9414 16.6089 17 16.8022 17 17C17 17.2652 16.8946 17.5196 16.7071 17.7071C16.5196 17.8946 16.2652 18 16 18Z"/>
		</symbol>

		<symbol viewBox="0 0 16 16" id="ic-search">
			<path d="M15.2825 14.7175L12.5001 11.9575C13.5801 10.6108 14.1032 8.90146 13.9617 7.18096C13.8201 5.46047 13.0248 3.85958 11.7392 2.70747C10.4536 1.55537 8.77541 0.939622 7.04974 0.986842C5.32408 1.03406 3.68209 1.74066 2.46141 2.96135C1.24072 4.18203 0.534124 5.82402 0.486903 7.54968C0.439683 9.27534 1.05543 10.9535 2.20753 12.2391C3.35964 13.5247 4.96053 14.3201 6.68103 14.4616C8.40152 14.6031 10.1109 14.0801 11.4576 13L14.2176 15.76C14.2873 15.8303 14.3702 15.8861 14.4616 15.9242C14.553 15.9622 14.651 15.9818 14.7501 15.9818C14.8491 15.9818 14.9471 15.9622 15.0385 15.9242C15.1299 15.8861 15.2128 15.8303 15.2825 15.76C15.4177 15.6201 15.4933 15.4332 15.4933 15.2387C15.4933 15.0442 15.4177 14.8573 15.2825 14.7175ZM7.25005 13C6.2117 13 5.19666 12.6921 4.33331 12.1152C3.46995 11.5383 2.79704 10.7184 2.39968 9.75908C2.00232 8.79977 1.89836 7.74417 2.10093 6.72577C2.3035 5.70737 2.80351 4.7719 3.53774 4.03768C4.27197 3.30345 5.20743 2.80344 6.22583 2.60087C7.24423 2.39829 8.29983 2.50226 9.25914 2.89962C10.2185 3.29698 11.0384 3.96989 11.6153 4.83325C12.1921 5.6966 12.5001 6.71164 12.5001 7.74999C12.5001 9.14238 11.9469 10.4777 10.9624 11.4623C9.97779 12.4469 8.64244 13 7.25005 13Z" />
		</symbol>

		<symbol viewBox="0 0 12 15" id="ic-lock">
			<path d="M5.99996 8.16666C5.79699 8.16429 5.59817 8.22415 5.43025 8.3382C5.26234 8.45224 5.13339 8.61499 5.06077 8.80453C4.98815 8.99408 4.97533 9.20132 5.02406 9.39837C5.07278 9.59542 5.1807 9.77281 5.33329 9.90666V10.8333C5.33329 11.0101 5.40353 11.1797 5.52855 11.3047C5.65358 11.4298 5.82315 11.5 5.99996 11.5C6.17677 11.5 6.34634 11.4298 6.47136 11.3047C6.59639 11.1797 6.66663 11.0101 6.66663 10.8333V9.90666C6.81922 9.77281 6.92714 9.59542 6.97586 9.39837C7.02458 9.20132 7.01177 8.99408 6.93915 8.80453C6.86653 8.61499 6.73758 8.45224 6.56966 8.3382C6.40175 8.22415 6.20293 8.16429 5.99996 8.16666V8.16666ZM9.33329 5.5V4.16666C9.33329 3.28261 8.9821 2.43476 8.35698 1.80964C7.73186 1.18452 6.88401 0.833328 5.99996 0.833328C5.1159 0.833328 4.26806 1.18452 3.64294 1.80964C3.01782 2.43476 2.66663 3.28261 2.66663 4.16666V5.5C2.13619 5.5 1.62749 5.71071 1.25241 6.08578C0.87734 6.46085 0.666626 6.96956 0.666626 7.5V12.1667C0.666626 12.6971 0.87734 13.2058 1.25241 13.5809C1.62749 13.9559 2.13619 14.1667 2.66663 14.1667H9.33329C9.86373 14.1667 10.3724 13.9559 10.7475 13.5809C11.1226 13.2058 11.3333 12.6971 11.3333 12.1667V7.5C11.3333 6.96956 11.1226 6.46085 10.7475 6.08578C10.3724 5.71071 9.86373 5.5 9.33329 5.5ZM3.99996 4.16666C3.99996 3.63623 4.21067 3.12752 4.58575 2.75245C4.96082 2.37738 5.46953 2.16666 5.99996 2.16666C6.53039 2.16666 7.0391 2.37738 7.41417 2.75245C7.78925 3.12752 7.99996 3.63623 7.99996 4.16666V5.5H3.99996V4.16666ZM9.99996 12.1667C9.99996 12.3435 9.92972 12.513 9.8047 12.6381C9.67967 12.7631 9.5101 12.8333 9.33329 12.8333H2.66663C2.48981 12.8333 2.32025 12.7631 2.19522 12.6381C2.0702 12.513 1.99996 12.3435 1.99996 12.1667V7.5C1.99996 7.32318 2.0702 7.15361 2.19522 7.02859C2.32025 6.90357 2.48981 6.83333 2.66663 6.83333H9.33329C9.5101 6.83333 9.67967 6.90357 9.8047 7.02859C9.92972 7.15361 9.99996 7.32318 9.99996 7.5V12.1667Z"/>
		</symbol>

		<symbol viewBox="0 0 19 20" id="ic-new">
			<path class="st0" d="M8.6,0.5C6.3,0.8,4.4,1.7,2.8,3.3C1.1,5,0.1,7.1,0,9.5c-0.1,1.1,0.2,2.6,0.6,3.7c0.2,0.5,0.6,1.4,0.9,1.8c1.6,2.7,4.7,4.4,8,4.4c1.6,0,3-0.3,4.4-1c2.7-1.4,4.4-3.8,4.9-6.9c0.2-1.1,0.2-1.9,0.1-2.8c-0.5-3.7-3.2-6.8-6.8-7.8c-0.8-0.2-1.4-0.3-2.4-0.3C9.1,0.5,8.7,0.5,8.6,0.5z M10.8,1.7C12.6,2,14.2,2.8,15.5,4c1.4,1.4,2.2,3.2,2.4,5.4c0.1,1.6-0.3,3.4-1.2,4.8c-1.1,1.9-3,3.3-5.1,3.8c-0.7,0.2-1.3,0.3-2.1,0.3c-1.7,0-3.2-0.5-4.7-1.4c-1.9-1.3-3.3-3.4-3.6-5.7c-0.1-0.6-0.1-1.6,0-2.2c0.3-2.3,1.3-4,2.7-5.3c1.3-1.1,2.8-1.8,4.8-2C9,1.6,10.5,1.7,10.8,1.7z M3.4,7.6c-0.2,0-0.3,0.1-0.4,0.3c0,0.1-0.2,0.9-0.4,2C2.3,12,2.3,12,2.6,12.2c0.3,0.3,0.8,0.1,0.9-0.3c0-0.1,0.1-0.6,0.2-1L3.8,10L4.3,11c0.6,1.2,0.6,1.3,1,1.3c0.2,0,0.4-0.1,0.5-0.3c0-0.1,0.2-0.8,0.4-2C6.5,8,6.5,8,6.3,7.8C6.1,7.6,5.7,7.6,5.5,7.9c0,0.1-0.1,0.5-0.2,1.1l-0.2,1l-0.5-1C4.2,8.4,4,7.9,4,7.8C3.8,7.7,3.6,7.6,3.4,7.6z M7.9,7.6C7.7,7.7,7.5,7.8,7.5,8c0,0.1-0.6,3.6-0.6,3.8c0,0.2,0.1,0.4,0.3,0.5c0.2,0.1,0.2,0.1,1.3,0.1c1.1,0,1.1,0,1.3-0.1c0.3-0.1,0.4-0.5,0.2-0.8c-0.1-0.2-0.2-0.2-1.1-0.2c-0.6,0-0.8,0-0.8,0c0,0,0-0.2,0-0.3l0-0.3l0.8,0c0.7,0,0.8,0,0.9-0.1c0.3-0.3,0.4-0.7,0-0.9C9.7,9.4,9.6,9.4,9,9.4c-0.7,0-0.7,0-0.6-0.4l0-0.3l0.9,0c1,0,1,0,1.1-0.2c0.2-0.3,0.1-0.8-0.3-0.9C10,7.6,8.1,7.6,7.9,7.6z M15.9,7.6c-0.1,0-0.2,0.1-0.3,0.1C15.6,7.8,15.4,8.3,15,9L14.5,10l-0.1-0.7c-0.1-0.4-0.2-0.8-0.2-0.8c-0.1-0.2-0.3-0.3-0.5-0.3c-0.3,0-0.4,0.1-0.8,0.8l-0.4,0.7l0-0.9c0-0.8,0-0.9-0.1-1c-0.1-0.1-0.3-0.2-0.5-0.2c-0.2,0-0.4,0.1-0.5,0.3c-0.1,0.1-0.1,0.3-0.1,2c0,1.1,0,1.9,0,2c0,0.2,0.2,0.4,0.4,0.4c0.1,0,0.2,0,0.3-0.1c0.2-0.1,0.2-0.1,0.7-1l0.6-0.9l0.2,0.8c0.2,0.9,0.2,1,0.4,1.1c0.2,0.1,0.4,0.1,0.6,0c0.1,0,0.4-0.6,1.1-2c0.5-1,1-1.9,1-2c0-0.1,0-0.2-0.1-0.3C16.4,7.7,16.2,7.6,15.9,7.6z"/>
		</symbol>

		<symbol viewBox="0 0 19 20" id="ic-fake-flower">
			<path class="st0" d="M14.1,0.6c-0.1,0-0.4,0.4-0.8,0.8L12.5,2l-0.2-0.2c-0.2-0.2-0.4-0.3-0.6-0.3c-0.1,0-0.3,0.2-1.1,1
				C10,3,9.5,3.6,9.4,3.7C8.9,4.4,8.6,5.2,8.6,6.1c0,0.9,0.3,1.7,0.8,2.5L9.7,9l-2,2l-2,2l0-0.8c0-0.6,0-0.8-0.1-1.1
				c-0.2-1-0.7-1.9-1.3-2.6C4,8.2,3.9,8.1,3.6,8.1c-0.2,0-0.4,0.1-0.7,0.5c-1.7,2-1.8,4.9-0.3,7l0.2,0.3l-1.4,1.4C0,18.7,0,18.7,0,19
				c0,0.2,0.3,0.4,0.4,0.4c0.3,0.1,0.2,0.2,3.1-2.7c1.4-1.4,2.6-2.6,2.6-2.6c0,0,0.1,0.1,0.3,0.2c0.1,0.1,0.5,0.3,0.7,0.4
				c0.8,0.4,1.5,0.6,2.4,0.6c1.3,0.1,2.5-0.3,3.6-1.1c0.6-0.5,0.8-0.8,0.7-1.1c-0.1-0.3-0.9-1-1.7-1.3c-0.7-0.3-1.2-0.5-1.9-0.5
				c-0.3,0-1.2,0-1.3,0c0,0,0.3-0.3,0.7-0.8l0.8-0.8l0.3,0.2c0.5,0.4,1.1,0.7,1.8,0.8c0.3,0.1,1.1,0.1,1.4,0c0.6-0.1,1.2-0.4,1.7-0.7
				c0.1-0.1,0.6-0.6,1.2-1.1C18,7.9,18,7.9,18,7.6c0-0.1-0.1-0.2-0.3-0.4L17.5,7l0.6-0.6C18.9,5.5,19,5.5,19,5.2V4.9l-0.3-0.3
				c-0.4-0.4-0.8-0.7-1.2-0.9c-0.3-0.1-0.8-0.3-1-0.4c-0.1,0-0.1,0-0.2-0.2c0-0.3-0.2-0.7-0.4-1C15.7,1.8,15.4,1.4,15,1
				C14.5,0.5,14.4,0.4,14.1,0.6z M14.7,2.5C15,3,15.2,3.8,15.2,4.3c-0.1,0.6-0.4,1.4-0.5,1.4c-0.1,0-0.7,0.1-0.9,0.1l-0.2,0l0-0.2
				c0.1-0.9,0.1-1.6-0.2-2.4L13.2,3l0.5-0.5l0.5-0.5L14.4,2C14.5,2.1,14.6,2.3,14.7,2.5z M12,3.1c0.2,0.2,0.4,0.7,0.5,1
				c0.1,0.4,0.1,1,0,1.3c-0.1,0.7-0.3,1-1.2,1.9l-0.7,0.7L10.4,8C10.2,7.7,10,7.3,9.9,7C9.8,6.7,9.8,6.6,9.8,6.1c0-0.5,0-0.6,0.1-0.9
				c0.2-0.6,0.4-0.8,1.1-1.6C11.4,3.3,11.8,3,11.8,3C11.8,3,11.9,3,12,3.1z M16.8,4.7c0.1,0.1,0.4,0.2,0.6,0.3l0.3,0.2l-0.5,0.5
				l-0.5,0.5l-0.2-0.1c-0.1,0-0.2-0.1-0.3-0.1L15.9,6L16,5.8c0.1-0.3,0.2-0.6,0.3-0.9c0.1-0.4,0.1-0.4,0.2-0.4
				C16.5,4.5,16.6,4.6,16.8,4.7z M15.4,7.1c0.4,0.1,1.2,0.5,1.2,0.7c0,0-0.3,0.3-0.7,0.7c-0.8,0.8-1,0.9-1.6,1.1
				c-0.3,0.1-0.4,0.1-0.9,0.1c-0.5,0-0.6,0-0.8-0.1c-0.4-0.1-0.7-0.3-1-0.5L11.4,9L12,8.3c0.9-1,1.2-1.1,2-1.3C14.3,6.9,15,7,15.4,7.1z
				M3.8,9.9c0.9,1.5,0.9,3.3,0,4.8c-0.1,0.1-0.2,0.2-0.2,0.2c0,0-0.3-0.4-0.4-0.7c-0.3-0.7-0.5-1.3-0.4-2.1c0-0.6,0.1-1.1,0.4-1.6
				c0.2-0.3,0.5-0.9,0.5-0.9C3.7,9.6,3.7,9.8,3.8,9.9z M10.8,12.6c0.5,0.1,0.8,0.3,1.2,0.5c0.2,0.1,0.3,0.2,0.3,0.2
				c0,0-0.3,0.3-0.7,0.5c-0.6,0.3-1.2,0.5-2,0.4c-0.9,0-1.7-0.2-2.4-0.7l-0.2-0.1l0.1-0.1c0.3-0.2,0.9-0.5,1.3-0.6
				c0.5-0.1,0.7-0.2,1.4-0.2C10.4,12.5,10.5,12.6,10.8,12.6z"/>
		</symbol>

		<symbol viewBox="0 0 19 20" id="ic-flower">
			<path class="st0" d="M9,0.5C8.4,0.6,7.8,0.9,7.4,1.2c-0.3,0.2-0.8,0.7-1,1.1C5.9,3,5.7,4,5.9,4.9c0,0.2,0,0.3,0,0.3
			c0,0-0.1,0-0.2-0.1C5.6,5.1,5.3,5,5.1,4.9C2.8,4.2,0.4,5.6,0.1,8c-0.1,0.8,0,1.7,0.4,2.5c0.6,1.1,1.7,1.9,2.9,2.1l0.2,0l-0.2,0.3
			c-2.1,2.2-1,5.7,1.9,6.5c0.4,0.1,1.2,0.1,1.6,0c0.8-0.2,1.4-0.6,2-1.1c0.2-0.2,0.6-0.8,0.7-1c0-0.1,0.1-0.1,0.1-0.1
			c0,0,0.1,0.1,0.1,0.1c0.2,0.5,0.7,1.1,1.2,1.5c1.3,1,3,1,4.4-0.1c1.5-1.1,1.9-3.1,1.2-4.7c-0.2-0.3-0.4-0.7-0.7-1l-0.2-0.3l0.2,0
			c1.3-0.2,2.4-1,2.9-2.1c0.4-0.8,0.5-1.6,0.4-2.5c-0.3-1.8-1.8-3.2-3.6-3.3c-0.6,0-1.3,0.1-1.9,0.4c-0.2,0.1-0.3,0.1-0.3,0.1
			c0,0,0-0.1,0-0.3c0.3-2-0.9-3.9-2.7-4.3C10.1,0.5,9.3,0.5,9,0.5z M10,1.7c0.5,0.1,0.9,0.3,1.2,0.6c0.4,0.4,0.7,0.9,0.8,1.6
			c0.1,0.8-0.1,1.6-0.5,2.6c-0.1,0.3-0.2,0.5-0.3,0.6c0,0.1-0.5,1-0.6,1c0,0-0.1,0-0.3-0.1l-0.3-0.1l0-1.2c0-1.1,0-1.2-0.1-1.3
			C9.8,5,9.2,5,9,5.4C9,5.5,9,5.6,9,6.7l0,1.2L8.7,8L8.4,8.1L8.1,7.5C7.9,7.2,7.7,7,7.7,7c0,0-0.1-0.3-0.2-0.5
			C6.9,5.3,6.8,4.2,7.1,3.3c0.1-0.4,0.3-0.6,0.6-1C8.4,1.7,9.2,1.5,10,1.7z M4.4,5.9C4.9,6,5.4,6.2,6,6.7C6.4,7,6.6,7.2,7.1,8l0.4,0.7
			L7.4,8.8c0,0.1-0.1,0.2-0.2,0.3C7.2,9.2,7.1,9.2,7.1,9.2c0,0-0.5-0.2-1.1-0.4C5.4,8.7,4.8,8.5,4.7,8.5C4.3,8.5,4.1,9,4.3,9.4
			c0.1,0.2,0,0.1,2.2,0.9l0.3,0.1l0,0.3l0,0.3l-0.7,0.2c-0.8,0.3-1.1,0.3-1.8,0.3c-0.7,0-1.1-0.1-1.6-0.3c-1-0.5-1.6-1.7-1.6-2.8
			c0-0.4,0.1-0.7,0.3-1.1c0.1-0.3,0.2-0.4,0.5-0.7C2.4,6.2,2.8,6,3.4,5.9C3.7,5.8,4,5.8,4.4,5.9z M15.8,5.9c0.1,0,0.4,0.1,0.6,0.2
			c0.3,0.1,0.4,0.2,0.7,0.5c0.3,0.3,0.4,0.4,0.5,0.7c0.1,0.2,0.2,0.5,0.2,0.6c0.3,1-0.1,2.1-0.8,2.8c-0.6,0.6-1.1,0.8-2.1,0.8
			c-0.8,0-1.1,0-1.9-0.3L12.3,11l0-0.3l0-0.3l1.1-0.3c0.6-0.2,1.1-0.4,1.2-0.4c0.2-0.1,0.3-0.3,0.3-0.5c0-0.2,0-0.2-0.1-0.3
			c-0.1-0.1-0.3-0.2-0.4-0.2c-0.1,0-0.6,0.2-1.2,0.4C12.5,9.1,12,9.2,12,9.2c0,0-0.4-0.5-0.4-0.5c0,0,0.2-0.4,0.4-0.8
			c0.4-0.6,0.5-0.8,0.7-1C13.3,6.4,14,6,14.6,5.9C14.9,5.8,15.5,5.8,15.8,5.9z M10.2,9.1c1.3,0.6,1.3,2.4,0,3
			c-0.3,0.1-0.3,0.1-0.7,0.1c-0.4,0-0.4,0-0.7-0.1c-1.1-0.5-1.3-1.9-0.4-2.7C8.8,9.1,9.1,9,9.6,9C9.9,9,10,9,10.2,9.1z M7.2,12.2
			c0.1,0.1,0.1,0.2,0.2,0.3c0,0.1,0,0.1-0.6,0.9c-0.3,0.5-0.7,0.9-0.7,1c-0.3,0.4,0.1,1,0.6,0.8c0.1,0,0.2-0.1,0.2-0.1
			C7,15,8.2,13.4,8.4,13.2c0,0,0.1,0,0.3,0.1L9,13.4v0.8c0,1.1-0.1,1.6-0.4,2.3c-0.5,1.3-1.7,2-2.9,1.8c-1.7-0.2-2.8-2-2.2-3.6
			c0.3-1.1,1.4-1.9,3-2.5C6.8,12.1,7.1,12,7.1,12C7.1,12,7.2,12.1,7.2,12.2z M12.5,12.2c1.7,0.6,2.7,1.5,3.1,2.6c0.3,1,0,2.1-0.7,2.8
			c-0.4,0.3-0.6,0.5-1,0.6c-0.3,0.1-0.4,0.1-0.8,0.1c-0.3,0-0.5,0-0.6-0.1c-0.9-0.3-1.6-1.1-2-2.2c-0.2-0.6-0.2-0.8-0.2-1.8l0-0.9
			l0.3-0.1c0.2-0.1,0.3-0.1,0.3-0.1s0.3,0.4,0.7,1c0.6,0.9,0.7,1,0.9,1c0.2,0.1,0.3,0.1,0.5,0c0.2-0.1,0.3-0.5,0.2-0.7
			c0-0.1-0.3-0.5-0.7-1c-0.4-0.5-0.6-0.9-0.6-0.9c0,0,0.3-0.5,0.3-0.5C12,12,12.2,12.1,12.5,12.2z"/>
		</symbol>

		<symbol viewBox="0 0 17 20" id="ic-pots">
			<path fill-rule="evenodd" clip-rule="evenodd" d="M7.65147 1.75934C2.51527 2.6697 0.457819 3.04803 0.385567 3.09538C0.236722 3.19291 0.140163 3.37497 0.140015 3.5584C0.139829 3.74339 0.335433 4.88977 0.422677 5.21515C0.52855 5.61003 0.657468 5.83127 0.958722 6.13513C1.28365 6.46287 1.57002 6.61981 1.98179 6.69581L2.23617 6.74275L2.5054 7.42531C2.65347 7.8007 2.77463 8.12118 2.77463 8.13751C2.77463 8.1538 2.53669 8.16723 2.24582 8.16731C1.65326 8.16746 1.54383 8.20227 1.4014 8.43587C1.33286 8.54824 1.32766 8.62375 1.32807 9.5031C1.32848 10.4969 1.35427 10.7183 1.50957 11.0617C1.61088 11.2858 1.69271 11.4031 1.8934 11.6125C2.1165 11.8453 2.30683 11.9737 2.6128 12.0976L2.86503 12.1998L3.55526 15.6511C4.08556 18.3028 4.26443 19.133 4.32718 19.2345C4.49176 19.5008 4.19859 19.4855 9.13177 19.4855H13.5577L13.7233 19.402C13.8343 19.346 13.9106 19.2743 13.9546 19.1841C13.999 19.0933 15.3918 12.3151 15.3918 12.1898C15.3918 12.1871 15.4908 12.1488 15.6117 12.1047C16.208 11.8873 16.6541 11.4124 16.8394 10.7979C16.9055 10.5787 16.9133 10.445 16.913 9.5362C16.9127 8.0847 16.9969 8.16775 15.5257 8.16742L14.4906 8.16716L14.5147 7.23015C14.5279 6.71481 14.5493 5.90468 14.5622 5.42986L14.5858 4.56662L14.8097 4.43058C15.4031 4.07014 15.7691 3.42996 15.7688 2.75346C15.7686 2.41806 15.5384 1.01288 15.4483 0.797201C15.3798 0.633289 15.1935 0.512943 14.9881 0.500066C14.8831 0.493461 12.0394 0.98156 7.65147 1.75934ZM14.5184 1.79362C14.663 2.44237 14.686 2.84222 14.5923 3.07642C14.5156 3.26824 14.2437 3.51502 14.0524 3.56653C13.7331 3.65251 2.51858 5.61125 2.34376 5.61155C2.01871 5.61218 1.72733 5.43613 1.58212 5.15147C1.51221 5.01442 1.30829 4.05474 1.34191 4.02112C1.36266 4.00037 14.275 1.71874 14.3984 1.71403C14.4749 1.71109 14.5043 1.73061 14.5184 1.79362ZM13.4383 5.76433C13.426 6.27967 13.4054 7.02697 13.3926 7.42497L13.3694 8.14861H8.67658H3.98384L3.69483 7.40642C3.53586 6.99821 3.40575 6.64712 3.40564 6.62623C3.40553 6.59435 13.1237 4.84569 13.378 4.83184L13.4608 4.82732L13.4383 5.76433ZM15.7992 9.86491C15.7983 10.536 15.765 10.6545 15.5138 10.8809C15.2333 11.1338 15.6785 11.1174 9.12033 11.1174C4.20219 11.1174 3.13949 11.1086 3.02193 11.067C2.81968 10.9956 2.62846 10.814 2.52789 10.5981C2.44926 10.4292 2.44135 10.3608 2.44102 9.84636L2.44065 9.28044H9.12033H15.8L15.7992 9.86491ZM14.2228 12.3327C14.2019 12.4198 13.0168 18.3449 13.0168 18.3623C13.0168 18.3678 11.2659 18.3722 9.12586 18.3722H5.23491L4.6226 15.3107L4.01034 12.2492H9.12661H14.2428L14.2228 12.3327Z"/>
		</symbol>

		<symbol viewBox="0 0 17 20" id="ic-glass">
			<path fill-rule="evenodd" clip-rule="evenodd" d="M1.2034 0.57086C1.13022 0.609565 1.03518 0.707274 0.98657 0.793813L0.899994 0.947854L0.940851 2.03137C1.19965 8.89575 2.03569 14.7436 3.19666 17.8102C3.3412 18.1921 3.8067 19.1434 3.90789 19.2638C3.94512 19.3082 4.03243 19.3791 4.1019 19.4214C4.22778 19.4982 4.24199 19.4984 8.51432 19.4984C12.7866 19.4984 12.8009 19.4982 12.9267 19.4214C12.9962 19.3791 13.0835 19.3082 13.1207 19.2638C13.2219 19.1434 13.6874 18.1921 13.832 17.8102C13.9866 17.4017 14.2971 16.4017 14.4483 15.8249C15.2612 12.7244 15.8804 7.51922 16.087 2.04985L16.1286 0.947743L16.042 0.79359C15.9899 0.701003 15.9003 0.611346 15.8174 0.569079C15.6833 0.500649 15.4778 0.498719 8.50653 0.500315C1.59153 0.501911 1.32898 0.504434 1.2034 0.57086ZM14.9642 2.23355C14.7648 7.04388 14.2054 12.0065 13.5422 14.8507L13.5227 14.9342H8.51432H3.50596L3.48648 14.8507C2.82129 11.9984 2.27119 7.1112 2.06423 2.21499L2.03873 1.61193H8.51432H14.9899L14.9642 2.23355ZM13.2066 16.1681C13.1748 16.3131 12.8156 17.3781 12.728 17.5875C12.6938 17.6692 12.5973 17.8821 12.5136 18.0607L12.3614 18.3854H8.51432H4.66726L4.51504 18.0607C4.43132 17.8821 4.33484 17.6692 4.30066 17.5875C4.21301 17.3781 3.85386 16.3131 3.82202 16.1681L3.79553 16.0475H8.51432H13.2331L13.2066 16.1681Z"/>
		</symbol>

		<symbol viewBox="0 0 12 15" id="ic-weaving">
			<path fill-rule="evenodd" clip-rule="evenodd" d="M7.56438 19.4251C6.24733 19.262 5.03103 18.7544 3.98689 17.9322C2.72075 16.9351 1.7997 15.439 1.45822 13.8248C1.2998 13.076 1.2884 12.6884 1.30024 8.45666L1.31145 4.46414L1.42767 4.27714L1.54394 4.09015L1.31635 4.0245C0.981509 3.92787 0.829917 3.81899 0.754214 3.62079C0.672424 3.40663 0.703411 3.23043 0.852813 3.06029C1.03391 2.854 1.29156 2.81856 1.63949 2.95208C1.68751 2.97048 1.68058 2.93011 1.60305 2.73937C1.44296 2.34552 1.32689 1.74932 1.31872 1.27922C1.31078 0.820736 1.3362 0.748819 1.56695 0.576521C1.66618 0.502413 1.71345 0.5 3.05559 0.5C4.40678 0.5 4.44441 0.501968 4.54653 0.578117C4.60416 0.621052 4.68384 0.711748 4.72358 0.779657C4.8705 1.03055 4.76678 2.00467 4.52163 2.67632C4.43424 2.91575 4.42441 2.97022 4.47187 2.952C4.50438 2.93954 4.60442 2.91085 4.69419 2.88821C5.10046 2.78594 5.4841 3.1675 5.37441 3.56479C5.32037 3.76054 5.14808 3.90163 4.83458 4.00695L4.55807 4.09983L4.65404 4.23472C4.70681 4.30891 4.76496 4.43411 4.78325 4.51293C4.80155 4.59175 4.81713 6.14248 4.81784 7.95898L4.81921 11.2617L5.17839 11.4473C6.42338 12.0904 7.50805 13.1849 8.16555 14.4618C8.29414 14.7115 8.4081 14.9161 8.41879 14.9164C8.42951 14.9167 8.51898 14.7542 8.61769 14.5552C9.28581 13.2079 10.477 12.0168 11.8041 11.369L12.0175 11.2648L12.0184 7.96054C12.0189 6.14319 12.0342 4.59175 12.0525 4.51293C12.0708 4.43411 12.129 4.30891 12.1818 4.23472L12.2777 4.09983L12.0012 4.00695C11.8383 3.95225 11.6779 3.86905 11.6107 3.80452C11.3188 3.52378 11.4238 3.05891 11.8128 2.91037C11.9749 2.84843 12.1232 2.85964 12.3639 2.952C12.4114 2.97022 12.4015 2.91575 12.3142 2.67632C12.1621 2.25958 12.0591 1.71663 12.0487 1.27678C12.039 0.863043 12.0845 0.730711 12.2893 0.578117C12.3914 0.501968 12.429 0.5 13.7802 0.5C15.1223 0.5 15.1696 0.502413 15.2688 0.576521C15.4967 0.746668 15.5249 0.823408 15.5179 1.2548C15.5104 1.71693 15.4003 2.30422 15.2472 2.69855C15.1588 2.92621 15.1516 2.96774 15.203 2.953C15.2369 2.94332 15.332 2.91604 15.4145 2.8924C15.6249 2.83203 15.8378 2.89489 15.983 3.06029C16.1317 3.22973 16.1633 3.4067 16.0825 3.6183C16.0056 3.81962 15.8999 3.89807 15.5572 4.00784L15.2933 4.09241L15.4088 4.27825L15.5243 4.46414L15.5353 8.4381C15.5426 11.0683 15.5326 12.5808 15.5059 12.9111C15.2996 15.4609 13.8058 17.6522 11.5165 18.7629C10.2765 19.3646 8.91598 19.5925 7.56438 19.4251ZM7.8499 17.6538C7.80707 16.3602 7.50782 15.4014 6.82776 14.379C6.53322 13.9362 5.87078 13.2385 5.44996 12.928C4.69211 12.3687 3.78293 11.9774 2.87446 11.8199C2.36357 11.7312 2.40617 11.7014 2.40617 12.1484C2.40617 12.8938 2.50566 13.5685 2.71047 14.2119C3.35447 16.235 5.09635 17.8029 7.17996 18.2349C7.42199 18.2851 7.67678 18.3273 7.74618 18.3286L7.87231 18.3311L7.8499 17.6538ZM9.67761 18.2345C10.6063 18.0452 11.6781 17.504 12.3774 16.8714C13.7444 15.6346 14.4259 14.0701 14.429 12.1616C14.4297 11.6993 14.473 11.7309 13.9613 11.8202C12.2932 12.111 10.7755 13.1313 9.88498 14.5606C9.27271 15.5432 8.97569 16.6271 8.97483 17.8816L8.97454 18.3413L9.18591 18.3164C9.30217 18.3028 9.52342 18.2659 9.67761 18.2345ZM3.705 10.2099C3.705 9.50266 3.71447 9.5276 3.39109 9.38454C3.13482 9.27117 2.79386 9.29882 2.57803 9.45041L2.42473 9.5581L2.41449 10.0963L2.40428 10.6345L2.76703 10.6804C2.96656 10.7056 3.22165 10.7489 3.33391 10.7765C3.73744 10.8759 3.705 10.9254 3.705 10.2099ZM13.7746 10.728C14.0165 10.6848 14.2632 10.6494 14.323 10.6494H14.4316L14.4213 10.1038L14.4111 9.5581L14.2578 9.45041C14.0419 9.29882 13.701 9.27117 13.4447 9.38454C13.1211 9.52767 13.1308 9.50214 13.1308 10.214V10.8434L13.2328 10.825C13.2889 10.8149 13.5328 10.7712 13.7746 10.728ZM3.03703 8.21875C3.23093 8.21875 3.46053 8.23274 3.54729 8.24985L3.705 8.28094V7.74605C3.705 7.23839 3.70074 7.20715 3.62099 7.13226C3.34174 6.86994 2.76944 6.86994 2.49019 7.13226C2.41044 7.20718 2.40617 7.23836 2.40617 7.74694V8.28269L2.54533 8.2507C2.62189 8.23315 2.84314 8.21875 3.03703 8.21875ZM13.7988 8.21875C13.9927 8.21875 14.2139 8.23315 14.2905 8.2507L14.4296 8.28269V7.74694C14.4296 7.23836 14.4253 7.20718 14.3456 7.13226C14.0664 6.86994 13.4941 6.86994 13.2148 7.13226C13.1351 7.20715 13.1308 7.23839 13.1308 7.74605V8.28094L13.2885 8.24985C13.3752 8.23274 13.6049 8.21875 13.7988 8.21875ZM2.83293 5.82965C3.05637 5.80653 3.41232 5.83002 3.60295 5.88045L3.705 5.90747V5.37183C3.705 4.86369 3.7007 4.83226 3.62151 4.75982C3.32597 4.48959 2.89027 4.46588 2.54533 4.70126L2.40617 4.79623V5.35183V5.90747L2.50823 5.88008C2.56437 5.86501 2.71047 5.8423 2.83293 5.82965ZM13.5575 5.82965C13.781 5.80653 14.1369 5.83002 14.3276 5.88045L14.4296 5.90747V5.35183V4.79623L14.2905 4.70067C13.9712 4.48143 13.5444 4.4877 13.2678 4.71566L13.1308 4.82866V5.36804V5.90747L13.2328 5.88008C13.2889 5.86501 13.4351 5.8423 13.5575 5.82965ZM3.30385 2.6896C3.44372 2.41796 3.54432 2.13396 3.60956 1.82666L3.65884 1.59473H3.05036H2.44187L2.46084 1.67822C2.4713 1.72416 2.49754 1.84462 2.51914 1.94589C2.57391 2.20232 2.75604 2.64481 2.91365 2.90428L3.04624 3.12252L3.11778 3.01731C3.15716 2.95946 3.24088 2.81199 3.30385 2.6896ZM14.0559 2.65079C14.1831 2.39273 14.2864 2.08008 14.3713 1.69678L14.3939 1.59473H13.7857H13.1775L13.2101 1.771C13.2802 2.14922 13.4602 2.60202 13.6821 2.95824L13.7802 3.11573L13.8445 3.03246C13.88 2.98666 13.9751 2.81492 14.0559 2.65079Z"/>
		</symbol>

		<symbol viewBox="0 0 19 16" id="ic-present">
			<path fill-rule="evenodd" clip-rule="evenodd" d="M0.288006 0.475288C0.203211 0.520079 0.120234 0.60543 0.074627 0.694827C0.000630858 0.839924 0 0.901118 0 8.08041C0 15.2626 0.000593751 15.3209 0.0747012 15.4661C0.122795 15.5604 0.201615 15.6393 0.29591 15.6874C0.44149 15.7616 0.49541 15.7621 9.5 15.7621C18.5046 15.7621 18.5585 15.7616 18.7041 15.6874C18.7984 15.6393 18.8772 15.5604 18.9253 15.4661C18.9994 15.3209 19 15.2626 19 8.08041C19 0.898223 18.9994 0.839961 18.9253 0.694678C18.8772 0.600383 18.7984 0.521563 18.7041 0.473469C18.5585 0.399176 18.5063 0.398768 9.49221 0.400401C0.539718 0.402034 0.425014 0.402961 0.288006 0.475288ZM16.458 2.14291L15.828 2.77377H9.51711H3.20629L2.55869 2.14484L1.91113 1.51587L9.49959 1.51398L17.0881 1.51205L16.458 2.14291ZM2.41211 8.08041V12.59L1.7627 13.2386L1.11328 13.8872V8.08041V2.27357L1.7627 2.92221L2.41211 3.57084V8.08041ZM17.8867 8.08928V13.8501L17.2373 13.2015L16.5879 12.5529V8.08119V3.60951L17.2276 2.96896C17.5795 2.61668 17.8717 2.32846 17.877 2.32846C17.8824 2.32846 17.8867 4.92084 17.8867 8.08928ZM15.4746 8.08041V12.2738H9.5H3.52539V8.08041V3.88705H9.5H15.4746V8.08041ZM16.458 14.0179L17.0881 14.6488L9.49959 14.6468L1.91113 14.6449L2.55869 14.016L3.20629 13.3871H9.51711H15.828L16.458 14.0179Z"/>
		</symbol>

		<symbol viewBox="0 0 15 20" id="ic-laef">
			<path fill-rule="evenodd" clip-rule="evenodd" d="M10.7775 0.505987C10.6857 0.513817 10.4018 0.537901 10.1466 0.559573C6.98707 0.827688 4.2766 2.00283 2.19161 4.00859C0.809621 5.33804 0.0899963 7.00302 0.0899963 8.87103C0.0899963 10.4556 0.623221 11.9312 1.63382 13.1431C1.90119 13.4637 2.42043 13.966 2.66921 14.1446L2.83609 14.2645V16.6834V19.1022L2.92033 19.2283C3.15427 19.5785 3.63754 19.5554 3.8566 19.1835C3.92777 19.0627 3.9316 18.9728 3.94937 16.9938L3.96793 14.9299L4.24625 15.0416C4.61025 15.1876 5.16771 15.3476 5.59354 15.4283C5.85401 15.4776 6.12788 15.4928 6.75113 15.4922C7.49302 15.4916 7.61006 15.4825 8.03356 15.3924C8.8222 15.2248 9.5684 14.9335 10.1768 14.5556C11.4456 13.7675 12.2483 12.7951 12.655 11.5533C12.9925 10.5231 13.0377 9.59545 12.8554 7.44232C12.6549 5.0756 12.7254 4.19852 13.1908 3.26752C13.4688 2.71136 13.8948 2.23517 14.49 1.81509C14.699 1.66758 14.8426 1.53714 14.8779 1.46296C15.0393 1.12271 14.8477 0.747532 14.4736 0.671457C14.049 0.585067 13.072 0.518492 12.0392 0.505541C11.4371 0.497971 10.8693 0.498194 10.7775 0.505987ZM10.001 1.86111C8.84235 2.48473 7.6858 3.37272 6.73113 4.37167C4.63686 6.56305 3.31714 9.34084 2.9286 12.3754C2.89743 12.619 2.86567 12.8245 2.85806 12.8321C2.83442 12.8558 2.30732 12.2186 2.11906 11.9388C1.75194 11.3931 1.4656 10.7082 1.3047 9.99111C1.19604 9.50672 1.18725 8.323 1.28855 7.82195C1.54457 6.55615 2.15999 5.51787 3.20878 4.58227C4.80352 3.1596 6.62678 2.27618 8.82925 1.85885C9.34819 1.76054 9.92658 1.68169 10.1652 1.67671L10.3507 1.67285L10.001 1.86111ZM12.5008 2.24434C12.1401 2.76038 11.8496 3.50773 11.7138 4.26903C11.6154 4.82073 11.6282 6.32526 11.7417 7.5351C11.8549 8.74078 11.8654 10.0081 11.7666 10.5355C11.6756 11.0214 11.5397 11.4334 11.346 11.8102C11.126 12.2382 10.8956 12.5358 10.4854 12.922C9.74099 13.6228 8.85356 14.0777 7.77164 14.313C7.52156 14.3675 7.30243 14.3813 6.71402 14.38C5.9122 14.3781 5.5879 14.3302 4.96309 14.1213C4.55307 13.9842 3.99038 13.7115 3.96132 13.6357C3.92451 13.5398 4.01602 12.5616 4.11852 11.9549C4.56806 9.29364 5.83007 6.8439 7.73059 4.94338C8.81961 3.85437 10.1262 2.95773 11.3964 2.42766C11.7363 2.28586 12.5435 2.0088 12.6225 2.00691C12.6473 2.00628 12.5926 2.11316 12.5008 2.24434Z"/>
		</symbol>

		<symbol viewBox="0 0 19 20" id="ic-ceramics">
			<path fill-rule="evenodd" clip-rule="evenodd" d="M0.288006 0.575263C0.203211 0.620054 0.120234 0.705406 0.074627 0.794802C0.000482418 0.940197 0 0.99779 0 9.99874C0 19.0033 0.000445316 19.0573 0.0747012 19.2028C0.122795 19.2971 0.201615 19.3759 0.29591 19.424C0.44149 19.4983 0.49541 19.4987 9.5 19.4987C18.5046 19.4987 18.5585 19.4983 18.7041 19.424C18.7984 19.3759 18.8772 19.2971 18.9253 19.2028C18.9996 19.0573 19 19.0033 19 9.99874C19 0.994154 18.9996 0.940234 18.9253 0.794654C18.8772 0.700359 18.7984 0.621538 18.7041 0.573445C18.5585 0.499152 18.5063 0.498743 9.49221 0.500376C0.539718 0.502009 0.425014 0.502937 0.288006 0.575263ZM17.8867 9.99874V18.3855H9.5H1.11328V9.99874V1.61202H9.5H17.8867V9.99874ZM2.51457 2.80183C2.42977 2.84662 2.3468 2.93197 2.30119 3.02136C2.22831 3.16427 2.22656 3.23556 2.22656 6.0837C2.22656 8.933 2.22827 9.0031 2.30126 9.14619C2.35103 9.24375 2.42829 9.31934 2.53257 9.37256C2.67514 9.44526 2.7258 9.4503 3.098 9.42878C6.25508 9.24616 8.74742 6.75382 8.93004 3.59675C8.95156 3.22454 8.94651 3.17388 8.87382 3.03131C8.8206 2.92703 8.74501 2.84977 8.64745 2.80001C8.50424 2.72698 8.43596 2.72534 5.57717 2.72694C2.73941 2.72853 2.64924 2.73076 2.51457 2.80183ZM10.3446 2.80183C10.2567 2.84829 10.1767 2.93234 10.1261 3.0315C10.0535 3.17385 10.0484 3.22465 10.07 3.59675C10.1588 5.13307 10.7769 6.52048 11.8564 7.60715C12.9507 8.70852 14.3509 9.33905 15.902 9.42878C16.2742 9.4503 16.3249 9.44526 16.4674 9.37256C16.5717 9.31934 16.649 9.24375 16.6987 9.14619C16.7717 9.0031 16.7734 8.933 16.7734 6.0837C16.7734 3.23441 16.7717 3.16431 16.6987 3.02122C16.6506 2.92692 16.5718 2.8481 16.4775 2.80001C16.3343 2.72698 16.266 2.72534 13.4072 2.72694C10.5695 2.72853 10.4793 2.73076 10.3446 2.80183ZM7.79297 3.89017C7.79297 4.17947 7.51788 5.09693 7.3029 5.52461C6.81688 6.49142 5.99268 7.31562 5.02587 7.80165C4.59819 8.01662 3.68073 8.29171 3.39143 8.29171C3.34797 8.29171 3.33984 7.94092 3.33984 6.06515V3.83859H5.56641C7.44217 3.83859 7.79297 3.84671 7.79297 3.89017ZM15.6602 6.06864V8.29869L15.4653 8.27212C14.5707 8.15021 13.639 7.71073 12.8495 7.03834C12.5752 6.8047 12.1211 6.25448 11.9009 5.88895C11.5699 5.33959 11.3031 4.60571 11.2262 4.03341L11.2001 3.83859H13.4301H15.6602V6.06864ZM9.25307 6.84185C9.14304 6.89183 9.06879 6.96327 8.99368 7.09152C8.8052 7.41326 8.34979 7.99721 8.02145 8.33821C7.64512 8.72901 7.24616 9.05824 6.74916 9.38807C6.45302 9.58457 6.38155 9.65092 6.33168 9.7756C6.29857 9.85832 6.27148 9.95874 6.27148 9.99874C6.27148 10.0387 6.29857 10.1392 6.33168 10.2219C6.38196 10.3476 6.45273 10.4125 6.7617 10.6162C7.22649 10.9227 7.69144 11.31 8.06142 11.6989C8.36019 12.013 8.81511 12.6012 8.98956 12.899C9.05996 13.0191 9.13963 13.0954 9.25144 13.1495C9.59723 13.3169 9.80519 13.2111 10.1495 12.6929C10.4655 12.217 10.7923 11.8275 11.197 11.444C11.5339 11.1248 12.0993 10.6855 12.4002 10.5092C12.581 10.4033 12.7285 10.1739 12.7285 9.99874C12.7285 9.82359 12.581 9.59421 12.4002 9.4883C12.0897 9.30639 11.5294 8.86902 11.176 8.5327C10.7775 8.15348 10.444 7.75181 10.1207 7.26185C9.94349 6.99325 9.86081 6.90234 9.74102 6.84437C9.55169 6.75271 9.45057 6.75219 9.25307 6.84185ZM9.7041 8.57367C9.93462 8.87255 10.6289 9.56542 10.9356 9.80266C11.0618 9.90029 11.1652 9.98854 11.1654 9.99874C11.1655 10.0089 11.0572 10.1008 10.9247 10.2028C10.6496 10.4146 9.9678 11.0929 9.68525 11.436L9.49484 11.6671L9.31059 11.436C9.0643 11.1269 8.46866 10.525 8.13623 10.2491C7.98824 10.1263 7.86719 10.0135 7.86719 9.9983C7.86719 9.98312 7.96323 9.89272 8.08057 9.79739C8.39871 9.53888 9.08463 8.8485 9.2959 8.57408C9.39795 8.44152 9.48979 8.33309 9.5 8.33309C9.51021 8.33309 9.60205 8.44134 9.7041 8.57367ZM2.51457 10.6319C2.42977 10.6767 2.3468 10.762 2.30119 10.8514C2.22831 10.9943 2.22656 11.0656 2.22656 13.9138C2.22656 16.7631 2.22827 16.8332 2.30126 16.9763C2.34936 17.0706 2.42818 17.1494 2.52247 17.1975C2.66557 17.2705 2.73567 17.2722 5.58496 17.2722C8.43426 17.2722 8.50436 17.2705 8.64745 17.1975C8.74501 17.1477 8.8206 17.0705 8.87382 16.9662C8.94651 16.8236 8.95156 16.7729 8.93004 16.4007C8.75466 13.3691 6.45477 10.9405 3.4311 10.5941C2.92908 10.5366 2.67533 10.547 2.51457 10.6319ZM15.5368 10.5946C12.6746 10.9272 10.425 13.1899 10.0953 16.0676C10.0117 16.7977 10.0699 17.0533 10.3526 17.1975C10.4956 17.2705 10.5657 17.2722 13.415 17.2722C16.2643 17.2722 16.3344 17.2705 16.4775 17.1975C16.5718 17.1494 16.6506 17.0706 16.6987 16.9763C16.7717 16.8332 16.7734 16.7631 16.7734 13.9138C16.7734 11.0645 16.7717 10.9944 16.6987 10.8513C16.556 10.5715 16.273 10.509 15.5368 10.5946ZM4.07056 11.8391C5.43842 12.1918 6.65427 13.1825 7.3029 14.4729C7.51788 14.9006 7.79297 15.818 7.79297 16.1073C7.79297 16.1508 7.44217 16.1589 5.56641 16.1589H3.33984V13.9288V11.6988L3.53467 11.725C3.64184 11.7394 3.88298 11.7907 4.07056 11.8391ZM15.6602 13.9323V16.1589H13.4301H11.2001L11.2262 15.9641C11.2714 15.6278 11.4226 15.1004 11.5755 14.7457C12.0613 13.6188 12.924 12.7114 14.0088 12.1864C14.5185 11.9397 15.2279 11.7238 15.5767 11.7093L15.6602 11.7058V13.9323Z"/>
		</symbol>

		<symbol viewBox="0 0 19 20" id="ic-ball">
			<path class="st0" d="M8.8,0.5c-0.1,0-0.3,0-0.5,0.1c-2,0.2-4,1.2-5.5,2.7C1.3,4.8,0.4,6.6,0,8.8c-0.1,0.5-0.1,2,0,2.5
				c0.3,2.2,1.2,3.9,2.7,5.4c2.4,2.4,6,3.4,9.3,2.4c3.4-1,6.1-3.9,6.8-7.4c0.6-3.1-0.4-6.2-2.6-8.5c-1.5-1.5-3.3-2.4-5.4-2.7
				C10.4,0.5,9.1,0.5,8.8,0.5z M10.3,1.6c0.5,0,1.2,0.2,1.6,0.3L12.1,2l-0.5,0.1c-1.1,0.3-2.1,0.7-3.2,1.2C8,3.6,7.8,3.7,7.7,3.6
				c0-0.1-0.3-0.9-0.4-1.3C7.3,2,7.3,1.9,7.3,1.9c0.1,0,0.9-0.2,1.3-0.2C9.1,1.6,9.8,1.6,10.3,1.6z M6.3,2.8c1.2,4.9,5.5,9.2,10.4,10.4
				c0.3,0.1,0.5,0.1,0.5,0.1c0,0-0.1,0.2-0.2,0.4l-0.2,0.4l-0.2,0c-1.3-0.1-3.1-0.7-4.5-1.4c-3.6-2-6.3-5.8-6.8-9.5c0-0.2,0-0.5,0-0.5
				c0,0,0.8-0.4,0.9-0.4C6.2,2.3,6.3,2.5,6.3,2.8z M14.2,3.1c0.3,0.2,0.9,0.7,1.1,0.9l0.1,0.1l-0.3,0c-1.9,0.2-3.7,0.7-5.5,1.6
				C9.3,5.8,9,6,9,6c0,0-0.1,0-0.1,0c0-0.1-0.3-0.5-0.5-0.9L8.2,4.7l0.1-0.1c0.6-0.4,1.6-0.8,2.4-1.1c1-0.4,2-0.6,3.2-0.7
				C13.9,2.9,14,3,14.2,3.1z M4.3,3.8c0.1,0.4,0.3,1.2,0.4,1.8c1.4,4.1,4.9,7.7,9.1,9.1c0.5,0.2,1.3,0.4,1.8,0.4c0.2,0,0.3,0.1,0.3,0.1
				c0,0,0,0.1-0.2,0.3c-0.1,0.2-0.3,0.3-0.4,0.4L15.3,16l-0.5,0c-1.4-0.1-2.7-0.5-4.1-1.2c-2-1-3.8-2.5-5.1-4.4c-1.3-1.8-2-3.8-2.2-5.8
				l0-0.5l0.1-0.1C3.6,4,3.8,3.9,3.9,3.7c0.2-0.2,0.3-0.2,0.3-0.2C4.3,3.5,4.3,3.7,4.3,3.8z M16.2,5.2c0.2,0,0.2,0,0.4,0.3
				c0.2,0.3,0.5,0.8,0.5,0.9c0,0-0.2,0-0.5,0C14.6,6.5,12.8,7,11,7.9l-0.5,0.2L10.4,8c-0.1-0.1-0.8-1-0.8-1c0,0,1.1-0.6,1.6-0.8
				c1.4-0.6,2.9-0.9,4.4-1c0.3,0,0.5,0,0.6,0C16,5.2,16.1,5.2,16.2,5.2z M2.5,5.8C2.6,6.2,2.8,7,3,7.5c1.3,3.8,4.4,7.1,8.1,8.7
				c0.8,0.3,1.8,0.6,2.6,0.8C14,17,14,17,13.8,17.2c-0.3,0.2-1.2,0.6-1.3,0.6c-0.2,0-1.2-0.2-1.7-0.4c-1.4-0.4-2.7-1.1-3.9-2
				c-1-0.8-2.1-1.8-2.8-2.8c-1.2-1.6-2-3.4-2.3-5.2C1.7,6.9,1.7,6.9,2,6.3c0.2-0.5,0.5-0.8,0.5-0.8C2.4,5.5,2.5,5.6,2.5,5.8z M17.5,7.6
				c0,0.1,0.2,0.8,0.2,1.1l0,0.1l-0.2,0c-0.1,0-0.4,0-0.7,0.1c-1.3,0.1-2.5,0.4-3.8,0.9L12.6,10l-0.1-0.1c-0.2-0.1-0.7-0.6-1-0.8
				L11.3,9l0.3-0.1C13.3,8,15.3,7.6,17,7.5C17.5,7.5,17.5,7.5,17.5,7.6z M1.2,9.7c0.5,1.5,1.5,3.1,2.6,4.4c0.4,0.4,1.2,1.3,1.7,1.6
				c1.2,1,2.6,1.9,3.9,2.4c0.7,0.3,0.7,0.3,0.2,0.3c-1.8,0.1-3.7-0.6-5.2-1.7c-1.8-1.4-3.1-3.6-3.3-5.9c0-0.5-0.1-1.3,0-1.3
				C1.1,9.5,1.2,9.6,1.2,9.7z M17.9,10.1c0,0.5-0.2,1.8-0.3,2c-0.1,0.1-1.3-0.2-2.2-0.6c-0.4-0.2-1.3-0.6-1.6-0.8l-0.1-0.1l0.5-0.2
				c1.1-0.4,2.5-0.6,3.4-0.6l0.3,0V10.1z"/>
		</symbol>

		<symbol viewBox="0 0 19 20" id="ic-tool">
			<path class="st0" d="M17.5,0.5c-1.8,0.2-3.5,0.8-5,1.8c-0.6,0.4-1.1,0.8-1.9,1.6C10,4.5,9.9,4.6,9.8,4.6c0,0-0.2-0.1-0.3-0.1
				C8.8,4.3,8,4.7,7.7,5.4C7.5,5.7,7.5,5.7,7.5,6.1c0,0.4,0,0.5,0.1,0.7C7.8,7,7.8,7,7.7,7.1C7.4,7.2,6.4,7.6,5.9,7.8
				C4,8.7,2.8,9.6,1.2,11.2c-1,0.9-1.1,1.1-1.2,1.5c-0.3,1.1,0.7,2.3,1.9,2.1c0.4-0.1,0.7-0.2,1.2-0.8c1.2-1.1,2.4-2.1,3.8-2.9
				c0.8-0.4,2.5-1.3,2.6-1.2c0,0-0.3,0.9-0.7,1.6C8,13.3,7,14.8,5.5,16.3c-0.6,0.6-0.7,0.8-0.8,1.3c-0.2,1.2,0.9,2.2,2.1,1.9
				c0.4-0.1,0.5-0.2,1.2-0.9c1.7-1.6,2.6-3,3.6-4.8c0.3-0.6,0.7-1.5,0.8-1.9c0-0.1,0.1,0,0.3,0.1c0.2,0.1,0.3,0.1,0.7,0.1
				c0.4,0,0.5,0,0.7-0.1c0.7-0.3,1.1-1,1-1.8c0-0.1-0.1-0.3-0.1-0.4l0-0.1l0.7-0.7c0.4-0.4,0.8-0.9,1-1.1C18,6.1,18.8,4.1,19,1.9
				c0.1-1,0-1.2-0.3-1.4C18.5,0.5,18.1,0.5,17.5,0.5z M15.6,3.1l-1.4,1.4l-0.8-0.5c-0.4-0.3-0.8-0.5-0.8-0.5c0-0.1,1-0.7,1.4-0.9
				c0.8-0.4,1.6-0.7,2.4-0.9c0.2,0,0.4-0.1,0.4-0.1C17,1.7,16.3,2.4,15.6,3.1z M17.7,2.9c-0.3,1.5-1,2.9-2,4.2c-0.2,0.2-0.6,0.7-0.9,1
				l-0.6,0.6L12.5,7l-1.7-1.7l0.5-0.5l0.5-0.5l1.2,0.7c1.2,0.7,1.3,0.8,1.6,0.7c0.1,0,0.8-0.8,1.7-1.6c0.9-0.9,1.6-1.6,1.6-1.6
				C17.8,2.6,17.7,2.7,17.7,2.9z M9.5,5.6c0.1,0,0.5,0.4,1,0.9l0.9,0.9l-0.5,0.5c-0.6,0.6-0.6,0.6-1.4,0.9c-2.6,0.9-4.8,2.3-6.8,4.2
				c-0.6,0.6-0.7,0.6-1,0.6c-0.2,0-0.4-0.2-0.4-0.4c-0.1-0.3,0-0.4,0.8-1.1c0.8-0.8,1.2-1.1,1.8-1.6c0.9-0.7,1.6-1.1,2.7-1.6
				C7.2,8.4,7.7,8.2,8.5,8c0.3-0.1,0.6-0.2,0.6-0.2c0.1-0.1,0.2-0.4,0.2-0.5C9.3,7.1,9.2,7,9,6.8C8.7,6.4,8.6,6.3,8.6,6.1
				c0-0.3,0.1-0.4,0.4-0.5C9.2,5.5,9.3,5.6,9.5,5.6z M13.9,10.1c0.1,0.2,0,0.6-0.2,0.7c-0.2,0.1-0.5,0.1-0.6,0c-0.1,0-0.2-0.2-0.4-0.3
				c-0.2-0.2-0.3-0.3-0.4-0.3c-0.2,0-0.4,0.1-0.5,0.2c0,0.1-0.1,0.3-0.2,0.6c-0.7,2-1.6,3.7-3,5.4c-0.2,0.2-0.7,0.8-1.1,1.2
				c-0.8,0.8-0.9,0.9-1.2,0.8c-0.2,0-0.4-0.2-0.4-0.4c-0.1-0.3,0-0.4,0.6-1c0.9-0.9,1.5-1.7,2.2-2.7c0.9-1.3,1.6-2.8,2.1-4.3
				C11,9.4,11,9.3,11.6,8.7l0.5-0.5l0.9,0.9C13.4,9.6,13.8,10,13.9,10.1z"/>
		</symbol>

		<symbol viewBox="0 0 19 20" id="ic-box">
			<path class="st0" d="M9.1,0.5c-0.1,0-0.1,0-0.2,0.1c-0.1,0-2,1-4.2,2.2C0.2,5.1,0.3,5.1,0.1,5.5L0,5.7V10v4.3l0.1,0.2
			c0.2,0.4,0.1,0.4,4.6,2.7c2.3,1.2,4.2,2.2,4.3,2.2c0.2,0.1,0.4,0.1,0.7,0c0.3-0.1,8.7-4.4,8.9-4.5c0.1-0.1,0.2-0.2,0.3-0.4l0.1-0.2
			V10V5.7l-0.1-0.2c-0.1-0.2-0.2-0.3-0.3-0.4c-0.1-0.1-1.2-0.7-4.1-2.1c-5.1-2.6-4.8-2.4-5-2.4C9.3,0.5,9.1,0.5,9.1,0.5z M13.3,3.6
			c2.2,1.1,3.9,2,3.9,2c0,0-0.7,0.4-1.5,0.8l-1.5,0.8l-3.8-2C8.2,4,6.5,3.1,6.5,3c0,0,0.5-0.3,1.1-0.6c1.5-0.8,1.6-0.8,1.6-0.8
			C9.3,1.6,11.1,2.5,13.3,3.6z M9.3,5.8c2,1,3.6,1.9,3.6,1.9c0,0-0.8,0.4-1.8,0.9L9.3,9.5l-3.7-2c-2.1-1.1-3.8-2-3.8-2
			c0,0,0.8-0.5,1.8-1l1.8-0.9l0.2,0.1C5.6,3.8,7.3,4.7,9.3,5.8z M5.4,8.8l3.3,1.7l0,3.8c0,2.1,0,3.8,0,3.8c-0.1,0-7.5-4-7.5-4
			c0,0,0-0.9,0-3.8V6.5l0.5,0.3C1.9,7,3.6,7.9,5.4,8.8z M17.9,10.3c0,2.9,0,3.7,0,3.8c0,0-7.9,4.1-8,4.1c0,0,0-1.7,0-3.8l0-3.8
			l1.8-0.9c1-0.5,1.8-0.9,1.8-0.9c0,0,0,0.5,0,1c0,1.2,0,1.2,0.3,1.4c0.2,0.1,0.4,0.1,0.6-0.1c0.2-0.2,0.2-0.2,0.2-1.6V8.1l1.6-0.8
			c0.9-0.4,1.6-0.8,1.6-0.8C17.9,6.5,17.9,8.2,17.9,10.3z"/>
		</symbol>

		<symbol viewBox="0 0 16 20" id="ic-christmas-ball">
			<path fill-rule="evenodd" clip-rule="evenodd" d="M7.11897 0.567349C6.35997 0.787964 5.91926 1.36702 5.85417 2.22918L5.8289 2.56409L5.69463 2.61178C5.3402 2.73765 4.97215 3.0349 4.75536 3.37033C4.52747 3.72287 4.46045 3.99091 4.43822 4.63854L4.41896 5.19867L4.13615 5.33835C3.30182 5.75038 2.38296 6.49917 1.7502 7.28262C0.0765336 9.35496 -0.374902 12.2538 0.593504 14.7102C1.63268 17.3463 4.03187 19.1712 6.8353 19.458C7.88977 19.5659 8.91966 19.4496 9.95256 19.1059C14.0218 17.752 16.1333 13.2263 14.5541 9.24363C13.8889 7.56592 12.5525 6.09371 10.9925 5.32002L10.6733 5.16171L10.6527 4.62003C10.6376 4.2231 10.6118 4.01392 10.5561 3.83717C10.3874 3.30238 9.95858 2.83584 9.45686 2.6415L9.30842 2.58398L9.28857 2.17626C9.27023 1.79879 9.25828 1.74739 9.12766 1.48306C8.74836 0.715675 7.91526 0.33586 7.11897 0.567349ZM7.91029 1.71087C8.10203 1.85289 8.17658 2.00842 8.17658 2.26644V2.50308L7.57356 2.49288L6.97053 2.48267L6.95743 2.3899C6.95023 2.33888 6.96337 2.21215 6.9866 2.10831C7.03105 1.90952 7.18168 1.72479 7.36018 1.65009C7.49711 1.59279 7.79536 1.62574 7.91029 1.71087ZM9.10703 3.71233C9.3973 3.87034 9.54636 4.1598 9.54874 4.57008C9.54978 4.75295 9.55048 4.75277 9.19011 4.66912C8.22275 4.44457 6.88911 4.45233 5.89566 4.68831C5.71824 4.73043 5.56382 4.7649 5.55258 4.7649C5.5413 4.7649 5.54007 4.64021 5.54983 4.48784C5.57455 4.10261 5.68536 3.89428 5.95021 3.73512L6.15086 3.61451H7.53904H8.92727L9.10703 3.71233ZM8.82206 5.72833C9.41522 5.85651 9.86807 6.01504 10.4217 6.28831C11.4454 6.79363 12.2595 7.51033 12.9069 8.47584C13.0982 8.76113 13.5203 9.56014 13.5203 9.63688C13.5203 9.65402 13.3192 9.49582 13.0735 9.28534C12.4734 8.7713 12.3586 8.69846 12.1491 8.69864C12.0476 8.69872 11.9359 8.72677 11.869 8.76908C11.8077 8.80774 11.3323 9.19936 10.8125 9.63936C9.99917 10.3278 9.85938 10.4325 9.81051 10.3904C9.21821 9.87972 7.94465 8.81969 7.86115 8.76785C7.6962 8.6655 7.44026 8.67638 7.26833 8.79305C7.15723 8.86842 5.69296 10.0899 5.37293 10.3741C5.29793 10.4407 5.28239 10.4295 4.29038 9.59372C3.73678 9.12733 3.25618 8.73512 3.2223 8.72213C3.18845 8.70911 3.08087 8.69849 2.98324 8.69849C2.78095 8.69849 2.80196 8.68487 2.13525 9.2489C1.88424 9.46128 1.67124 9.62738 1.66188 9.61803C1.62489 9.58107 2.14252 8.62209 2.37824 8.29088C2.70258 7.83518 3.42424 7.1137 3.8719 6.79764C4.60336 6.28112 5.61689 5.85295 6.43244 5.7159C6.62634 5.68332 6.82673 5.64933 6.87776 5.64035C6.92878 5.63137 7.30451 5.62962 7.71272 5.63649C8.29608 5.64632 8.53346 5.66599 8.82206 5.72833ZM4.05284 10.8508C4.54777 11.2692 4.99735 11.635 5.05186 11.6637C5.16894 11.7252 5.42752 11.7284 5.53733 11.6697C5.58 11.6468 6.0494 11.2612 6.5804 10.8127C7.11143 10.3643 7.56138 9.99732 7.58035 9.99732C7.59927 9.99732 8.0591 10.3724 8.60212 10.8309C9.28267 11.4055 9.63194 11.6762 9.72609 11.7022C10.0141 11.7818 10.0806 11.7361 11.7305 10.3235C11.9401 10.1441 12.1287 9.99732 12.1496 9.99732C12.1706 9.99732 12.5877 10.3347 13.0767 10.747L13.9656 11.4968L13.9649 11.9624C13.9643 12.387 13.8834 13.2091 13.8378 13.2547C13.8149 13.2777 13.8055 13.2704 13.2052 12.7592C12.3615 12.0408 12.2594 11.983 11.992 12.0719C11.9243 12.0944 11.4348 12.4813 10.9041 12.9317C10.3735 13.3821 9.91917 13.7592 9.89464 13.7698C9.87007 13.7804 9.40249 13.4113 8.85557 12.9496C8.18831 12.3863 7.81536 12.0964 7.72199 12.0684C7.46627 11.9916 7.3712 12.0508 6.3066 12.95C5.76061 13.4111 5.29422 13.7802 5.27014 13.7703C5.24609 13.7603 4.79221 13.3833 4.26154 12.9324C3.62208 12.3891 3.24976 12.0981 3.15754 12.0696C2.90969 11.993 2.78415 12.0628 2.04448 12.6885C1.67187 13.0037 1.35629 13.2619 1.34315 13.2623C1.28949 13.2638 1.22982 12.7606 1.21115 12.1497L1.19134 11.5002L2.09558 10.736C2.96457 10.0016 3.00279 9.97405 3.07638 10.0309C3.1185 10.0634 3.55791 10.4324 4.05284 10.8508ZM4.01402 14.183C4.53099 14.62 4.99857 15.0007 5.05309 15.0291C5.21147 15.1118 5.43795 15.0944 5.59544 14.9875C5.71115 14.909 7.23786 13.636 7.49689 13.402L7.5779 13.3289L8.52786 14.1321C9.05032 14.5739 9.53152 14.9682 9.59721 15.0082C9.73971 15.0951 9.95765 15.1025 10.1065 15.0255C10.1659 14.9948 10.6504 14.6015 11.1833 14.1515L12.1522 13.3332L12.7992 13.8768C13.155 14.1758 13.4536 14.4325 13.4627 14.4473C13.4913 14.4936 13.1277 15.1809 12.8757 15.5568C12.2648 16.4682 11.4096 17.2186 10.4217 17.7099C8.09212 18.8685 5.33211 18.5035 3.35236 16.7751C2.71798 16.2213 2.06753 15.3434 1.76067 14.6269L1.68526 14.4509L2.34017 13.8961C2.70039 13.591 3.01285 13.352 3.03456 13.365C3.05627 13.378 3.49702 13.7461 4.01402 14.183Z"/>
		</symbol>

		<symbol viewBox="0 0 19 18" id="ic-butterfly">
			<path fill-rule="evenodd" clip-rule="evenodd" d="M6.04059 0.143831C5.79255 0.295052 5.70441 0.602948 5.83211 0.872066C5.9067 1.02919 6.03777 1.12523 6.25464 1.18167C7.25607 1.44221 8.0527 2.07174 8.5176 2.9699C8.79151 3.49904 8.88914 3.89667 8.91541 4.58965L8.93694 5.15731L8.56974 4.79208C7.82451 4.05082 6.96595 3.58907 5.95156 3.38389C5.50517 3.2936 4.48834 3.29379 4.06485 3.38426C2.03337 3.81822 0.514483 5.32033 0.0883191 7.31681C-0.0204856 7.82651 -0.0305051 8.76946 0.0679832 9.23581C0.45971 11.0912 1.69838 12.5074 3.4439 13.0956C3.61193 13.1523 3.74548 13.2129 3.7407 13.2304C3.73587 13.2479 3.68347 13.3959 3.62425 13.5593C3.47039 13.9836 3.41888 14.3566 3.44586 14.8506C3.47247 15.3379 3.53641 15.5995 3.73053 16.0154C3.92521 16.4324 4.09995 16.6851 4.4034 16.9886C4.81034 17.3955 5.35351 17.7116 5.90562 17.8629C6.20624 17.9452 6.96713 17.9788 7.26316 17.9227C7.77786 17.8254 8.24711 17.6292 8.64786 17.344C8.86584 17.1888 9.29508 16.7666 9.41992 16.5845L9.48282 16.4927L9.54572 16.5845C9.67055 16.7666 10.0998 17.1888 10.3178 17.344C10.7185 17.6292 11.1878 17.8254 11.7025 17.9227C11.9985 17.9788 12.7594 17.9452 13.06 17.8629C13.6121 17.7116 14.1553 17.3955 14.5622 16.9886C14.8657 16.6851 15.0404 16.4324 15.2351 16.0154C15.4292 15.5995 15.4932 15.3379 15.5198 14.8506C15.5467 14.3566 15.4952 13.9836 15.3414 13.5593C15.2822 13.3959 15.2298 13.2479 15.2249 13.2304C15.2201 13.2129 15.3537 13.1523 15.5217 13.0956C17.0492 12.5809 18.2568 11.3612 18.7369 9.84812C18.9199 9.27129 18.9645 8.96525 18.9613 8.30808C18.9578 7.62144 18.8841 7.17572 18.6844 6.63404C18.0647 4.95321 16.6807 3.76448 14.9008 3.38426C14.4773 3.29379 13.4605 3.2936 13.0141 3.38389C11.9997 3.58907 11.1411 4.05082 10.3959 4.79208L10.0287 5.15731L10.0502 4.58965C10.0765 3.89667 10.1741 3.49904 10.448 2.9699C10.9129 2.07174 11.7096 1.44221 12.711 1.18167C12.9279 1.12523 13.0589 1.02919 13.1335 0.872066C13.3099 0.50023 13.056 0.0703177 12.6597 0.0699466C12.3729 0.0696497 11.7008 0.312568 11.234 0.58521C10.6606 0.920122 10.0894 1.45175 9.73468 1.98093C9.61151 2.16462 9.49818 2.31491 9.48282 2.31491C9.46745 2.31491 9.35412 2.16462 9.23096 1.98093C8.65661 1.12426 7.72684 0.447052 6.71416 0.147765C6.38459 0.0503528 6.19571 0.0492396 6.04059 0.143831ZM5.59635 4.46666C7.0225 4.68164 8.23498 5.68882 8.70185 7.04636C8.91074 7.6538 8.90235 7.48718 8.91634 11.2995C8.93059 15.1781 8.93345 15.1192 8.70768 15.5904C8.54365 15.9328 8.27865 16.2378 7.95295 16.4594C7.60853 16.6936 7.27529 16.8062 6.84686 16.8329C5.57064 16.9124 4.47554 15.8141 4.55825 14.5374C4.59202 14.0159 4.75827 13.6325 5.18874 13.0831C5.3033 12.9369 5.30029 12.6359 5.18266 12.4707C5.06743 12.3088 4.93105 12.2462 4.60401 12.2047C3.61909 12.0798 2.81204 11.6765 2.16674 10.9867C1.08738 9.83287 0.81069 8.13578 1.46619 6.69007C1.8096 5.93267 2.53268 5.19308 3.30411 4.81019C3.98918 4.47012 4.80655 4.34762 5.59635 4.46666ZM14.7709 4.50489C16.1409 4.79085 17.3072 5.87957 17.6983 7.23751C18.0795 8.56113 17.7386 9.98208 16.7989 10.9867C16.1536 11.6765 15.3465 12.0798 14.3616 12.2047C14.0346 12.2462 13.8982 12.3088 13.783 12.4707C13.6653 12.6359 13.6623 12.9369 13.7769 13.0831C14.2074 13.6325 14.3736 14.0159 14.4074 14.5374C14.4901 15.8141 13.395 16.9124 12.1188 16.8329C11.6903 16.8062 11.3571 16.6936 11.0127 16.4594C10.5338 16.1336 10.2075 15.6498 10.0915 15.0936C10.007 14.6885 10.034 7.8847 10.1215 7.52878C10.318 6.72945 10.6635 6.09766 11.1945 5.56666C12.1286 4.63262 13.472 4.23377 14.7709 4.50489Z"/>
		</symbol>

		<symbol viewBox="0 0 15 20" id="ic-pear">
			<path fill-rule="evenodd" clip-rule="evenodd" d="M7.92251 0.546501C7.76376 0.617046 7.64323 0.761253 7.60486 0.926538C7.58664 1.00506 7.57135 1.30724 7.57086 1.59811L7.56997 2.12691L6.28042 2.12714C5.34549 2.12729 4.8939 2.14209 4.63833 2.18091C3.23894 2.39343 2.02442 3.17236 1.25281 4.35214C0.751979 5.11797 0.488836 5.98473 0.471432 6.92601C0.462786 7.39262 0.48713 7.46232 0.719137 7.63536C0.819221 7.71002 0.862639 7.71188 2.52154 7.71188H4.22137L3.96587 8.22183C3.65586 8.84067 3.33461 9.38632 2.84673 10.1227C2.31239 10.9292 2.0976 11.3878 1.91257 12.1171C1.13884 15.1674 3.23623 18.4863 6.44218 19.2847C7.11234 19.4516 7.32939 19.4755 8.16372 19.4742C8.9946 19.4729 9.24773 19.4427 9.92642 19.2637C12.7254 18.5255 14.75 15.7599 14.5082 13.005C14.4105 11.8915 14.1283 11.1596 13.3401 9.97555C12.409 8.57704 11.849 7.3917 11.3516 5.76675C11.2448 5.4177 11.0923 5.0148 10.9994 4.8359C10.5532 3.97719 9.7896 3.40849 8.78531 3.18706L8.68325 3.16457V2.02037C8.68325 0.892583 8.68203 0.874362 8.59902 0.750083C8.44765 0.523493 8.16536 0.43855 7.92251 0.546501ZM7.35838 3.37936C7.31451 3.66495 7.15305 4.15509 7.00754 4.44436C6.52627 5.40122 5.71981 6.09751 4.70695 6.43071C4.24735 6.58189 3.87035 6.61685 2.6971 6.617L1.5908 6.61715L1.6164 6.44088C1.66142 6.13105 1.81539 5.65372 1.97076 5.34233C2.5015 4.2787 3.52242 3.50601 4.67206 3.29786C4.87049 3.26194 5.31231 3.24587 6.16676 3.24354L7.37975 3.2402L7.35838 3.37936ZM8.87259 4.36925C9.35078 4.53379 9.80143 4.92407 10.0253 5.36753C10.0875 5.49073 10.2113 5.83485 10.3004 6.13217C10.793 7.77615 11.3927 9.0464 12.3866 10.5507C12.6226 10.9079 12.8967 11.3699 12.9959 11.5773C14.1756 14.0457 12.7197 17.1473 9.93436 18.0995C9.32079 18.3093 8.98937 18.358 8.16372 18.3595C7.3249 18.3612 7.0314 18.3207 6.40956 18.1181C5.14859 17.7071 4.02276 16.7596 3.42122 15.6031C3.03402 14.8586 2.88002 14.2404 2.87905 13.4267C2.87783 12.4106 3.10479 11.7407 3.80946 10.6806C4.50541 9.63369 4.97061 8.78326 5.3823 7.80506L5.59297 7.30449L5.88569 7.1359C6.04667 7.0432 6.28692 6.89391 6.41958 6.80418C6.74054 6.58709 7.39485 5.92484 7.63258 5.57649C7.84462 5.26574 8.11856 4.73711 8.22451 4.43426L8.29361 4.23677L8.4606 4.26085C8.55244 4.2741 8.73784 4.3229 8.87259 4.36925Z"/>
		</symbol>

		<symbol viewBox="0 0 19 20" id="ic-wood">
			<path class="st0" d="M7,0.5C6.4,0.6,5.9,0.8,5.4,1.1C5,1.4,4.7,1.7,4.1,2.5C3.3,3.4,3.1,3.5,2.5,4C2.3,4.2,1.9,4.5,1.8,4.6
			C1.5,4.9,1.4,5,1.3,5.3C1,5.9,0.9,6.1,0.9,7.1c-0.1,1-0.1,1.1-0.4,2C0,10.4-0.1,10.8,0,11.4c0.1,0.6,0.2,0.9,0.9,1.9
			c0.4,0.6,0.5,0.8,0.8,1.6c0.7,1.8,1,2.1,2.8,2.8c0.8,0.3,1,0.4,1.6,0.8c1,0.7,1.3,0.8,1.9,0.9c0.6,0.1,1,0,2.3-0.5
			c0.8-0.3,1-0.3,1.9-0.4c1-0.1,1.3-0.1,1.8-0.4c0.3-0.2,0.4-0.2,0.7-0.5c0.2-0.2,0.5-0.5,0.7-0.8c0.4-0.6,0.6-0.7,1.5-1.5
			c0.4-0.3,0.8-0.7,0.9-0.9c0.6-0.7,0.9-1.3,1-2.2c0.1-0.5,0-1-0.2-1.9c-0.3-1.4-0.3-1.5-0.2-2.6c0.1-0.8,0.1-1.4,0-1.8
			c-0.2-0.7-1.1-2.2-2-3.1c-1-1-2.4-1.9-3.1-2c-0.4-0.1-1-0.1-1.8,0C10.5,1.1,10.4,1,9,0.7C8,0.5,7.5,0.5,7,0.5z M7.9,1.6
			c0.1,0,0.6,0.1,0.9,0.2c1.4,0.3,1.7,0.3,2.9,0.2C12.2,2,12.6,2,12.8,2c0.4,0,0.4,0,0.8,0.2c1.5,0.8,2.9,2.2,3.7,3.7
			c0.2,0.4,0.2,0.4,0.2,0.8c0,0.3,0,0.7-0.1,1.1c-0.1,1.2-0.1,1.5,0.2,2.9c0.3,1.1,0.3,1.5,0.1,2.1c-0.2,0.6-0.5,1-1.5,1.8
			c-0.8,0.7-1.1,1-1.6,1.6c-0.5,0.7-0.7,0.9-1,1c-0.3,0.2-0.6,0.2-1.4,0.3c-0.4,0-0.9,0.1-1.1,0.1c-0.2,0-0.7,0.2-1.2,0.4
			c-1.1,0.4-1.4,0.4-1.8,0.3c-0.3-0.1-0.6-0.2-1.2-0.6c-0.8-0.5-1-0.6-1.9-1c-0.8-0.3-1.1-0.5-1.4-0.8c-0.3-0.3-0.5-0.6-0.8-1.4
			c-0.4-0.9-0.5-1.2-1-1.9c-0.4-0.6-0.6-0.9-0.6-1.2c-0.1-0.4,0-0.7,0.3-1.8c0.2-0.5,0.3-1,0.4-1.2C1.9,8.2,2,7.7,2,7.2
			C2,6.4,2.1,6.2,2.2,5.8c0.1-0.3,0.3-0.5,1-1C3.9,4.3,4.2,4,4.9,3.2C5.7,2.3,6.1,2,6.6,1.8C7,1.6,7.4,1.6,7.9,1.6z M9,2.6
			c-1.3,0.2-2.2,0.5-3.2,1c-2.3,1.4-3.7,4.1-3.5,6.8c0.3,3.5,2.9,6.3,6.4,6.7c0.6,0.1,1.6,0.1,2.1,0c1.5-0.3,2.8-0.9,3.9-2
			c1.2-1.2,2-2.7,2.2-4.4c0.1-0.5,0-1.6,0-2.1c-0.2-1.2-0.7-2.3-1.4-3.2c-0.3-0.4-1-1.1-1.4-1.4c-1.1-0.8-2.4-1.3-3.7-1.5
			C10,2.6,9.2,2.6,9,2.6z M10.5,3.8C13,4.1,15,6,15.6,8.4c0.3,1,0.2,2.2-0.1,3.3c-0.7,2.3-2.6,4-5,4.4c-0.4,0.1-1.5,0.1-1.9,0
			c-1.3-0.2-2.4-0.8-3.3-1.7c-1-1-1.6-2.1-1.9-3.5c-0.1-0.4-0.1-1.4,0-1.9c0.4-2.3,1.9-4.1,4-4.9c0.5-0.2,1-0.3,1.7-0.4
			C9.4,3.7,10.3,3.7,10.5,3.8z M8.9,4.6C7.3,4.8,5.9,5.7,5,7.1c-0.3,0.5-0.6,1.3-0.7,2c-0.1,0.4-0.1,1.3,0,1.7c0.4,2,1.7,3.6,3.6,4.2
			c0.6,0.2,1,0.3,1.7,0.3c0.7,0,1.1-0.1,1.6-0.2c2.2-0.7,3.7-2.8,3.7-5.1c0-0.9-0.2-1.6-0.5-2.4C13.4,5.4,11.2,4.2,8.9,4.6z M10.2,5.7
			c1.1,0.1,2.1,0.8,2.8,1.7c1.6,2.1,0.9,5.1-1.5,6.4c-1.3,0.7-3,0.6-4.2-0.2c-1.2-0.7-1.9-1.9-2-3.2C5.2,8.6,6.1,6.9,7.6,6.1
			C8.5,5.7,9.3,5.5,10.2,5.7z M9.3,7.2C8.3,7.4,7.5,8.1,7.1,9C7,9.3,7,9.5,7,9.9c0,1.1,0.6,2,1.5,2.4c0.5,0.2,1,0.3,1.5,0.2
			c0.6-0.1,1.1-0.3,1.5-0.8c0.3-0.3,0.5-0.6,0.7-1.1c0.1-0.3,0.1-0.3,0.1-0.8c0-0.4,0-0.5-0.1-0.8c-0.2-0.8-0.8-1.4-1.5-1.7
			C10.2,7.3,9.7,7.2,9.3,7.2z M10.1,8.4c0.7,0.2,1.2,1,1,1.7c-0.1,0.7-0.6,1.2-1.3,1.3c-0.6,0.1-1.3-0.2-1.6-0.8
			c-0.1-0.3-0.1-0.3-0.1-0.7c0-0.4,0-0.4,0.1-0.6C8.6,8.5,9.3,8.2,10.1,8.4z"/>
		</symbol>

		<symbol viewBox="0 0 19 20" id="ic-chain">
			<path class="st0" d="M16.9,0.5c-0.4,0.1-0.5,0.2-1.1,0.7l-0.5,0.5l-0.2-0.1c-0.2-0.1-0.8-0.2-1.1-0.3c-1.1-0.2-2.4,0.2-3.3,0.8
				c-0.2,0.1-0.9,0.8-1.9,1.8C7.1,5.9,6.9,6,6.6,6.7L6.5,7L6.2,7.1C5.5,7.4,5.4,7.6,3.6,9.3c-1.8,1.7-2,2-2.3,2.6
				C1,12.7,0.8,13.7,1,14.5c0,0.3,0.2,0.9,0.3,1.1l0.1,0.2l-0.5,0.5c-0.6,0.6-0.7,0.8-0.8,1.2c-0.1,0.5,0.1,1,0.5,1.4
				c0.4,0.4,0.9,0.6,1.4,0.5c0.5-0.1,0.6-0.2,1.2-0.8l0.5-0.5l0.2,0.1c1.2,0.5,2.5,0.4,3.7-0.1c0.6-0.3,0.8-0.4,2.5-2.1
				c1.7-1.7,1.9-2,2.3-2.6l0.2-0.3l0.3-0.2c0.6-0.3,0.9-0.5,2.6-2.3c1.7-1.7,1.9-1.9,2.1-2.5C17.8,7.7,17.9,7.4,18,7
				c0.1-0.4,0.1-1.3,0-1.8c-0.1-0.3-0.2-0.8-0.3-0.9c0,0,0.1-0.2,0.5-0.6c0.6-0.6,0.7-0.8,0.8-1.2c0.1-0.5-0.1-1-0.5-1.4
				C18.1,0.6,17.5,0.4,16.9,0.5z M17.6,1.7c0.2,0.1,0.3,0.3,0.3,0.5c0,0.1,0,0.2-0.1,0.3c0,0.1-0.9,0.9-1.8,1.9
				c-1.9,1.9-1.9,1.9-2.2,1.8c-0.2,0-0.4-0.2-0.4-0.4c-0.1-0.3,0-0.3,1.8-2.1c1-1,1.8-1.8,1.9-1.8C17.2,1.6,17.4,1.6,17.6,1.7z
				M13.9,2.6c0.1,0,0.3,0.1,0.4,0.1l0.1,0L14,3.2c-0.5,0.5-0.5,0.5-0.6,0.5c-0.3,0-0.7,0.1-1,0.3C12,4.1,12,4.1,10.4,5.7
				C8.9,7.2,8.8,7.3,8.7,7.6C8.6,7.7,8.5,8,8.5,8.1c-0.1,0.3-0.1,0.8,0,1.1c0.1,0.3,0.3,0.7,0.5,1c0.4,0.5,0.4,0.5,0.5,0.7
				c0.1,0.2,0.1,0.7,0,0.9l0,0.1l-0.3-0.1c-1-0.5-1.7-1.6-1.8-2.7C7.2,8.2,7.4,7.4,7.9,6.7c0.2-0.3,3-3.1,3.4-3.4
				C12,2.7,13,2.4,13.9,2.6z M16.9,5.6c0.1,0.8-0.1,1.7-0.6,2.5c-0.2,0.4-3.4,3.5-3.5,3.5c0,0,0-0.2,0-0.4c0-0.2,0-0.5-0.1-0.7
				l-0.1-0.3l1.4-1.4c1.2-1.2,1.4-1.4,1.5-1.6c0.2-0.3,0.2-0.6,0.3-0.9l0-0.3l0.5-0.5l0.5-0.5l0,0.1C16.9,5.2,16.9,5.4,16.9,5.6z
				M12.4,6c0.1,0.4,0.5,0.8,0.9,1c0.2,0.1,0.5,0.1,0.7,0.2c0.1,0,0,0.1-0.8,0.9l-0.9,0.9l-0.2-0.3c-0.4-0.6-0.8-1-1.4-1.4l-0.3-0.2
				l0.9-0.9l0.9-0.9l0,0.2C12.3,5.7,12.3,5.9,12.4,6z M10.3,8.5c0.5,0.4,1,1,1.2,1.7c0.1,0.4,0.2,0.7,0.2,1.1c0,0.8-0.2,1.5-0.7,2.1
				c-0.3,0.4-3.1,3.2-3.4,3.4c-0.5,0.4-1.2,0.6-1.8,0.6c-0.3,0-0.8,0-1.1-0.1l-0.1,0L5,16.8l0.5-0.5l0.3,0c0.4,0,0.7-0.2,1-0.3
				c0.1-0.1,0.7-0.7,1.8-1.7c1.5-1.5,1.6-1.6,1.7-1.9c0.2-0.4,0.2-0.7,0.2-1.1c0-0.6-0.2-1.1-0.6-1.6C9.7,9.3,9.6,9.2,9.5,8.9
				c0-0.2,0-0.5,0.1-0.7l0-0.1l0.2,0.1C10,8.3,10.2,8.4,10.3,8.5z M6.2,8.8c0,0.2,0,0.5,0.1,0.7l0.1,0.3l-1.4,1.4
				c-1.4,1.4-1.4,1.4-1.5,1.7c-0.1,0.3-0.2,0.7-0.2,1c0,0.1,0,0.2-0.5,0.6l-0.5,0.5l0-0.1C2.1,14.6,2,14.1,2,13.7
				c0-0.6,0.3-1.3,0.6-1.8C2.9,11.6,6,8.4,6.1,8.4C6.2,8.4,6.2,8.6,6.2,8.8z M6.9,11.2c0.4,0.5,0.8,1,1.4,1.3l0.3,0.2l-0.9,0.9
				l-0.9,0.9l0-0.3c-0.1-0.7-0.6-1.3-1.3-1.4c-0.1,0-0.3-0.1-0.4-0.1l-0.1,0l0.9-0.9c0.5-0.5,0.9-0.9,0.9-0.9
				C6.7,10.9,6.8,11.1,6.9,11.2z M5.2,13.9c0.3,0.1,0.4,0.4,0.3,0.7c-0.1,0.2-3.4,3.5-3.6,3.7c-0.1,0-0.2,0.1-0.3,0.1
				c-0.2,0-0.4-0.1-0.5-0.3c-0.1-0.2-0.1-0.3,0-0.5C1.3,17.4,4.7,14,4.8,14C5,13.9,5.1,13.9,5.2,13.9z"/>
		</symbol>

		<symbol viewBox="0 0 19 20" id="ic-candelabra">
			<path fill-rule="evenodd" clip-rule="evenodd" d="M9.07919 0.557039C8.59124 0.731379 8.1742 1.20382 7.91503 1.87583C7.67875 2.48862 7.63804 3.02852 7.79687 3.44411L7.8692 3.63337L7.79138 3.74017C7.7156 3.84411 7.7133 3.88931 7.70313 5.45277C7.69289 7.03285 7.69156 7.05856 7.61819 7.05856C7.47042 7.05856 7.25255 7.20433 7.17596 7.35447C7.1128 7.47831 7.10126 7.57312 7.10126 7.96823C7.10126 8.52242 7.16631 8.857 7.34878 9.24149C7.58672 9.74283 8.16396 10.2503 8.68768 10.4186L8.88251 10.4812V11.1393V11.7974L8.52069 11.82C8.06929 11.8483 7.672 11.9491 7.26984 12.1376C6.83166 12.3429 6.66192 12.4681 6.15345 12.9604C5.60631 13.4902 5.4529 13.5662 4.93036 13.5662C4.4646 13.5662 4.24035 13.4746 3.91063 13.1493C3.55356 12.7971 3.49167 12.6229 3.47259 11.917L3.45801 11.3761L3.68786 11.2976C4.03224 11.18 4.29519 11.0046 4.59099 10.6953C5.0644 10.2002 5.24579 9.68617 5.24579 8.83989C5.24579 8.46378 5.23376 8.36793 5.17109 8.2451C5.09423 8.09451 4.87655 7.94919 4.72774 7.94919C4.65274 7.94919 4.65204 7.93446 4.65144 6.38132C4.65081 4.81798 4.65059 4.813 4.5662 4.66501L4.48159 4.51657L4.55615 4.33103C4.6153 4.18385 4.63055 4.06109 4.62992 3.73728C4.62925 3.3749 4.6156 3.28948 4.5085 2.97653C4.44215 2.78264 4.32922 2.51897 4.25757 2.39061C4.07502 2.06372 3.73666 1.71459 3.45641 1.56411C3.24812 1.45223 3.19167 1.4388 2.92578 1.43772C2.66353 1.43664 2.59907 1.45086 2.38228 1.55755C2.10251 1.69518 1.78033 2.01555 1.57571 2.35959C1.50631 2.47626 1.3902 2.74211 1.31765 2.95037C1.1976 3.29501 1.18573 3.36581 1.18543 3.73728C1.18517 4.06395 1.20035 4.18326 1.2615 4.33474L1.33795 4.52399L1.26013 4.6308C1.18435 4.73474 1.18205 4.77994 1.17188 6.34339C1.16164 7.92347 1.16031 7.94919 1.08694 7.94919C0.939171 7.94919 0.721302 8.09495 0.644709 8.2451C0.581548 8.36893 0.570007 8.46375 0.570007 8.85885C0.570007 9.41304 0.63506 9.74762 0.817527 10.1321C1.05466 10.6317 1.63282 11.141 2.1522 11.3078L2.34283 11.369L2.35998 11.9877C2.37497 12.5269 2.38967 12.6446 2.47457 12.9033C2.73649 13.7013 3.35124 14.3146 4.1593 14.5839C4.41075 14.6677 4.51006 14.68 4.93036 14.6799C5.35352 14.6799 5.44926 14.6677 5.70966 14.5811C6.17003 14.428 6.43637 14.2491 6.91567 13.7711C7.28328 13.4046 7.39464 13.3171 7.66061 13.186C7.9963 13.0205 8.37433 12.9235 8.68768 12.9225L8.88251 12.9218V14.4433V15.9648H7.17399C5.53595 15.9648 5.45946 15.9679 5.3193 16.0394C5.23796 16.0809 5.14511 16.1673 5.10997 16.2342C5.07523 16.3004 4.93674 16.8053 4.80222 17.3564L4.55759 18.3584L4.09454 18.3769C3.74843 18.3908 3.60118 18.4121 3.5113 18.4612C3.37306 18.5367 3.24188 18.7668 3.24188 18.9336C3.24188 19.1177 3.37314 19.3315 3.53779 19.4155C3.6827 19.4894 3.74464 19.4902 9.43915 19.4902C15.1337 19.4902 15.1956 19.4894 15.3405 19.4155C15.5052 19.3315 15.6364 19.1177 15.6364 18.9336C15.6364 18.7668 15.5052 18.5367 15.367 18.4612C15.2771 18.4121 15.1299 18.3908 14.7838 18.3769L14.3207 18.3584L14.0761 17.3564C13.9416 16.8053 13.8031 16.3004 13.7683 16.2342C13.7332 16.1673 13.6403 16.0809 13.559 16.0394C13.4188 15.9679 13.3423 15.9648 11.7043 15.9648H9.99579V14.4433V12.9218L10.1906 12.9225C10.504 12.9235 10.882 13.0205 11.2177 13.186C11.4837 13.3171 11.595 13.4046 11.9626 13.7711C12.4419 14.2491 12.7083 14.428 13.1686 14.5811C13.4291 14.6678 13.5247 14.6799 13.9479 14.6799C14.3712 14.6799 14.4668 14.6678 14.7272 14.5811C15.5293 14.3143 16.1424 13.6987 16.4065 12.8951C16.4884 12.6457 16.5036 12.5224 16.5184 11.9887L16.5354 11.371L16.7578 11.295C17.0948 11.18 17.3596 11.0027 17.6535 10.6953C18.1269 10.2002 18.3083 9.68617 18.3083 8.83989C18.3083 8.46378 18.2963 8.36793 18.2336 8.2451C18.1567 8.09451 17.939 7.94919 17.7902 7.94919C17.7152 7.94919 17.7145 7.93446 17.7139 6.38132C17.7133 4.81798 17.7131 4.813 17.6287 4.66501L17.5441 4.51657L17.6186 4.33103C17.6778 4.18385 17.6931 4.06109 17.6924 3.73728C17.6918 3.3749 17.6781 3.28948 17.571 2.97653C17.5046 2.78264 17.3917 2.51897 17.3201 2.39061C17.1375 2.06372 16.7992 1.71459 16.5189 1.56411C16.3106 1.45223 16.2542 1.4388 15.9883 1.43772C15.726 1.43664 15.6616 1.45086 15.4448 1.55755C15.165 1.69518 14.8428 2.01555 14.6382 2.35959C14.5688 2.47626 14.4527 2.74211 14.3801 2.95037C14.2601 3.29501 14.2482 3.36581 14.2479 3.73728C14.2477 4.06395 14.2628 4.18326 14.324 4.33474L14.4004 4.52399L14.3226 4.6308C14.2469 4.73474 14.2446 4.77994 14.2344 6.34339C14.2241 7.92347 14.2228 7.94919 14.1494 7.94919C14.0017 7.94919 13.7838 8.09495 13.7072 8.2451C13.644 8.36893 13.6325 8.46375 13.6325 8.85885C13.6325 9.41304 13.6976 9.74762 13.88 10.1321C14.118 10.6335 14.6952 11.1409 15.2189 11.3092L15.4138 11.3718V11.8236C15.4138 12.5376 15.2963 12.8617 14.9098 13.215C14.6273 13.4732 14.3725 13.5662 13.9479 13.5662C13.4287 13.5662 13.2799 13.4925 12.7288 12.9623C12.2156 12.4684 12.0433 12.3413 11.6165 12.1416C11.2157 11.954 10.8005 11.848 10.3576 11.8201L9.99579 11.7974V11.1393V10.4812L10.1906 10.4186C10.7125 10.2509 11.2748 9.75738 11.5244 9.24802C11.7036 8.88216 11.777 8.50483 11.777 7.94926C11.777 7.57316 11.765 7.47731 11.7023 7.35447C11.6255 7.20388 11.4078 7.05856 11.259 7.05856C11.184 7.05856 11.1833 7.04383 11.1827 5.49069C11.1821 3.92735 11.1818 3.92238 11.0975 3.77438L11.0128 3.62595L11.0833 3.4404C11.1812 3.18264 11.2031 2.75766 11.135 2.43782C11.0069 1.83601 10.6725 1.19825 10.3097 0.86386C9.95753 0.539227 9.46954 0.417545 9.07919 0.557039ZM9.61078 1.73574C9.77061 1.90522 9.97753 2.33799 10.0359 2.62492C10.1006 2.94299 10.0602 3.10742 9.8708 3.29686C9.6035 3.56412 9.27479 3.56412 9.00749 3.29686C8.81808 3.10742 8.77767 2.94299 8.84239 2.62492C8.92637 2.21208 9.28195 1.60349 9.43915 1.60349C9.46494 1.60349 9.54216 1.66301 9.61078 1.73574ZM3.02847 2.60473C3.17583 2.72066 3.35336 3.02641 3.44999 3.33071C3.59338 3.78225 3.55701 4.00547 3.30385 4.22771C3.15282 4.36034 2.97473 4.40747 2.76992 4.36906C2.57889 4.33321 2.3297 4.08046 2.29311 3.88542C2.23414 3.57121 2.44889 2.96262 2.7189 2.6788C2.87988 2.50955 2.90103 2.5045 3.02847 2.60473ZM16.091 2.60473C16.2383 2.72066 16.4159 3.02641 16.5125 3.33071C16.6559 3.78225 16.6195 4.00547 16.3664 4.22771C16.2153 4.36034 16.0372 4.40747 15.8324 4.36906C15.6414 4.33321 15.3922 4.08046 15.3556 3.88542C15.2966 3.57121 15.5114 2.96262 15.7814 2.6788C15.9424 2.50955 15.9635 2.5045 16.091 2.60473ZM10.07 5.83396V7.05856H9.43915H8.80829V5.83396V4.60935H9.43915H10.07V5.83396ZM3.53876 6.72458V7.94919H2.9079H2.27704V6.72458V5.49997H2.9079H3.53876V6.72458ZM16.6013 6.72458V7.94919H15.9704H15.3395V6.72458V5.49997H15.9704H16.6013V6.72458ZM10.6485 8.36667C10.5968 8.7732 10.3079 9.16085 9.9281 9.33348C9.79588 9.3936 9.6795 9.41267 9.43915 9.41367C9.16227 9.41486 9.09744 9.40169 8.90871 9.30606C8.52963 9.11402 8.27365 8.75817 8.22615 8.35736L8.20418 8.17185H9.43878H10.6733L10.6485 8.36667ZM4.11725 9.25729C4.06552 9.66383 3.77667 10.0515 3.39685 10.2241C3.26463 10.2842 3.14826 10.3033 2.9079 10.3043C2.63674 10.3054 2.56308 10.2912 2.3831 10.2028C2.0097 10.0194 1.74237 9.64854 1.6949 9.24798L1.67294 9.06247H2.90753H4.14208L4.11725 9.25729ZM17.1798 9.25729C17.128 9.66383 16.8392 10.0515 16.4593 10.2241C16.3271 10.2842 16.2108 10.3033 15.9704 10.3043C15.6992 10.3054 15.6256 10.2912 15.4456 10.2028C15.0722 10.0194 14.8049 9.64854 14.7574 9.24798L14.7354 9.06247H15.97H17.2046L17.1798 9.25729ZM13.024 17.7275L13.1789 18.3584L11.309 18.368C10.2806 18.3733 8.59765 18.3733 7.56917 18.368L5.69919 18.3584L5.84429 17.7646C5.92407 17.4381 5.99692 17.1499 6.00612 17.1243C6.01944 17.0873 6.72671 17.0797 9.44598 17.0872L12.869 17.0966L13.024 17.7275Z"/>
		</symbol>
	</defs>
</svg>