<svg xmlns="http://www.w3.org/2000/svg" xmlns:xlink="http://www.w3.org/1999/xlink">
	<defs>
		<symbol viewBox="0 0 21 21" id="ic-cart">
			<path d="M19 14H5C4.73478 14 4.48043 13.8946 4.29289 13.7071C4.10536 13.5196 4 13.2652 4 13C4 12.7348 4.10536 12.4804 4.29289 12.2929C4.48043 12.1054 4.73478 12 5 12H15.44C16.1087 12 16.7582 11.7767 17.2854 11.3654C17.8126 10.9542 18.1873 10.3786 18.35 9.73L20 3.24C20.0375 3.09241 20.0407 2.93821 20.0095 2.78917C19.9783 2.64013 19.9135 2.50018 19.82 2.38C19.7227 2.25673 19.5978 2.1581 19.4554 2.09208C19.3129 2.02606 19.1569 1.99452 19 2H4.76C4.55369 1.41645 4.17193 0.910998 3.66707 0.552938C3.1622 0.194879 2.55894 0.00173951 1.94 0H1C0.734784 0 0.48043 0.105357 0.292893 0.292893C0.105357 0.48043 0 0.734784 0 1C0 1.26522 0.105357 1.51957 0.292893 1.70711C0.48043 1.89464 0.734784 2 1 2H1.94C2.16843 1.99334 2.39226 2.06513 2.57421 2.20341C2.75615 2.34169 2.88525 2.53812 2.94 2.76L3 3.24L4.73 10C3.93435 10.0358 3.18551 10.3862 2.64822 10.9741C2.11093 11.5621 1.8292 12.3394 1.865 13.135C1.9008 13.9306 2.25121 14.6795 2.83914 15.2168C3.42707 15.7541 4.20435 16.0358 5 16H5.18C5.01554 16.4531 4.96269 16.9392 5.02593 17.4171C5.08917 17.895 5.26665 18.3506 5.54332 18.7454C5.81999 19.1401 6.18772 19.4624 6.61535 19.6849C7.04299 19.9074 7.51795 20.0235 8 20.0235C8.48205 20.0235 8.95701 19.9074 9.38465 19.6849C9.81228 19.4624 10.18 19.1401 10.4567 18.7454C10.7334 18.3506 10.9108 17.895 10.9741 17.4171C11.0373 16.9392 10.9845 16.4531 10.82 16H13.18C13.0155 16.4531 12.9627 16.9392 13.0259 17.4171C13.0892 17.895 13.2666 18.3506 13.5433 18.7454C13.82 19.1401 14.1877 19.4624 14.6154 19.6849C15.043 19.9074 15.5179 20.0235 16 20.0235C16.4821 20.0235 16.957 19.9074 17.3846 19.6849C17.8123 19.4624 18.18 19.1401 18.4567 18.7454C18.7334 18.3506 18.9108 17.895 18.9741 17.4171C19.0373 16.9392 18.9845 16.4531 18.82 16H19C19.2652 16 19.5196 15.8946 19.7071 15.7071C19.8946 15.5196 20 15.2652 20 15C20 14.7348 19.8946 14.4804 19.7071 14.2929C19.5196 14.1054 19.2652 14 19 14ZM17.72 4L16.41 9.24C16.3552 9.46188 16.2262 9.65831 16.0442 9.79659C15.8623 9.93487 15.6384 10.0067 15.41 10H6.78L5.28 4H17.72ZM8 18C7.80222 18 7.60888 17.9414 7.44443 17.8315C7.27998 17.7216 7.15181 17.5654 7.07612 17.3827C7.00043 17.2 6.98063 16.9989 7.01921 16.8049C7.0578 16.6109 7.15304 16.4327 7.29289 16.2929C7.43275 16.153 7.61093 16.0578 7.80491 16.0192C7.99889 15.9806 8.19996 16.0004 8.38268 16.0761C8.56541 16.1518 8.72159 16.28 8.83147 16.4444C8.94135 16.6089 9 16.8022 9 17C9 17.2652 8.89464 17.5196 8.70711 17.7071C8.51957 17.8946 8.26522 18 8 18ZM16 18C15.8022 18 15.6089 17.9414 15.4444 17.8315C15.28 17.7216 15.1518 17.5654 15.0761 17.3827C15.0004 17.2 14.9806 16.9989 15.0192 16.8049C15.0578 16.6109 15.153 16.4327 15.2929 16.2929C15.4327 16.153 15.6109 16.0578 15.8049 16.0192C15.9989 15.9806 16.2 16.0004 16.3827 16.0761C16.5654 16.1518 16.7216 16.28 16.8315 16.4444C16.9414 16.6089 17 16.8022 17 17C17 17.2652 16.8946 17.5196 16.7071 17.7071C16.5196 17.8946 16.2652 18 16 18Z"/>
		</symbol>

		<symbol viewBox="0 0 16 16" id="ic-search">
			<path d="M15.2825 14.7175L12.5001 11.9575C13.5801 10.6108 14.1032 8.90146 13.9617 7.18096C13.8201 5.46047 13.0248 3.85958 11.7392 2.70747C10.4536 1.55537 8.77541 0.939622 7.04974 0.986842C5.32408 1.03406 3.68209 1.74066 2.46141 2.96135C1.24072 4.18203 0.534124 5.82402 0.486903 7.54968C0.439683 9.27534 1.05543 10.9535 2.20753 12.2391C3.35964 13.5247 4.96053 14.3201 6.68103 14.4616C8.40152 14.6031 10.1109 14.0801 11.4576 13L14.2176 15.76C14.2873 15.8303 14.3702 15.8861 14.4616 15.9242C14.553 15.9622 14.651 15.9818 14.7501 15.9818C14.8491 15.9818 14.9471 15.9622 15.0385 15.9242C15.1299 15.8861 15.2128 15.8303 15.2825 15.76C15.4177 15.6201 15.4933 15.4332 15.4933 15.2387C15.4933 15.0442 15.4177 14.8573 15.2825 14.7175ZM7.25005 13C6.2117 13 5.19666 12.6921 4.33331 12.1152C3.46995 11.5383 2.79704 10.7184 2.39968 9.75908C2.00232 8.79977 1.89836 7.74417 2.10093 6.72577C2.3035 5.70737 2.80351 4.7719 3.53774 4.03768C4.27197 3.30345 5.20743 2.80344 6.22583 2.60087C7.24423 2.39829 8.29983 2.50226 9.25914 2.89962C10.2185 3.29698 11.0384 3.96989 11.6153 4.83325C12.1921 5.6966 12.5001 6.71164 12.5001 7.74999C12.5001 9.14238 11.9469 10.4777 10.9624 11.4623C9.97779 12.4469 8.64244 13 7.25005 13Z" />
		</symbol>

		<symbol viewBox="0 0 12 15" id="ic-lock">
			<path d="M5.99996 8.16666C5.79699 8.16429 5.59817 8.22415 5.43025 8.3382C5.26234 8.45224 5.13339 8.61499 5.06077 8.80453C4.98815 8.99408 4.97533 9.20132 5.02406 9.39837C5.07278 9.59542 5.1807 9.77281 5.33329 9.90666V10.8333C5.33329 11.0101 5.40353 11.1797 5.52855 11.3047C5.65358 11.4298 5.82315 11.5 5.99996 11.5C6.17677 11.5 6.34634 11.4298 6.47136 11.3047C6.59639 11.1797 6.66663 11.0101 6.66663 10.8333V9.90666C6.81922 9.77281 6.92714 9.59542 6.97586 9.39837C7.02458 9.20132 7.01177 8.99408 6.93915 8.80453C6.86653 8.61499 6.73758 8.45224 6.56966 8.3382C6.40175 8.22415 6.20293 8.16429 5.99996 8.16666V8.16666ZM9.33329 5.5V4.16666C9.33329 3.28261 8.9821 2.43476 8.35698 1.80964C7.73186 1.18452 6.88401 0.833328 5.99996 0.833328C5.1159 0.833328 4.26806 1.18452 3.64294 1.80964C3.01782 2.43476 2.66663 3.28261 2.66663 4.16666V5.5C2.13619 5.5 1.62749 5.71071 1.25241 6.08578C0.87734 6.46085 0.666626 6.96956 0.666626 7.5V12.1667C0.666626 12.6971 0.87734 13.2058 1.25241 13.5809C1.62749 13.9559 2.13619 14.1667 2.66663 14.1667H9.33329C9.86373 14.1667 10.3724 13.9559 10.7475 13.5809C11.1226 13.2058 11.3333 12.6971 11.3333 12.1667V7.5C11.3333 6.96956 11.1226 6.46085 10.7475 6.08578C10.3724 5.71071 9.86373 5.5 9.33329 5.5ZM3.99996 4.16666C3.99996 3.63623 4.21067 3.12752 4.58575 2.75245C4.96082 2.37738 5.46953 2.16666 5.99996 2.16666C6.53039 2.16666 7.0391 2.37738 7.41417 2.75245C7.78925 3.12752 7.99996 3.63623 7.99996 4.16666V5.5H3.99996V4.16666ZM9.99996 12.1667C9.99996 12.3435 9.92972 12.513 9.8047 12.6381C9.67967 12.7631 9.5101 12.8333 9.33329 12.8333H2.66663C2.48981 12.8333 2.32025 12.7631 2.19522 12.6381C2.0702 12.513 1.99996 12.3435 1.99996 12.1667V7.5C1.99996 7.32318 2.0702 7.15361 2.19522 7.02859C2.32025 6.90357 2.48981 6.83333 2.66663 6.83333H9.33329C9.5101 6.83333 9.67967 6.90357 9.8047 7.02859C9.92972 7.15361 9.99996 7.32318 9.99996 7.5V12.1667Z"/>
		</symbol>

		<symbol viewBox="0 0 19 20" id="ic-new">
			<path class="st0" d="M8.6,0.5C6.3,0.8,4.4,1.7,2.8,3.3C1.1,5,0.1,7.1,0,9.5c-0.1,1.1,0.2,2.6,0.6,3.7c0.2,0.5,0.6,1.4,0.9,1.8c1.6,2.7,4.7,4.4,8,4.4c1.6,0,3-0.3,4.4-1c2.7-1.4,4.4-3.8,4.9-6.9c0.2-1.1,0.2-1.9,0.1-2.8c-0.5-3.7-3.2-6.8-6.8-7.8c-0.8-0.2-1.4-0.3-2.4-0.3C9.1,0.5,8.7,0.5,8.6,0.5z M10.8,1.7C12.6,2,14.2,2.8,15.5,4c1.4,1.4,2.2,3.2,2.4,5.4c0.1,1.6-0.3,3.4-1.2,4.8c-1.1,1.9-3,3.3-5.1,3.8c-0.7,0.2-1.3,0.3-2.1,0.3c-1.7,0-3.2-0.5-4.7-1.4c-1.9-1.3-3.3-3.4-3.6-5.7c-0.1-0.6-0.1-1.6,0-2.2c0.3-2.3,1.3-4,2.7-5.3c1.3-1.1,2.8-1.8,4.8-2C9,1.6,10.5,1.7,10.8,1.7z M3.4,7.6c-0.2,0-0.3,0.1-0.4,0.3c0,0.1-0.2,0.9-0.4,2C2.3,12,2.3,12,2.6,12.2c0.3,0.3,0.8,0.1,0.9-0.3c0-0.1,0.1-0.6,0.2-1L3.8,10L4.3,11c0.6,1.2,0.6,1.3,1,1.3c0.2,0,0.4-0.1,0.5-0.3c0-0.1,0.2-0.8,0.4-2C6.5,8,6.5,8,6.3,7.8C6.1,7.6,5.7,7.6,5.5,7.9c0,0.1-0.1,0.5-0.2,1.1l-0.2,1l-0.5-1C4.2,8.4,4,7.9,4,7.8C3.8,7.7,3.6,7.6,3.4,7.6z M7.9,7.6C7.7,7.7,7.5,7.8,7.5,8c0,0.1-0.6,3.6-0.6,3.8c0,0.2,0.1,0.4,0.3,0.5c0.2,0.1,0.2,0.1,1.3,0.1c1.1,0,1.1,0,1.3-0.1c0.3-0.1,0.4-0.5,0.2-0.8c-0.1-0.2-0.2-0.2-1.1-0.2c-0.6,0-0.8,0-0.8,0c0,0,0-0.2,0-0.3l0-0.3l0.8,0c0.7,0,0.8,0,0.9-0.1c0.3-0.3,0.4-0.7,0-0.9C9.7,9.4,9.6,9.4,9,9.4c-0.7,0-0.7,0-0.6-0.4l0-0.3l0.9,0c1,0,1,0,1.1-0.2c0.2-0.3,0.1-0.8-0.3-0.9C10,7.6,8.1,7.6,7.9,7.6z M15.9,7.6c-0.1,0-0.2,0.1-0.3,0.1C15.6,7.8,15.4,8.3,15,9L14.5,10l-0.1-0.7c-0.1-0.4-0.2-0.8-0.2-0.8c-0.1-0.2-0.3-0.3-0.5-0.3c-0.3,0-0.4,0.1-0.8,0.8l-0.4,0.7l0-0.9c0-0.8,0-0.9-0.1-1c-0.1-0.1-0.3-0.2-0.5-0.2c-0.2,0-0.4,0.1-0.5,0.3c-0.1,0.1-0.1,0.3-0.1,2c0,1.1,0,1.9,0,2c0,0.2,0.2,0.4,0.4,0.4c0.1,0,0.2,0,0.3-0.1c0.2-0.1,0.2-0.1,0.7-1l0.6-0.9l0.2,0.8c0.2,0.9,0.2,1,0.4,1.1c0.2,0.1,0.4,0.1,0.6,0c0.1,0,0.4-0.6,1.1-2c0.5-1,1-1.9,1-2c0-0.1,0-0.2-0.1-0.3C16.4,7.7,16.2,7.6,15.9,7.6z"/>
		</symbol>

		<symbol viewBox="0 0 19 20" id="ic-fake-flower">
			<path class="st0" d="M14.1,0.6c-0.1,0-0.4,0.4-0.8,0.8L12.5,2l-0.2-0.2c-0.2-0.2-0.4-0.3-0.6-0.3c-0.1,0-0.3,0.2-1.1,1
				C10,3,9.5,3.6,9.4,3.7C8.9,4.4,8.6,5.2,8.6,6.1c0,0.9,0.3,1.7,0.8,2.5L9.7,9l-2,2l-2,2l0-0.8c0-0.6,0-0.8-0.1-1.1
				c-0.2-1-0.7-1.9-1.3-2.6C4,8.2,3.9,8.1,3.6,8.1c-0.2,0-0.4,0.1-0.7,0.5c-1.7,2-1.8,4.9-0.3,7l0.2,0.3l-1.4,1.4C0,18.7,0,18.7,0,19
				c0,0.2,0.3,0.4,0.4,0.4c0.3,0.1,0.2,0.2,3.1-2.7c1.4-1.4,2.6-2.6,2.6-2.6c0,0,0.1,0.1,0.3,0.2c0.1,0.1,0.5,0.3,0.7,0.4
				c0.8,0.4,1.5,0.6,2.4,0.6c1.3,0.1,2.5-0.3,3.6-1.1c0.6-0.5,0.8-0.8,0.7-1.1c-0.1-0.3-0.9-1-1.7-1.3c-0.7-0.3-1.2-0.5-1.9-0.5
				c-0.3,0-1.2,0-1.3,0c0,0,0.3-0.3,0.7-0.8l0.8-0.8l0.3,0.2c0.5,0.4,1.1,0.7,1.8,0.8c0.3,0.1,1.1,0.1,1.4,0c0.6-0.1,1.2-0.4,1.7-0.7
				c0.1-0.1,0.6-0.6,1.2-1.1C18,7.9,18,7.9,18,7.6c0-0.1-0.1-0.2-0.3-0.4L17.5,7l0.6-0.6C18.9,5.5,19,5.5,19,5.2V4.9l-0.3-0.3
				c-0.4-0.4-0.8-0.7-1.2-0.9c-0.3-0.1-0.8-0.3-1-0.4c-0.1,0-0.1,0-0.2-0.2c0-0.3-0.2-0.7-0.4-1C15.7,1.8,15.4,1.4,15,1
				C14.5,0.5,14.4,0.4,14.1,0.6z M14.7,2.5C15,3,15.2,3.8,15.2,4.3c-0.1,0.6-0.4,1.4-0.5,1.4c-0.1,0-0.7,0.1-0.9,0.1l-0.2,0l0-0.2
				c0.1-0.9,0.1-1.6-0.2-2.4L13.2,3l0.5-0.5l0.5-0.5L14.4,2C14.5,2.1,14.6,2.3,14.7,2.5z M12,3.1c0.2,0.2,0.4,0.7,0.5,1
				c0.1,0.4,0.1,1,0,1.3c-0.1,0.7-0.3,1-1.2,1.9l-0.7,0.7L10.4,8C10.2,7.7,10,7.3,9.9,7C9.8,6.7,9.8,6.6,9.8,6.1c0-0.5,0-0.6,0.1-0.9
				c0.2-0.6,0.4-0.8,1.1-1.6C11.4,3.3,11.8,3,11.8,3C11.8,3,11.9,3,12,3.1z M16.8,4.7c0.1,0.1,0.4,0.2,0.6,0.3l0.3,0.2l-0.5,0.5
				l-0.5,0.5l-0.2-0.1c-0.1,0-0.2-0.1-0.3-0.1L15.9,6L16,5.8c0.1-0.3,0.2-0.6,0.3-0.9c0.1-0.4,0.1-0.4,0.2-0.4
				C16.5,4.5,16.6,4.6,16.8,4.7z M15.4,7.1c0.4,0.1,1.2,0.5,1.2,0.7c0,0-0.3,0.3-0.7,0.7c-0.8,0.8-1,0.9-1.6,1.1
				c-0.3,0.1-0.4,0.1-0.9,0.1c-0.5,0-0.6,0-0.8-0.1c-0.4-0.1-0.7-0.3-1-0.5L11.4,9L12,8.3c0.9-1,1.2-1.1,2-1.3C14.3,6.9,15,7,15.4,7.1z
				M3.8,9.9c0.9,1.5,0.9,3.3,0,4.8c-0.1,0.1-0.2,0.2-0.2,0.2c0,0-0.3-0.4-0.4-0.7c-0.3-0.7-0.5-1.3-0.4-2.1c0-0.6,0.1-1.1,0.4-1.6
				c0.2-0.3,0.5-0.9,0.5-0.9C3.7,9.6,3.7,9.8,3.8,9.9z M10.8,12.6c0.5,0.1,0.8,0.3,1.2,0.5c0.2,0.1,0.3,0.2,0.3,0.2
				c0,0-0.3,0.3-0.7,0.5c-0.6,0.3-1.2,0.5-2,0.4c-0.9,0-1.7-0.2-2.4-0.7l-0.2-0.1l0.1-0.1c0.3-0.2,0.9-0.5,1.3-0.6
				c0.5-0.1,0.7-0.2,1.4-0.2C10.4,12.5,10.5,12.6,10.8,12.6z"/>
		</symbol>

		<symbol viewBox="0 0 19 20" id="ic-flower">
			<path class="st0" d="M9,0.5C8.4,0.6,7.8,0.9,7.4,1.2c-0.3,0.2-0.8,0.7-1,1.1C5.9,3,5.7,4,5.9,4.9c0,0.2,0,0.3,0,0.3
			c0,0-0.1,0-0.2-0.1C5.6,5.1,5.3,5,5.1,4.9C2.8,4.2,0.4,5.6,0.1,8c-0.1,0.8,0,1.7,0.4,2.5c0.6,1.1,1.7,1.9,2.9,2.1l0.2,0l-0.2,0.3
			c-2.1,2.2-1,5.7,1.9,6.5c0.4,0.1,1.2,0.1,1.6,0c0.8-0.2,1.4-0.6,2-1.1c0.2-0.2,0.6-0.8,0.7-1c0-0.1,0.1-0.1,0.1-0.1
			c0,0,0.1,0.1,0.1,0.1c0.2,0.5,0.7,1.1,1.2,1.5c1.3,1,3,1,4.4-0.1c1.5-1.1,1.9-3.1,1.2-4.7c-0.2-0.3-0.4-0.7-0.7-1l-0.2-0.3l0.2,0
			c1.3-0.2,2.4-1,2.9-2.1c0.4-0.8,0.5-1.6,0.4-2.5c-0.3-1.8-1.8-3.2-3.6-3.3c-0.6,0-1.3,0.1-1.9,0.4c-0.2,0.1-0.3,0.1-0.3,0.1
			c0,0,0-0.1,0-0.3c0.3-2-0.9-3.9-2.7-4.3C10.1,0.5,9.3,0.5,9,0.5z M10,1.7c0.5,0.1,0.9,0.3,1.2,0.6c0.4,0.4,0.7,0.9,0.8,1.6
			c0.1,0.8-0.1,1.6-0.5,2.6c-0.1,0.3-0.2,0.5-0.3,0.6c0,0.1-0.5,1-0.6,1c0,0-0.1,0-0.3-0.1l-0.3-0.1l0-1.2c0-1.1,0-1.2-0.1-1.3
			C9.8,5,9.2,5,9,5.4C9,5.5,9,5.6,9,6.7l0,1.2L8.7,8L8.4,8.1L8.1,7.5C7.9,7.2,7.7,7,7.7,7c0,0-0.1-0.3-0.2-0.5
			C6.9,5.3,6.8,4.2,7.1,3.3c0.1-0.4,0.3-0.6,0.6-1C8.4,1.7,9.2,1.5,10,1.7z M4.4,5.9C4.9,6,5.4,6.2,6,6.7C6.4,7,6.6,7.2,7.1,8l0.4,0.7
			L7.4,8.8c0,0.1-0.1,0.2-0.2,0.3C7.2,9.2,7.1,9.2,7.1,9.2c0,0-0.5-0.2-1.1-0.4C5.4,8.7,4.8,8.5,4.7,8.5C4.3,8.5,4.1,9,4.3,9.4
			c0.1,0.2,0,0.1,2.2,0.9l0.3,0.1l0,0.3l0,0.3l-0.7,0.2c-0.8,0.3-1.1,0.3-1.8,0.3c-0.7,0-1.1-0.1-1.6-0.3c-1-0.5-1.6-1.7-1.6-2.8
			c0-0.4,0.1-0.7,0.3-1.1c0.1-0.3,0.2-0.4,0.5-0.7C2.4,6.2,2.8,6,3.4,5.9C3.7,5.8,4,5.8,4.4,5.9z M15.8,5.9c0.1,0,0.4,0.1,0.6,0.2
			c0.3,0.1,0.4,0.2,0.7,0.5c0.3,0.3,0.4,0.4,0.5,0.7c0.1,0.2,0.2,0.5,0.2,0.6c0.3,1-0.1,2.1-0.8,2.8c-0.6,0.6-1.1,0.8-2.1,0.8
			c-0.8,0-1.1,0-1.9-0.3L12.3,11l0-0.3l0-0.3l1.1-0.3c0.6-0.2,1.1-0.4,1.2-0.4c0.2-0.1,0.3-0.3,0.3-0.5c0-0.2,0-0.2-0.1-0.3
			c-0.1-0.1-0.3-0.2-0.4-0.2c-0.1,0-0.6,0.2-1.2,0.4C12.5,9.1,12,9.2,12,9.2c0,0-0.4-0.5-0.4-0.5c0,0,0.2-0.4,0.4-0.8
			c0.4-0.6,0.5-0.8,0.7-1C13.3,6.4,14,6,14.6,5.9C14.9,5.8,15.5,5.8,15.8,5.9z M10.2,9.1c1.3,0.6,1.3,2.4,0,3
			c-0.3,0.1-0.3,0.1-0.7,0.1c-0.4,0-0.4,0-0.7-0.1c-1.1-0.5-1.3-1.9-0.4-2.7C8.8,9.1,9.1,9,9.6,9C9.9,9,10,9,10.2,9.1z M7.2,12.2
			c0.1,0.1,0.1,0.2,0.2,0.3c0,0.1,0,0.1-0.6,0.9c-0.3,0.5-0.7,0.9-0.7,1c-0.3,0.4,0.1,1,0.6,0.8c0.1,0,0.2-0.1,0.2-0.1
			C7,15,8.2,13.4,8.4,13.2c0,0,0.1,0,0.3,0.1L9,13.4v0.8c0,1.1-0.1,1.6-0.4,2.3c-0.5,1.3-1.7,2-2.9,1.8c-1.7-0.2-2.8-2-2.2-3.6
			c0.3-1.1,1.4-1.9,3-2.5C6.8,12.1,7.1,12,7.1,12C7.1,12,7.2,12.1,7.2,12.2z M12.5,12.2c1.7,0.6,2.7,1.5,3.1,2.6c0.3,1,0,2.1-0.7,2.8
			c-0.4,0.3-0.6,0.5-1,0.6c-0.3,0.1-0.4,0.1-0.8,0.1c-0.3,0-0.5,0-0.6-0.1c-0.9-0.3-1.6-1.1-2-2.2c-0.2-0.6-0.2-0.8-0.2-1.8l0-0.9
			l0.3-0.1c0.2-0.1,0.3-0.1,0.3-0.1s0.3,0.4,0.7,1c0.6,0.9,0.7,1,0.9,1c0.2,0.1,0.3,0.1,0.5,0c0.2-0.1,0.3-0.5,0.2-0.7
			c0-0.1-0.3-0.5-0.7-1c-0.4-0.5-0.6-0.9-0.6-0.9c0,0,0.3-0.5,0.3-0.5C12,12,12.2,12.1,12.5,12.2z"/>
		</symbol>

		<symbol viewBox="0 0 17 20" id="ic-pots">
			<path fill-rule="evenodd" clip-rule="evenodd" d="M7.65147 1.75934C2.51527 2.6697 0.457819 3.04803 0.385567 3.09538C0.236722 3.19291 0.140163 3.37497 0.140015 3.5584C0.139829 3.74339 0.335433 4.88977 0.422677 5.21515C0.52855 5.61003 0.657468 5.83127 0.958722 6.13513C1.28365 6.46287 1.57002 6.61981 1.98179 6.69581L2.23617 6.74275L2.5054 7.42531C2.65347 7.8007 2.77463 8.12118 2.77463 8.13751C2.77463 8.1538 2.53669 8.16723 2.24582 8.16731C1.65326 8.16746 1.54383 8.20227 1.4014 8.43587C1.33286 8.54824 1.32766 8.62375 1.32807 9.5031C1.32848 10.4969 1.35427 10.7183 1.50957 11.0617C1.61088 11.2858 1.69271 11.4031 1.8934 11.6125C2.1165 11.8453 2.30683 11.9737 2.6128 12.0976L2.86503 12.1998L3.55526 15.6511C4.08556 18.3028 4.26443 19.133 4.32718 19.2345C4.49176 19.5008 4.19859 19.4855 9.13177 19.4855H13.5577L13.7233 19.402C13.8343 19.346 13.9106 19.2743 13.9546 19.1841C13.999 19.0933 15.3918 12.3151 15.3918 12.1898C15.3918 12.1871 15.4908 12.1488 15.6117 12.1047C16.208 11.8873 16.6541 11.4124 16.8394 10.7979C16.9055 10.5787 16.9133 10.445 16.913 9.5362C16.9127 8.0847 16.9969 8.16775 15.5257 8.16742L14.4906 8.16716L14.5147 7.23015C14.5279 6.71481 14.5493 5.90468 14.5622 5.42986L14.5858 4.56662L14.8097 4.43058C15.4031 4.07014 15.7691 3.42996 15.7688 2.75346C15.7686 2.41806 15.5384 1.01288 15.4483 0.797201C15.3798 0.633289 15.1935 0.512943 14.9881 0.500066C14.8831 0.493461 12.0394 0.98156 7.65147 1.75934ZM14.5184 1.79362C14.663 2.44237 14.686 2.84222 14.5923 3.07642C14.5156 3.26824 14.2437 3.51502 14.0524 3.56653C13.7331 3.65251 2.51858 5.61125 2.34376 5.61155C2.01871 5.61218 1.72733 5.43613 1.58212 5.15147C1.51221 5.01442 1.30829 4.05474 1.34191 4.02112C1.36266 4.00037 14.275 1.71874 14.3984 1.71403C14.4749 1.71109 14.5043 1.73061 14.5184 1.79362ZM13.4383 5.76433C13.426 6.27967 13.4054 7.02697 13.3926 7.42497L13.3694 8.14861H8.67658H3.98384L3.69483 7.40642C3.53586 6.99821 3.40575 6.64712 3.40564 6.62623C3.40553 6.59435 13.1237 4.84569 13.378 4.83184L13.4608 4.82732L13.4383 5.76433ZM15.7992 9.86491C15.7983 10.536 15.765 10.6545 15.5138 10.8809C15.2333 11.1338 15.6785 11.1174 9.12033 11.1174C4.20219 11.1174 3.13949 11.1086 3.02193 11.067C2.81968 10.9956 2.62846 10.814 2.52789 10.5981C2.44926 10.4292 2.44135 10.3608 2.44102 9.84636L2.44065 9.28044H9.12033H15.8L15.7992 9.86491ZM14.2228 12.3327C14.2019 12.4198 13.0168 18.3449 13.0168 18.3623C13.0168 18.3678 11.2659 18.3722 9.12586 18.3722H5.23491L4.6226 15.3107L4.01034 12.2492H9.12661H14.2428L14.2228 12.3327Z"/>
		</symbol>

		<symbol viewBox="0 0 17 20" id="ic-glass">
			<path fill-rule="evenodd" clip-rule="evenodd" d="M1.2034 0.57086C1.13022 0.609565 1.03518 0.707274 0.98657 0.793813L0.899994 0.947854L0.940851 2.03137C1.19965 8.89575 2.03569 14.7436 3.19666 17.8102C3.3412 18.1921 3.8067 19.1434 3.90789 19.2638C3.94512 19.3082 4.03243 19.3791 4.1019 19.4214C4.22778 19.4982 4.24199 19.4984 8.51432 19.4984C12.7866 19.4984 12.8009 19.4982 12.9267 19.4214C12.9962 19.3791 13.0835 19.3082 13.1207 19.2638C13.2219 19.1434 13.6874 18.1921 13.832 17.8102C13.9866 17.4017 14.2971 16.4017 14.4483 15.8249C15.2612 12.7244 15.8804 7.51922 16.087 2.04985L16.1286 0.947743L16.042 0.79359C15.9899 0.701003 15.9003 0.611346 15.8174 0.569079C15.6833 0.500649 15.4778 0.498719 8.50653 0.500315C1.59153 0.501911 1.32898 0.504434 1.2034 0.57086ZM14.9642 2.23355C14.7648 7.04388 14.2054 12.0065 13.5422 14.8507L13.5227 14.9342H8.51432H3.50596L3.48648 14.8507C2.82129 11.9984 2.27119 7.1112 2.06423 2.21499L2.03873 1.61193H8.51432H14.9899L14.9642 2.23355ZM13.2066 16.1681C13.1748 16.3131 12.8156 17.3781 12.728 17.5875C12.6938 17.6692 12.5973 17.8821 12.5136 18.0607L12.3614 18.3854H8.51432H4.66726L4.51504 18.0607C4.43132 17.8821 4.33484 17.6692 4.30066 17.5875C4.21301 17.3781 3.85386 16.3131 3.82202 16.1681L3.79553 16.0475H8.51432H13.2331L13.2066 16.1681Z"/>
		</symbol>

		<symbol viewBox="0 0 12 15" id="ic-weaving">
			<path fill-rule="evenodd" clip-rule="evenodd" d="M7.56438 19.4251C6.24733 19.262 5.03103 18.7544 3.98689 17.9322C2.72075 16.9351 1.7997 15.439 1.45822 13.8248C1.2998 13.076 1.2884 12.6884 1.30024 8.45666L1.31145 4.46414L1.42767 4.27714L1.54394 4.09015L1.31635 4.0245C0.981509 3.92787 0.829917 3.81899 0.754214 3.62079C0.672424 3.40663 0.703411 3.23043 0.852813 3.06029C1.03391 2.854 1.29156 2.81856 1.63949 2.95208C1.68751 2.97048 1.68058 2.93011 1.60305 2.73937C1.44296 2.34552 1.32689 1.74932 1.31872 1.27922C1.31078 0.820736 1.3362 0.748819 1.56695 0.576521C1.66618 0.502413 1.71345 0.5 3.05559 0.5C4.40678 0.5 4.44441 0.501968 4.54653 0.578117C4.60416 0.621052 4.68384 0.711748 4.72358 0.779657C4.8705 1.03055 4.76678 2.00467 4.52163 2.67632C4.43424 2.91575 4.42441 2.97022 4.47187 2.952C4.50438 2.93954 4.60442 2.91085 4.69419 2.88821C5.10046 2.78594 5.4841 3.1675 5.37441 3.56479C5.32037 3.76054 5.14808 3.90163 4.83458 4.00695L4.55807 4.09983L4.65404 4.23472C4.70681 4.30891 4.76496 4.43411 4.78325 4.51293C4.80155 4.59175 4.81713 6.14248 4.81784 7.95898L4.81921 11.2617L5.17839 11.4473C6.42338 12.0904 7.50805 13.1849 8.16555 14.4618C8.29414 14.7115 8.4081 14.9161 8.41879 14.9164C8.42951 14.9167 8.51898 14.7542 8.61769 14.5552C9.28581 13.2079 10.477 12.0168 11.8041 11.369L12.0175 11.2648L12.0184 7.96054C12.0189 6.14319 12.0342 4.59175 12.0525 4.51293C12.0708 4.43411 12.129 4.30891 12.1818 4.23472L12.2777 4.09983L12.0012 4.00695C11.8383 3.95225 11.6779 3.86905 11.6107 3.80452C11.3188 3.52378 11.4238 3.05891 11.8128 2.91037C11.9749 2.84843 12.1232 2.85964 12.3639 2.952C12.4114 2.97022 12.4015 2.91575 12.3142 2.67632C12.1621 2.25958 12.0591 1.71663 12.0487 1.27678C12.039 0.863043 12.0845 0.730711 12.2893 0.578117C12.3914 0.501968 12.429 0.5 13.7802 0.5C15.1223 0.5 15.1696 0.502413 15.2688 0.576521C15.4967 0.746668 15.5249 0.823408 15.5179 1.2548C15.5104 1.71693 15.4003 2.30422 15.2472 2.69855C15.1588 2.92621 15.1516 2.96774 15.203 2.953C15.2369 2.94332 15.332 2.91604 15.4145 2.8924C15.6249 2.83203 15.8378 2.89489 15.983 3.06029C16.1317 3.22973 16.1633 3.4067 16.0825 3.6183C16.0056 3.81962 15.8999 3.89807 15.5572 4.00784L15.2933 4.09241L15.4088 4.27825L15.5243 4.46414L15.5353 8.4381C15.5426 11.0683 15.5326 12.5808 15.5059 12.9111C15.2996 15.4609 13.8058 17.6522 11.5165 18.7629C10.2765 19.3646 8.91598 19.5925 7.56438 19.4251ZM7.8499 17.6538C7.80707 16.3602 7.50782 15.4014 6.82776 14.379C6.53322 13.9362 5.87078 13.2385 5.44996 12.928C4.69211 12.3687 3.78293 11.9774 2.87446 11.8199C2.36357 11.7312 2.40617 11.7014 2.40617 12.1484C2.40617 12.8938 2.50566 13.5685 2.71047 14.2119C3.35447 16.235 5.09635 17.8029 7.17996 18.2349C7.42199 18.2851 7.67678 18.3273 7.74618 18.3286L7.87231 18.3311L7.8499 17.6538ZM9.67761 18.2345C10.6063 18.0452 11.6781 17.504 12.3774 16.8714C13.7444 15.6346 14.4259 14.0701 14.429 12.1616C14.4297 11.6993 14.473 11.7309 13.9613 11.8202C12.2932 12.111 10.7755 13.1313 9.88498 14.5606C9.27271 15.5432 8.97569 16.6271 8.97483 17.8816L8.97454 18.3413L9.18591 18.3164C9.30217 18.3028 9.52342 18.2659 9.67761 18.2345ZM3.705 10.2099C3.705 9.50266 3.71447 9.5276 3.39109 9.38454C3.13482 9.27117 2.79386 9.29882 2.57803 9.45041L2.42473 9.5581L2.41449 10.0963L2.40428 10.6345L2.76703 10.6804C2.96656 10.7056 3.22165 10.7489 3.33391 10.7765C3.73744 10.8759 3.705 10.9254 3.705 10.2099ZM13.7746 10.728C14.0165 10.6848 14.2632 10.6494 14.323 10.6494H14.4316L14.4213 10.1038L14.4111 9.5581L14.2578 9.45041C14.0419 9.29882 13.701 9.27117 13.4447 9.38454C13.1211 9.52767 13.1308 9.50214 13.1308 10.214V10.8434L13.2328 10.825C13.2889 10.8149 13.5328 10.7712 13.7746 10.728ZM3.03703 8.21875C3.23093 8.21875 3.46053 8.23274 3.54729 8.24985L3.705 8.28094V7.74605C3.705 7.23839 3.70074 7.20715 3.62099 7.13226C3.34174 6.86994 2.76944 6.86994 2.49019 7.13226C2.41044 7.20718 2.40617 7.23836 2.40617 7.74694V8.28269L2.54533 8.2507C2.62189 8.23315 2.84314 8.21875 3.03703 8.21875ZM13.7988 8.21875C13.9927 8.21875 14.2139 8.23315 14.2905 8.2507L14.4296 8.28269V7.74694C14.4296 7.23836 14.4253 7.20718 14.3456 7.13226C14.0664 6.86994 13.4941 6.86994 13.2148 7.13226C13.1351 7.20715 13.1308 7.23839 13.1308 7.74605V8.28094L13.2885 8.24985C13.3752 8.23274 13.6049 8.21875 13.7988 8.21875ZM2.83293 5.82965C3.05637 5.80653 3.41232 5.83002 3.60295 5.88045L3.705 5.90747V5.37183C3.705 4.86369 3.7007 4.83226 3.62151 4.75982C3.32597 4.48959 2.89027 4.46588 2.54533 4.70126L2.40617 4.79623V5.35183V5.90747L2.50823 5.88008C2.56437 5.86501 2.71047 5.8423 2.83293 5.82965ZM13.5575 5.82965C13.781 5.80653 14.1369 5.83002 14.3276 5.88045L14.4296 5.90747V5.35183V4.79623L14.2905 4.70067C13.9712 4.48143 13.5444 4.4877 13.2678 4.71566L13.1308 4.82866V5.36804V5.90747L13.2328 5.88008C13.2889 5.86501 13.4351 5.8423 13.5575 5.82965ZM3.30385 2.6896C3.44372 2.41796 3.54432 2.13396 3.60956 1.82666L3.65884 1.59473H3.05036H2.44187L2.46084 1.67822C2.4713 1.72416 2.49754 1.84462 2.51914 1.94589C2.57391 2.20232 2.75604 2.64481 2.91365 2.90428L3.04624 3.12252L3.11778 3.01731C3.15716 2.95946 3.24088 2.81199 3.30385 2.6896ZM14.0559 2.65079C14.1831 2.39273 14.2864 2.08008 14.3713 1.69678L14.3939 1.59473H13.7857H13.1775L13.2101 1.771C13.2802 2.14922 13.4602 2.60202 13.6821 2.95824L13.7802 3.11573L13.8445 3.03246C13.88 2.98666 13.9751 2.81492 14.0559 2.65079Z"/>
		</symbol>

		<symbol viewBox="0 0 19 16" id="ic-present">
			<path fill-rule="evenodd" clip-rule="evenodd" d="M0.288006 0.475288C0.203211 0.520079 0.120234 0.60543 0.074627 0.694827C0.000630858 0.839924 0 0.901118 0 8.08041C0 15.2626 0.000593751 15.3209 0.0747012 15.4661C0.122795 15.5604 0.201615 15.6393 0.29591 15.6874C0.44149 15.7616 0.49541 15.7621 9.5 15.7621C18.5046 15.7621 18.5585 15.7616 18.7041 15.6874C18.7984 15.6393 18.8772 15.5604 18.9253 15.4661C18.9994 15.3209 19 15.2626 19 8.08041C19 0.898223 18.9994 0.839961 18.9253 0.694678C18.8772 0.600383 18.7984 0.521563 18.7041 0.473469C18.5585 0.399176 18.5063 0.398768 9.49221 0.400401C0.539718 0.402034 0.425014 0.402961 0.288006 0.475288ZM16.458 2.14291L15.828 2.77377H9.51711H3.20629L2.55869 2.14484L1.91113 1.51587L9.49959 1.51398L17.0881 1.51205L16.458 2.14291ZM2.41211 8.08041V12.59L1.7627 13.2386L1.11328 13.8872V8.08041V2.27357L1.7627 2.92221L2.41211 3.57084V8.08041ZM17.8867 8.08928V13.8501L17.2373 13.2015L16.5879 12.5529V8.08119V3.60951L17.2276 2.96896C17.5795 2.61668 17.8717 2.32846 17.877 2.32846C17.8824 2.32846 17.8867 4.92084 17.8867 8.08928ZM15.4746 8.08041V12.2738H9.5H3.52539V8.08041V3.88705H9.5H15.4746V8.08041ZM16.458 14.0179L17.0881 14.6488L9.49959 14.6468L1.91113 14.6449L2.55869 14.016L3.20629 13.3871H9.51711H15.828L16.458 14.0179Z"/>
		</symbol>

		<symbol viewBox="0 0 15 20" id="ic-laef">
			<path fill-rule="evenodd" clip-rule="evenodd" d="M10.7775 0.505987C10.6857 0.513817 10.4018 0.537901 10.1466 0.559573C6.98707 0.827688 4.2766 2.00283 2.19161 4.00859C0.809621 5.33804 0.0899963 7.00302 0.0899963 8.87103C0.0899963 10.4556 0.623221 11.9312 1.63382 13.1431C1.90119 13.4637 2.42043 13.966 2.66921 14.1446L2.83609 14.2645V16.6834V19.1022L2.92033 19.2283C3.15427 19.5785 3.63754 19.5554 3.8566 19.1835C3.92777 19.0627 3.9316 18.9728 3.94937 16.9938L3.96793 14.9299L4.24625 15.0416C4.61025 15.1876 5.16771 15.3476 5.59354 15.4283C5.85401 15.4776 6.12788 15.4928 6.75113 15.4922C7.49302 15.4916 7.61006 15.4825 8.03356 15.3924C8.8222 15.2248 9.5684 14.9335 10.1768 14.5556C11.4456 13.7675 12.2483 12.7951 12.655 11.5533C12.9925 10.5231 13.0377 9.59545 12.8554 7.44232C12.6549 5.0756 12.7254 4.19852 13.1908 3.26752C13.4688 2.71136 13.8948 2.23517 14.49 1.81509C14.699 1.66758 14.8426 1.53714 14.8779 1.46296C15.0393 1.12271 14.8477 0.747532 14.4736 0.671457C14.049 0.585067 13.072 0.518492 12.0392 0.505541C11.4371 0.497971 10.8693 0.498194 10.7775 0.505987ZM10.001 1.86111C8.84235 2.48473 7.6858 3.37272 6.73113 4.37167C4.63686 6.56305 3.31714 9.34084 2.9286 12.3754C2.89743 12.619 2.86567 12.8245 2.85806 12.8321C2.83442 12.8558 2.30732 12.2186 2.11906 11.9388C1.75194 11.3931 1.4656 10.7082 1.3047 9.99111C1.19604 9.50672 1.18725 8.323 1.28855 7.82195C1.54457 6.55615 2.15999 5.51787 3.20878 4.58227C4.80352 3.1596 6.62678 2.27618 8.82925 1.85885C9.34819 1.76054 9.92658 1.68169 10.1652 1.67671L10.3507 1.67285L10.001 1.86111ZM12.5008 2.24434C12.1401 2.76038 11.8496 3.50773 11.7138 4.26903C11.6154 4.82073 11.6282 6.32526 11.7417 7.5351C11.8549 8.74078 11.8654 10.0081 11.7666 10.5355C11.6756 11.0214 11.5397 11.4334 11.346 11.8102C11.126 12.2382 10.8956 12.5358 10.4854 12.922C9.74099 13.6228 8.85356 14.0777 7.77164 14.313C7.52156 14.3675 7.30243 14.3813 6.71402 14.38C5.9122 14.3781 5.5879 14.3302 4.96309 14.1213C4.55307 13.9842 3.99038 13.7115 3.96132 13.6357C3.92451 13.5398 4.01602 12.5616 4.11852 11.9549C4.56806 9.29364 5.83007 6.8439 7.73059 4.94338C8.81961 3.85437 10.1262 2.95773 11.3964 2.42766C11.7363 2.28586 12.5435 2.0088 12.6225 2.00691C12.6473 2.00628 12.5926 2.11316 12.5008 2.24434Z"/>
		</symbol>

		<symbol viewBox="0 0 19 20" id="ic-ceramics">
			<path fill-rule="evenodd" clip-rule="evenodd" d="M0.288006 0.575263C0.203211 0.620054 0.120234 0.705406 0.074627 0.794802C0.000482418 0.940197 0 0.99779 0 9.99874C0 19.0033 0.000445316 19.0573 0.0747012 19.2028C0.122795 19.2971 0.201615 19.3759 0.29591 19.424C0.44149 19.4983 0.49541 19.4987 9.5 19.4987C18.5046 19.4987 18.5585 19.4983 18.7041 19.424C18.7984 19.3759 18.8772 19.2971 18.9253 19.2028C18.9996 19.0573 19 19.0033 19 9.99874C19 0.994154 18.9996 0.940234 18.9253 0.794654C18.8772 0.700359 18.7984 0.621538 18.7041 0.573445C18.5585 0.499152 18.5063 0.498743 9.49221 0.500376C0.539718 0.502009 0.425014 0.502937 0.288006 0.575263ZM17.8867 9.99874V18.3855H9.5H1.11328V9.99874V1.61202H9.5H17.8867V9.99874ZM2.51457 2.80183C2.42977 2.84662 2.3468 2.93197 2.30119 3.02136C2.22831 3.16427 2.22656 3.23556 2.22656 6.0837C2.22656 8.933 2.22827 9.0031 2.30126 9.14619C2.35103 9.24375 2.42829 9.31934 2.53257 9.37256C2.67514 9.44526 2.7258 9.4503 3.098 9.42878C6.25508 9.24616 8.74742 6.75382 8.93004 3.59675C8.95156 3.22454 8.94651 3.17388 8.87382 3.03131C8.8206 2.92703 8.74501 2.84977 8.64745 2.80001C8.50424 2.72698 8.43596 2.72534 5.57717 2.72694C2.73941 2.72853 2.64924 2.73076 2.51457 2.80183ZM10.3446 2.80183C10.2567 2.84829 10.1767 2.93234 10.1261 3.0315C10.0535 3.17385 10.0484 3.22465 10.07 3.59675C10.1588 5.13307 10.7769 6.52048 11.8564 7.60715C12.9507 8.70852 14.3509 9.33905 15.902 9.42878C16.2742 9.4503 16.3249 9.44526 16.4674 9.37256C16.5717 9.31934 16.649 9.24375 16.6987 9.14619C16.7717 9.0031 16.7734 8.933 16.7734 6.0837C16.7734 3.23441 16.7717 3.16431 16.6987 3.02122C16.6506 2.92692 16.5718 2.8481 16.4775 2.80001C16.3343 2.72698 16.266 2.72534 13.4072 2.72694C10.5695 2.72853 10.4793 2.73076 10.3446 2.80183ZM7.79297 3.89017C7.79297 4.17947 7.51788 5.09693 7.3029 5.52461C6.81688 6.49142 5.99268 7.31562 5.02587 7.80165C4.59819 8.01662 3.68073 8.29171 3.39143 8.29171C3.34797 8.29171 3.33984 7.94092 3.33984 6.06515V3.83859H5.56641C7.44217 3.83859 7.79297 3.84671 7.79297 3.89017ZM15.6602 6.06864V8.29869L15.4653 8.27212C14.5707 8.15021 13.639 7.71073 12.8495 7.03834C12.5752 6.8047 12.1211 6.25448 11.9009 5.88895C11.5699 5.33959 11.3031 4.60571 11.2262 4.03341L11.2001 3.83859H13.4301H15.6602V6.06864ZM9.25307 6.84185C9.14304 6.89183 9.06879 6.96327 8.99368 7.09152C8.8052 7.41326 8.34979 7.99721 8.02145 8.33821C7.64512 8.72901 7.24616 9.05824 6.74916 9.38807C6.45302 9.58457 6.38155 9.65092 6.33168 9.7756C6.29857 9.85832 6.27148 9.95874 6.27148 9.99874C6.27148 10.0387 6.29857 10.1392 6.33168 10.2219C6.38196 10.3476 6.45273 10.4125 6.7617 10.6162C7.22649 10.9227 7.69144 11.31 8.06142 11.6989C8.36019 12.013 8.81511 12.6012 8.98956 12.899C9.05996 13.0191 9.13963 13.0954 9.25144 13.1495C9.59723 13.3169 9.80519 13.2111 10.1495 12.6929C10.4655 12.217 10.7923 11.8275 11.197 11.444C11.5339 11.1248 12.0993 10.6855 12.4002 10.5092C12.581 10.4033 12.7285 10.1739 12.7285 9.99874C12.7285 9.82359 12.581 9.59421 12.4002 9.4883C12.0897 9.30639 11.5294 8.86902 11.176 8.5327C10.7775 8.15348 10.444 7.75181 10.1207 7.26185C9.94349 6.99325 9.86081 6.90234 9.74102 6.84437C9.55169 6.75271 9.45057 6.75219 9.25307 6.84185ZM9.7041 8.57367C9.93462 8.87255 10.6289 9.56542 10.9356 9.80266C11.0618 9.90029 11.1652 9.98854 11.1654 9.99874C11.1655 10.0089 11.0572 10.1008 10.9247 10.2028C10.6496 10.4146 9.9678 11.0929 9.68525 11.436L9.49484 11.6671L9.31059 11.436C9.0643 11.1269 8.46866 10.525 8.13623 10.2491C7.98824 10.1263 7.86719 10.0135 7.86719 9.9983C7.86719 9.98312 7.96323 9.89272 8.08057 9.79739C8.39871 9.53888 9.08463 8.8485 9.2959 8.57408C9.39795 8.44152 9.48979 8.33309 9.5 8.33309C9.51021 8.33309 9.60205 8.44134 9.7041 8.57367ZM2.51457 10.6319C2.42977 10.6767 2.3468 10.762 2.30119 10.8514C2.22831 10.9943 2.22656 11.0656 2.22656 13.9138C2.22656 16.7631 2.22827 16.8332 2.30126 16.9763C2.34936 17.0706 2.42818 17.1494 2.52247 17.1975C2.66557 17.2705 2.73567 17.2722 5.58496 17.2722C8.43426 17.2722 8.50436 17.2705 8.64745 17.1975C8.74501 17.1477 8.8206 17.0705 8.87382 16.9662C8.94651 16.8236 8.95156 16.7729 8.93004 16.4007C8.75466 13.3691 6.45477 10.9405 3.4311 10.5941C2.92908 10.5366 2.67533 10.547 2.51457 10.6319ZM15.5368 10.5946C12.6746 10.9272 10.425 13.1899 10.0953 16.0676C10.0117 16.7977 10.0699 17.0533 10.3526 17.1975C10.4956 17.2705 10.5657 17.2722 13.415 17.2722C16.2643 17.2722 16.3344 17.2705 16.4775 17.1975C16.5718 17.1494 16.6506 17.0706 16.6987 16.9763C16.7717 16.8332 16.7734 16.7631 16.7734 13.9138C16.7734 11.0645 16.7717 10.9944 16.6987 10.8513C16.556 10.5715 16.273 10.509 15.5368 10.5946ZM4.07056 11.8391C5.43842 12.1918 6.65427 13.1825 7.3029 14.4729C7.51788 14.9006 7.79297 15.818 7.79297 16.1073C7.79297 16.1508 7.44217 16.1589 5.56641 16.1589H3.33984V13.9288V11.6988L3.53467 11.725C3.64184 11.7394 3.88298 11.7907 4.07056 11.8391ZM15.6602 13.9323V16.1589H13.4301H11.2001L11.2262 15.9641C11.2714 15.6278 11.4226 15.1004 11.5755 14.7457C12.0613 13.6188 12.924 12.7114 14.0088 12.1864C14.5185 11.9397 15.2279 11.7238 15.5767 11.7093L15.6602 11.7058V13.9323Z"/>
		</symbol>

		<symbol viewBox="0 0 19 20" id="ic-ball">
			<path class="st0" d="M8.8,0.5c-0.1,0-0.3,0-0.5,0.1c-2,0.2-4,1.2-5.5,2.7C1.3,4.8,0.4,6.6,0,8.8c-0.1,0.5-0.1,2,0,2.5
				c0.3,2.2,1.2,3.9,2.7,5.4c2.4,2.4,6,3.4,9.3,2.4c3.4-1,6.1-3.9,6.8-7.4c0.6-3.1-0.4-6.2-2.6-8.5c-1.5-1.5-3.3-2.4-5.4-2.7
				C10.4,0.5,9.1,0.5,8.8,0.5z M10.3,1.6c0.5,0,1.2,0.2,1.6,0.3L12.1,2l-0.5,0.1c-1.1,0.3-2.1,0.7-3.2,1.2C8,3.6,7.8,3.7,7.7,3.6
				c0-0.1-0.3-0.9-0.4-1.3C7.3,2,7.3,1.9,7.3,1.9c0.1,0,0.9-0.2,1.3-0.2C9.1,1.6,9.8,1.6,10.3,1.6z M6.3,2.8c1.2,4.9,5.5,9.2,10.4,10.4
				c0.3,0.1,0.5,0.1,0.5,0.1c0,0-0.1,0.2-0.2,0.4l-0.2,0.4l-0.2,0c-1.3-0.1-3.1-0.7-4.5-1.4c-3.6-2-6.3-5.8-6.8-9.5c0-0.2,0-0.5,0-0.5
				c0,0,0.8-0.4,0.9-0.4C6.2,2.3,6.3,2.5,6.3,2.8z M14.2,3.1c0.3,0.2,0.9,0.7,1.1,0.9l0.1,0.1l-0.3,0c-1.9,0.2-3.7,0.7-5.5,1.6
				C9.3,5.8,9,6,9,6c0,0-0.1,0-0.1,0c0-0.1-0.3-0.5-0.5-0.9L8.2,4.7l0.1-0.1c0.6-0.4,1.6-0.8,2.4-1.1c1-0.4,2-0.6,3.2-0.7
				C13.9,2.9,14,3,14.2,3.1z M4.3,3.8c0.1,0.4,0.3,1.2,0.4,1.8c1.4,4.1,4.9,7.7,9.1,9.1c0.5,0.2,1.3,0.4,1.8,0.4c0.2,0,0.3,0.1,0.3,0.1
				c0,0,0,0.1-0.2,0.3c-0.1,0.2-0.3,0.3-0.4,0.4L15.3,16l-0.5,0c-1.4-0.1-2.7-0.5-4.1-1.2c-2-1-3.8-2.5-5.1-4.4c-1.3-1.8-2-3.8-2.2-5.8
				l0-0.5l0.1-0.1C3.6,4,3.8,3.9,3.9,3.7c0.2-0.2,0.3-0.2,0.3-0.2C4.3,3.5,4.3,3.7,4.3,3.8z M16.2,5.2c0.2,0,0.2,0,0.4,0.3
				c0.2,0.3,0.5,0.8,0.5,0.9c0,0-0.2,0-0.5,0C14.6,6.5,12.8,7,11,7.9l-0.5,0.2L10.4,8c-0.1-0.1-0.8-1-0.8-1c0,0,1.1-0.6,1.6-0.8
				c1.4-0.6,2.9-0.9,4.4-1c0.3,0,0.5,0,0.6,0C16,5.2,16.1,5.2,16.2,5.2z M2.5,5.8C2.6,6.2,2.8,7,3,7.5c1.3,3.8,4.4,7.1,8.1,8.7
				c0.8,0.3,1.8,0.6,2.6,0.8C14,17,14,17,13.8,17.2c-0.3,0.2-1.2,0.6-1.3,0.6c-0.2,0-1.2-0.2-1.7-0.4c-1.4-0.4-2.7-1.1-3.9-2
				c-1-0.8-2.1-1.8-2.8-2.8c-1.2-1.6-2-3.4-2.3-5.2C1.7,6.9,1.7,6.9,2,6.3c0.2-0.5,0.5-0.8,0.5-0.8C2.4,5.5,2.5,5.6,2.5,5.8z M17.5,7.6
				c0,0.1,0.2,0.8,0.2,1.1l0,0.1l-0.2,0c-0.1,0-0.4,0-0.7,0.1c-1.3,0.1-2.5,0.4-3.8,0.9L12.6,10l-0.1-0.1c-0.2-0.1-0.7-0.6-1-0.8
				L11.3,9l0.3-0.1C13.3,8,15.3,7.6,17,7.5C17.5,7.5,17.5,7.5,17.5,7.6z M1.2,9.7c0.5,1.5,1.5,3.1,2.6,4.4c0.4,0.4,1.2,1.3,1.7,1.6
				c1.2,1,2.6,1.9,3.9,2.4c0.7,0.3,0.7,0.3,0.2,0.3c-1.8,0.1-3.7-0.6-5.2-1.7c-1.8-1.4-3.1-3.6-3.3-5.9c0-0.5-0.1-1.3,0-1.3
				C1.1,9.5,1.2,9.6,1.2,9.7z M17.9,10.1c0,0.5-0.2,1.8-0.3,2c-0.1,0.1-1.3-0.2-2.2-0.6c-0.4-0.2-1.3-0.6-1.6-0.8l-0.1-0.1l0.5-0.2
				c1.1-0.4,2.5-0.6,3.4-0.6l0.3,0V10.1z"/>
		</symbol>

		<symbol viewBox="0 0 19 20" id="ic-tool">
			<path class="st0" d="M17.5,0.5c-1.8,0.2-3.5,0.8-5,1.8c-0.6,0.4-1.1,0.8-1.9,1.6C10,4.5,9.9,4.6,9.8,4.6c0,0-0.2-0.1-0.3-0.1
				C8.8,4.3,8,4.7,7.7,5.4C7.5,5.7,7.5,5.7,7.5,6.1c0,0.4,0,0.5,0.1,0.7C7.8,7,7.8,7,7.7,7.1C7.4,7.2,6.4,7.6,5.9,7.8
				C4,8.7,2.8,9.6,1.2,11.2c-1,0.9-1.1,1.1-1.2,1.5c-0.3,1.1,0.7,2.3,1.9,2.1c0.4-0.1,0.7-0.2,1.2-0.8c1.2-1.1,2.4-2.1,3.8-2.9
				c0.8-0.4,2.5-1.3,2.6-1.2c0,0-0.3,0.9-0.7,1.6C8,13.3,7,14.8,5.5,16.3c-0.6,0.6-0.7,0.8-0.8,1.3c-0.2,1.2,0.9,2.2,2.1,1.9
				c0.4-0.1,0.5-0.2,1.2-0.9c1.7-1.6,2.6-3,3.6-4.8c0.3-0.6,0.7-1.5,0.8-1.9c0-0.1,0.1,0,0.3,0.1c0.2,0.1,0.3,0.1,0.7,0.1
				c0.4,0,0.5,0,0.7-0.1c0.7-0.3,1.1-1,1-1.8c0-0.1-0.1-0.3-0.1-0.4l0-0.1l0.7-0.7c0.4-0.4,0.8-0.9,1-1.1C18,6.1,18.8,4.1,19,1.9
				c0.1-1,0-1.2-0.3-1.4C18.5,0.5,18.1,0.5,17.5,0.5z M15.6,3.1l-1.4,1.4l-0.8-0.5c-0.4-0.3-0.8-0.5-0.8-0.5c0-0.1,1-0.7,1.4-0.9
				c0.8-0.4,1.6-0.7,2.4-0.9c0.2,0,0.4-0.1,0.4-0.1C17,1.7,16.3,2.4,15.6,3.1z M17.7,2.9c-0.3,1.5-1,2.9-2,4.2c-0.2,0.2-0.6,0.7-0.9,1
				l-0.6,0.6L12.5,7l-1.7-1.7l0.5-0.5l0.5-0.5l1.2,0.7c1.2,0.7,1.3,0.8,1.6,0.7c0.1,0,0.8-0.8,1.7-1.6c0.9-0.9,1.6-1.6,1.6-1.6
				C17.8,2.6,17.7,2.7,17.7,2.9z M9.5,5.6c0.1,0,0.5,0.4,1,0.9l0.9,0.9l-0.5,0.5c-0.6,0.6-0.6,0.6-1.4,0.9c-2.6,0.9-4.8,2.3-6.8,4.2
				c-0.6,0.6-0.7,0.6-1,0.6c-0.2,0-0.4-0.2-0.4-0.4c-0.1-0.3,0-0.4,0.8-1.1c0.8-0.8,1.2-1.1,1.8-1.6c0.9-0.7,1.6-1.1,2.7-1.6
				C7.2,8.4,7.7,8.2,8.5,8c0.3-0.1,0.6-0.2,0.6-0.2c0.1-0.1,0.2-0.4,0.2-0.5C9.3,7.1,9.2,7,9,6.8C8.7,6.4,8.6,6.3,8.6,6.1
				c0-0.3,0.1-0.4,0.4-0.5C9.2,5.5,9.3,5.6,9.5,5.6z M13.9,10.1c0.1,0.2,0,0.6-0.2,0.7c-0.2,0.1-0.5,0.1-0.6,0c-0.1,0-0.2-0.2-0.4-0.3
				c-0.2-0.2-0.3-0.3-0.4-0.3c-0.2,0-0.4,0.1-0.5,0.2c0,0.1-0.1,0.3-0.2,0.6c-0.7,2-1.6,3.7-3,5.4c-0.2,0.2-0.7,0.8-1.1,1.2
				c-0.8,0.8-0.9,0.9-1.2,0.8c-0.2,0-0.4-0.2-0.4-0.4c-0.1-0.3,0-0.4,0.6-1c0.9-0.9,1.5-1.7,2.2-2.7c0.9-1.3,1.6-2.8,2.1-4.3
				C11,9.4,11,9.3,11.6,8.7l0.5-0.5l0.9,0.9C13.4,9.6,13.8,10,13.9,10.1z"/>
		</symbol>

		<symbol viewBox="0 0 19 20" id="ic-box">
			<path class="st0" d="M9.1,0.5c-0.1,0-0.1,0-0.2,0.1c-0.1,0-2,1-4.2,2.2C0.2,5.1,0.3,5.1,0.1,5.5L0,5.7V10v4.3l0.1,0.2
			c0.2,0.4,0.1,0.4,4.6,2.7c2.3,1.2,4.2,2.2,4.3,2.2c0.2,0.1,0.4,0.1,0.7,0c0.3-0.1,8.7-4.4,8.9-4.5c0.1-0.1,0.2-0.2,0.3-0.4l0.1-0.2
			V10V5.7l-0.1-0.2c-0.1-0.2-0.2-0.3-0.3-0.4c-0.1-0.1-1.2-0.7-4.1-2.1c-5.1-2.6-4.8-2.4-5-2.4C9.3,0.5,9.1,0.5,9.1,0.5z M13.3,3.6
			c2.2,1.1,3.9,2,3.9,2c0,0-0.7,0.4-1.5,0.8l-1.5,0.8l-3.8-2C8.2,4,6.5,3.1,6.5,3c0,0,0.5-0.3,1.1-0.6c1.5-0.8,1.6-0.8,1.6-0.8
			C9.3,1.6,11.1,2.5,13.3,3.6z M9.3,5.8c2,1,3.6,1.9,3.6,1.9c0,0-0.8,0.4-1.8,0.9L9.3,9.5l-3.7-2c-2.1-1.1-3.8-2-3.8-2
			c0,0,0.8-0.5,1.8-1l1.8-0.9l0.2,0.1C5.6,3.8,7.3,4.7,9.3,5.8z M5.4,8.8l3.3,1.7l0,3.8c0,2.1,0,3.8,0,3.8c-0.1,0-7.5-4-7.5-4
			c0,0,0-0.9,0-3.8V6.5l0.5,0.3C1.9,7,3.6,7.9,5.4,8.8z M17.9,10.3c0,2.9,0,3.7,0,3.8c0,0-7.9,4.1-8,4.1c0,0,0-1.7,0-3.8l0-3.8
			l1.8-0.9c1-0.5,1.8-0.9,1.8-0.9c0,0,0,0.5,0,1c0,1.2,0,1.2,0.3,1.4c0.2,0.1,0.4,0.1,0.6-0.1c0.2-0.2,0.2-0.2,0.2-1.6V8.1l1.6-0.8
			c0.9-0.4,1.6-0.8,1.6-0.8C17.9,6.5,17.9,8.2,17.9,10.3z"/>
		</symbol>

		<symbol viewBox="0 0 16 20" id="ic-christmas-ball">
			<path fill-rule="evenodd" clip-rule="evenodd" d="M7.11897 0.567349C6.35997 0.787964 5.91926 1.36702 5.85417 2.22918L5.8289 2.56409L5.69463 2.61178C5.3402 2.73765 4.97215 3.0349 4.75536 3.37033C4.52747 3.72287 4.46045 3.99091 4.43822 4.63854L4.41896 5.19867L4.13615 5.33835C3.30182 5.75038 2.38296 6.49917 1.7502 7.28262C0.0765336 9.35496 -0.374902 12.2538 0.593504 14.7102C1.63268 17.3463 4.03187 19.1712 6.8353 19.458C7.88977 19.5659 8.91966 19.4496 9.95256 19.1059C14.0218 17.752 16.1333 13.2263 14.5541 9.24363C13.8889 7.56592 12.5525 6.09371 10.9925 5.32002L10.6733 5.16171L10.6527 4.62003C10.6376 4.2231 10.6118 4.01392 10.5561 3.83717C10.3874 3.30238 9.95858 2.83584 9.45686 2.6415L9.30842 2.58398L9.28857 2.17626C9.27023 1.79879 9.25828 1.74739 9.12766 1.48306C8.74836 0.715675 7.91526 0.33586 7.11897 0.567349ZM7.91029 1.71087C8.10203 1.85289 8.17658 2.00842 8.17658 2.26644V2.50308L7.57356 2.49288L6.97053 2.48267L6.95743 2.3899C6.95023 2.33888 6.96337 2.21215 6.9866 2.10831C7.03105 1.90952 7.18168 1.72479 7.36018 1.65009C7.49711 1.59279 7.79536 1.62574 7.91029 1.71087ZM9.10703 3.71233C9.3973 3.87034 9.54636 4.1598 9.54874 4.57008C9.54978 4.75295 9.55048 4.75277 9.19011 4.66912C8.22275 4.44457 6.88911 4.45233 5.89566 4.68831C5.71824 4.73043 5.56382 4.7649 5.55258 4.7649C5.5413 4.7649 5.54007 4.64021 5.54983 4.48784C5.57455 4.10261 5.68536 3.89428 5.95021 3.73512L6.15086 3.61451H7.53904H8.92727L9.10703 3.71233ZM8.82206 5.72833C9.41522 5.85651 9.86807 6.01504 10.4217 6.28831C11.4454 6.79363 12.2595 7.51033 12.9069 8.47584C13.0982 8.76113 13.5203 9.56014 13.5203 9.63688C13.5203 9.65402 13.3192 9.49582 13.0735 9.28534C12.4734 8.7713 12.3586 8.69846 12.1491 8.69864C12.0476 8.69872 11.9359 8.72677 11.869 8.76908C11.8077 8.80774 11.3323 9.19936 10.8125 9.63936C9.99917 10.3278 9.85938 10.4325 9.81051 10.3904C9.21821 9.87972 7.94465 8.81969 7.86115 8.76785C7.6962 8.6655 7.44026 8.67638 7.26833 8.79305C7.15723 8.86842 5.69296 10.0899 5.37293 10.3741C5.29793 10.4407 5.28239 10.4295 4.29038 9.59372C3.73678 9.12733 3.25618 8.73512 3.2223 8.72213C3.18845 8.70911 3.08087 8.69849 2.98324 8.69849C2.78095 8.69849 2.80196 8.68487 2.13525 9.2489C1.88424 9.46128 1.67124 9.62738 1.66188 9.61803C1.62489 9.58107 2.14252 8.62209 2.37824 8.29088C2.70258 7.83518 3.42424 7.1137 3.8719 6.79764C4.60336 6.28112 5.61689 5.85295 6.43244 5.7159C6.62634 5.68332 6.82673 5.64933 6.87776 5.64035C6.92878 5.63137 7.30451 5.62962 7.71272 5.63649C8.29608 5.64632 8.53346 5.66599 8.82206 5.72833ZM4.05284 10.8508C4.54777 11.2692 4.99735 11.635 5.05186 11.6637C5.16894 11.7252 5.42752 11.7284 5.53733 11.6697C5.58 11.6468 6.0494 11.2612 6.5804 10.8127C7.11143 10.3643 7.56138 9.99732 7.58035 9.99732C7.59927 9.99732 8.0591 10.3724 8.60212 10.8309C9.28267 11.4055 9.63194 11.6762 9.72609 11.7022C10.0141 11.7818 10.0806 11.7361 11.7305 10.3235C11.9401 10.1441 12.1287 9.99732 12.1496 9.99732C12.1706 9.99732 12.5877 10.3347 13.0767 10.747L13.9656 11.4968L13.9649 11.9624C13.9643 12.387 13.8834 13.2091 13.8378 13.2547C13.8149 13.2777 13.8055 13.2704 13.2052 12.7592C12.3615 12.0408 12.2594 11.983 11.992 12.0719C11.9243 12.0944 11.4348 12.4813 10.9041 12.9317C10.3735 13.3821 9.91917 13.7592 9.89464 13.7698C9.87007 13.7804 9.40249 13.4113 8.85557 12.9496C8.18831 12.3863 7.81536 12.0964 7.72199 12.0684C7.46627 11.9916 7.3712 12.0508 6.3066 12.95C5.76061 13.4111 5.29422 13.7802 5.27014 13.7703C5.24609 13.7603 4.79221 13.3833 4.26154 12.9324C3.62208 12.3891 3.24976 12.0981 3.15754 12.0696C2.90969 11.993 2.78415 12.0628 2.04448 12.6885C1.67187 13.0037 1.35629 13.2619 1.34315 13.2623C1.28949 13.2638 1.22982 12.7606 1.21115 12.1497L1.19134 11.5002L2.09558 10.736C2.96457 10.0016 3.00279 9.97405 3.07638 10.0309C3.1185 10.0634 3.55791 10.4324 4.05284 10.8508ZM4.01402 14.183C4.53099 14.62 4.99857 15.0007 5.05309 15.0291C5.21147 15.1118 5.43795 15.0944 5.59544 14.9875C5.71115 14.909 7.23786 13.636 7.49689 13.402L7.5779 13.3289L8.52786 14.1321C9.05032 14.5739 9.53152 14.9682 9.59721 15.0082C9.73971 15.0951 9.95765 15.1025 10.1065 15.0255C10.1659 14.9948 10.6504 14.6015 11.1833 14.1515L12.1522 13.3332L12.7992 13.8768C13.155 14.1758 13.4536 14.4325 13.4627 14.4473C13.4913 14.4936 13.1277 15.1809 12.8757 15.5568C12.2648 16.4682 11.4096 17.2186 10.4217 17.7099C8.09212 18.8685 5.33211 18.5035 3.35236 16.7751C2.71798 16.2213 2.06753 15.3434 1.76067 14.6269L1.68526 14.4509L2.34017 13.8961C2.70039 13.591 3.01285 13.352 3.03456 13.365C3.05627 13.378 3.49702 13.7461 4.01402 14.183Z"/>
		</symbol>

		<symbol viewBox="0 0 19 18" id="ic-butterfly">
			<path fill-rule="evenodd" clip-rule="evenodd" d="M6.04059 0.143831C5.79255 0.295052 5.70441 0.602948 5.83211 0.872066C5.9067 1.02919 6.03777 1.12523 6.25464 1.18167C7.25607 1.44221 8.0527 2.07174 8.5176 2.9699C8.79151 3.49904 8.88914 3.89667 8.91541 4.58965L8.93694 5.15731L8.56974 4.79208C7.82451 4.05082 6.96595 3.58907 5.95156 3.38389C5.50517 3.2936 4.48834 3.29379 4.06485 3.38426C2.03337 3.81822 0.514483 5.32033 0.0883191 7.31681C-0.0204856 7.82651 -0.0305051 8.76946 0.0679832 9.23581C0.45971 11.0912 1.69838 12.5074 3.4439 13.0956C3.61193 13.1523 3.74548 13.2129 3.7407 13.2304C3.73587 13.2479 3.68347 13.3959 3.62425 13.5593C3.47039 13.9836 3.41888 14.3566 3.44586 14.8506C3.47247 15.3379 3.53641 15.5995 3.73053 16.0154C3.92521 16.4324 4.09995 16.6851 4.4034 16.9886C4.81034 17.3955 5.35351 17.7116 5.90562 17.8629C6.20624 17.9452 6.96713 17.9788 7.26316 17.9227C7.77786 17.8254 8.24711 17.6292 8.64786 17.344C8.86584 17.1888 9.29508 16.7666 9.41992 16.5845L9.48282 16.4927L9.54572 16.5845C9.67055 16.7666 10.0998 17.1888 10.3178 17.344C10.7185 17.6292 11.1878 17.8254 11.7025 17.9227C11.9985 17.9788 12.7594 17.9452 13.06 17.8629C13.6121 17.7116 14.1553 17.3955 14.5622 16.9886C14.8657 16.6851 15.0404 16.4324 15.2351 16.0154C15.4292 15.5995 15.4932 15.3379 15.5198 14.8506C15.5467 14.3566 15.4952 13.9836 15.3414 13.5593C15.2822 13.3959 15.2298 13.2479 15.2249 13.2304C15.2201 13.2129 15.3537 13.1523 15.5217 13.0956C17.0492 12.5809 18.2568 11.3612 18.7369 9.84812C18.9199 9.27129 18.9645 8.96525 18.9613 8.30808C18.9578 7.62144 18.8841 7.17572 18.6844 6.63404C18.0647 4.95321 16.6807 3.76448 14.9008 3.38426C14.4773 3.29379 13.4605 3.2936 13.0141 3.38389C11.9997 3.58907 11.1411 4.05082 10.3959 4.79208L10.0287 5.15731L10.0502 4.58965C10.0765 3.89667 10.1741 3.49904 10.448 2.9699C10.9129 2.07174 11.7096 1.44221 12.711 1.18167C12.9279 1.12523 13.0589 1.02919 13.1335 0.872066C13.3099 0.50023 13.056 0.0703177 12.6597 0.0699466C12.3729 0.0696497 11.7008 0.312568 11.234 0.58521C10.6606 0.920122 10.0894 1.45175 9.73468 1.98093C9.61151 2.16462 9.49818 2.31491 9.48282 2.31491C9.46745 2.31491 9.35412 2.16462 9.23096 1.98093C8.65661 1.12426 7.72684 0.447052 6.71416 0.147765C6.38459 0.0503528 6.19571 0.0492396 6.04059 0.143831ZM5.59635 4.46666C7.0225 4.68164 8.23498 5.68882 8.70185 7.04636C8.91074 7.6538 8.90235 7.48718 8.91634 11.2995C8.93059 15.1781 8.93345 15.1192 8.70768 15.5904C8.54365 15.9328 8.27865 16.2378 7.95295 16.4594C7.60853 16.6936 7.27529 16.8062 6.84686 16.8329C5.57064 16.9124 4.47554 15.8141 4.55825 14.5374C4.59202 14.0159 4.75827 13.6325 5.18874 13.0831C5.3033 12.9369 5.30029 12.6359 5.18266 12.4707C5.06743 12.3088 4.93105 12.2462 4.60401 12.2047C3.61909 12.0798 2.81204 11.6765 2.16674 10.9867C1.08738 9.83287 0.81069 8.13578 1.46619 6.69007C1.8096 5.93267 2.53268 5.19308 3.30411 4.81019C3.98918 4.47012 4.80655 4.34762 5.59635 4.46666ZM14.7709 4.50489C16.1409 4.79085 17.3072 5.87957 17.6983 7.23751C18.0795 8.56113 17.7386 9.98208 16.7989 10.9867C16.1536 11.6765 15.3465 12.0798 14.3616 12.2047C14.0346 12.2462 13.8982 12.3088 13.783 12.4707C13.6653 12.6359 13.6623 12.9369 13.7769 13.0831C14.2074 13.6325 14.3736 14.0159 14.4074 14.5374C14.4901 15.8141 13.395 16.9124 12.1188 16.8329C11.6903 16.8062 11.3571 16.6936 11.0127 16.4594C10.5338 16.1336 10.2075 15.6498 10.0915 15.0936C10.007 14.6885 10.034 7.8847 10.1215 7.52878C10.318 6.72945 10.6635 6.09766 11.1945 5.56666C12.1286 4.63262 13.472 4.23377 14.7709 4.50489Z"/>
		</symbol>

		<symbol viewBox="0 0 15 20" id="ic-pear">
			<path fill-rule="evenodd" clip-rule="evenodd" d="M7.92251 0.546501C7.76376 0.617046 7.64323 0.761253 7.60486 0.926538C7.58664 1.00506 7.57135 1.30724 7.57086 1.59811L7.56997 2.12691L6.28042 2.12714C5.34549 2.12729 4.8939 2.14209 4.63833 2.18091C3.23894 2.39343 2.02442 3.17236 1.25281 4.35214C0.751979 5.11797 0.488836 5.98473 0.471432 6.92601C0.462786 7.39262 0.48713 7.46232 0.719137 7.63536C0.819221 7.71002 0.862639 7.71188 2.52154 7.71188H4.22137L3.96587 8.22183C3.65586 8.84067 3.33461 9.38632 2.84673 10.1227C2.31239 10.9292 2.0976 11.3878 1.91257 12.1171C1.13884 15.1674 3.23623 18.4863 6.44218 19.2847C7.11234 19.4516 7.32939 19.4755 8.16372 19.4742C8.9946 19.4729 9.24773 19.4427 9.92642 19.2637C12.7254 18.5255 14.75 15.7599 14.5082 13.005C14.4105 11.8915 14.1283 11.1596 13.3401 9.97555C12.409 8.57704 11.849 7.3917 11.3516 5.76675C11.2448 5.4177 11.0923 5.0148 10.9994 4.8359C10.5532 3.97719 9.7896 3.40849 8.78531 3.18706L8.68325 3.16457V2.02037C8.68325 0.892583 8.68203 0.874362 8.59902 0.750083C8.44765 0.523493 8.16536 0.43855 7.92251 0.546501ZM7.35838 3.37936C7.31451 3.66495 7.15305 4.15509 7.00754 4.44436C6.52627 5.40122 5.71981 6.09751 4.70695 6.43071C4.24735 6.58189 3.87035 6.61685 2.6971 6.617L1.5908 6.61715L1.6164 6.44088C1.66142 6.13105 1.81539 5.65372 1.97076 5.34233C2.5015 4.2787 3.52242 3.50601 4.67206 3.29786C4.87049 3.26194 5.31231 3.24587 6.16676 3.24354L7.37975 3.2402L7.35838 3.37936ZM8.87259 4.36925C9.35078 4.53379 9.80143 4.92407 10.0253 5.36753C10.0875 5.49073 10.2113 5.83485 10.3004 6.13217C10.793 7.77615 11.3927 9.0464 12.3866 10.5507C12.6226 10.9079 12.8967 11.3699 12.9959 11.5773C14.1756 14.0457 12.7197 17.1473 9.93436 18.0995C9.32079 18.3093 8.98937 18.358 8.16372 18.3595C7.3249 18.3612 7.0314 18.3207 6.40956 18.1181C5.14859 17.7071 4.02276 16.7596 3.42122 15.6031C3.03402 14.8586 2.88002 14.2404 2.87905 13.4267C2.87783 12.4106 3.10479 11.7407 3.80946 10.6806C4.50541 9.63369 4.97061 8.78326 5.3823 7.80506L5.59297 7.30449L5.88569 7.1359C6.04667 7.0432 6.28692 6.89391 6.41958 6.80418C6.74054 6.58709 7.39485 5.92484 7.63258 5.57649C7.84462 5.26574 8.11856 4.73711 8.22451 4.43426L8.29361 4.23677L8.4606 4.26085C8.55244 4.2741 8.73784 4.3229 8.87259 4.36925Z"/>
		</symbol>

		<symbol viewBox="0 0 19 20" id="ic-wood">
			<path class="st0" d="M7,0.5C6.4,0.6,5.9,0.8,5.4,1.1C5,1.4,4.7,1.7,4.1,2.5C3.3,3.4,3.1,3.5,2.5,4C2.3,4.2,1.9,4.5,1.8,4.6
			C1.5,4.9,1.4,5,1.3,5.3C1,5.9,0.9,6.1,0.9,7.1c-0.1,1-0.1,1.1-0.4,2C0,10.4-0.1,10.8,0,11.4c0.1,0.6,0.2,0.9,0.9,1.9
			c0.4,0.6,0.5,0.8,0.8,1.6c0.7,1.8,1,2.1,2.8,2.8c0.8,0.3,1,0.4,1.6,0.8c1,0.7,1.3,0.8,1.9,0.9c0.6,0.1,1,0,2.3-0.5
			c0.8-0.3,1-0.3,1.9-0.4c1-0.1,1.3-0.1,1.8-0.4c0.3-0.2,0.4-0.2,0.7-0.5c0.2-0.2,0.5-0.5,0.7-0.8c0.4-0.6,0.6-0.7,1.5-1.5
			c0.4-0.3,0.8-0.7,0.9-0.9c0.6-0.7,0.9-1.3,1-2.2c0.1-0.5,0-1-0.2-1.9c-0.3-1.4-0.3-1.5-0.2-2.6c0.1-0.8,0.1-1.4,0-1.8
			c-0.2-0.7-1.1-2.2-2-3.1c-1-1-2.4-1.9-3.1-2c-0.4-0.1-1-0.1-1.8,0C10.5,1.1,10.4,1,9,0.7C8,0.5,7.5,0.5,7,0.5z M7.9,1.6
			c0.1,0,0.6,0.1,0.9,0.2c1.4,0.3,1.7,0.3,2.9,0.2C12.2,2,12.6,2,12.8,2c0.4,0,0.4,0,0.8,0.2c1.5,0.8,2.9,2.2,3.7,3.7
			c0.2,0.4,0.2,0.4,0.2,0.8c0,0.3,0,0.7-0.1,1.1c-0.1,1.2-0.1,1.5,0.2,2.9c0.3,1.1,0.3,1.5,0.1,2.1c-0.2,0.6-0.5,1-1.5,1.8
			c-0.8,0.7-1.1,1-1.6,1.6c-0.5,0.7-0.7,0.9-1,1c-0.3,0.2-0.6,0.2-1.4,0.3c-0.4,0-0.9,0.1-1.1,0.1c-0.2,0-0.7,0.2-1.2,0.4
			c-1.1,0.4-1.4,0.4-1.8,0.3c-0.3-0.1-0.6-0.2-1.2-0.6c-0.8-0.5-1-0.6-1.9-1c-0.8-0.3-1.1-0.5-1.4-0.8c-0.3-0.3-0.5-0.6-0.8-1.4
			c-0.4-0.9-0.5-1.2-1-1.9c-0.4-0.6-0.6-0.9-0.6-1.2c-0.1-0.4,0-0.7,0.3-1.8c0.2-0.5,0.3-1,0.4-1.2C1.9,8.2,2,7.7,2,7.2
			C2,6.4,2.1,6.2,2.2,5.8c0.1-0.3,0.3-0.5,1-1C3.9,4.3,4.2,4,4.9,3.2C5.7,2.3,6.1,2,6.6,1.8C7,1.6,7.4,1.6,7.9,1.6z M9,2.6
			c-1.3,0.2-2.2,0.5-3.2,1c-2.3,1.4-3.7,4.1-3.5,6.8c0.3,3.5,2.9,6.3,6.4,6.7c0.6,0.1,1.6,0.1,2.1,0c1.5-0.3,2.8-0.9,3.9-2
			c1.2-1.2,2-2.7,2.2-4.4c0.1-0.5,0-1.6,0-2.1c-0.2-1.2-0.7-2.3-1.4-3.2c-0.3-0.4-1-1.1-1.4-1.4c-1.1-0.8-2.4-1.3-3.7-1.5
			C10,2.6,9.2,2.6,9,2.6z M10.5,3.8C13,4.1,15,6,15.6,8.4c0.3,1,0.2,2.2-0.1,3.3c-0.7,2.3-2.6,4-5,4.4c-0.4,0.1-1.5,0.1-1.9,0
			c-1.3-0.2-2.4-0.8-3.3-1.7c-1-1-1.6-2.1-1.9-3.5c-0.1-0.4-0.1-1.4,0-1.9c0.4-2.3,1.9-4.1,4-4.9c0.5-0.2,1-0.3,1.7-0.4
			C9.4,3.7,10.3,3.7,10.5,3.8z M8.9,4.6C7.3,4.8,5.9,5.7,5,7.1c-0.3,0.5-0.6,1.3-0.7,2c-0.1,0.4-0.1,1.3,0,1.7c0.4,2,1.7,3.6,3.6,4.2
			c0.6,0.2,1,0.3,1.7,0.3c0.7,0,1.1-0.1,1.6-0.2c2.2-0.7,3.7-2.8,3.7-5.1c0-0.9-0.2-1.6-0.5-2.4C13.4,5.4,11.2,4.2,8.9,4.6z M10.2,5.7
			c1.1,0.1,2.1,0.8,2.8,1.7c1.6,2.1,0.9,5.1-1.5,6.4c-1.3,0.7-3,0.6-4.2-0.2c-1.2-0.7-1.9-1.9-2-3.2C5.2,8.6,6.1,6.9,7.6,6.1
			C8.5,5.7,9.3,5.5,10.2,5.7z M9.3,7.2C8.3,7.4,7.5,8.1,7.1,9C7,9.3,7,9.5,7,9.9c0,1.1,0.6,2,1.5,2.4c0.5,0.2,1,0.3,1.5,0.2
			c0.6-0.1,1.1-0.3,1.5-0.8c0.3-0.3,0.5-0.6,0.7-1.1c0.1-0.3,0.1-0.3,0.1-0.8c0-0.4,0-0.5-0.1-0.8c-0.2-0.8-0.8-1.4-1.5-1.7
			C10.2,7.3,9.7,7.2,9.3,7.2z M10.1,8.4c0.7,0.2,1.2,1,1,1.7c-0.1,0.7-0.6,1.2-1.3,1.3c-0.6,0.1-1.3-0.2-1.6-0.8
			c-0.1-0.3-0.1-0.3-0.1-0.7c0-0.4,0-0.4,0.1-0.6C8.6,8.5,9.3,8.2,10.1,8.4z"/>
		</symbol>

		<symbol viewBox="0 0 19 20" id="ic-chain">
			<path class="st0" d="M16.9,0.5c-0.4,0.1-0.5,0.2-1.1,0.7l-0.5,0.5l-0.2-0.1c-0.2-0.1-0.8-0.2-1.1-0.3c-1.1-0.2-2.4,0.2-3.3,0.8
				c-0.2,0.1-0.9,0.8-1.9,1.8C7.1,5.9,6.9,6,6.6,6.7L6.5,7L6.2,7.1C5.5,7.4,5.4,7.6,3.6,9.3c-1.8,1.7-2,2-2.3,2.6
				C1,12.7,0.8,13.7,1,14.5c0,0.3,0.2,0.9,0.3,1.1l0.1,0.2l-0.5,0.5c-0.6,0.6-0.7,0.8-0.8,1.2c-0.1,0.5,0.1,1,0.5,1.4
				c0.4,0.4,0.9,0.6,1.4,0.5c0.5-0.1,0.6-0.2,1.2-0.8l0.5-0.5l0.2,0.1c1.2,0.5,2.5,0.4,3.7-0.1c0.6-0.3,0.8-0.4,2.5-2.1
				c1.7-1.7,1.9-2,2.3-2.6l0.2-0.3l0.3-0.2c0.6-0.3,0.9-0.5,2.6-2.3c1.7-1.7,1.9-1.9,2.1-2.5C17.8,7.7,17.9,7.4,18,7
				c0.1-0.4,0.1-1.3,0-1.8c-0.1-0.3-0.2-0.8-0.3-0.9c0,0,0.1-0.2,0.5-0.6c0.6-0.6,0.7-0.8,0.8-1.2c0.1-0.5-0.1-1-0.5-1.4
				C18.1,0.6,17.5,0.4,16.9,0.5z M17.6,1.7c0.2,0.1,0.3,0.3,0.3,0.5c0,0.1,0,0.2-0.1,0.3c0,0.1-0.9,0.9-1.8,1.9
				c-1.9,1.9-1.9,1.9-2.2,1.8c-0.2,0-0.4-0.2-0.4-0.4c-0.1-0.3,0-0.3,1.8-2.1c1-1,1.8-1.8,1.9-1.8C17.2,1.6,17.4,1.6,17.6,1.7z
				M13.9,2.6c0.1,0,0.3,0.1,0.4,0.1l0.1,0L14,3.2c-0.5,0.5-0.5,0.5-0.6,0.5c-0.3,0-0.7,0.1-1,0.3C12,4.1,12,4.1,10.4,5.7
				C8.9,7.2,8.8,7.3,8.7,7.6C8.6,7.7,8.5,8,8.5,8.1c-0.1,0.3-0.1,0.8,0,1.1c0.1,0.3,0.3,0.7,0.5,1c0.4,0.5,0.4,0.5,0.5,0.7
				c0.1,0.2,0.1,0.7,0,0.9l0,0.1l-0.3-0.1c-1-0.5-1.7-1.6-1.8-2.7C7.2,8.2,7.4,7.4,7.9,6.7c0.2-0.3,3-3.1,3.4-3.4
				C12,2.7,13,2.4,13.9,2.6z M16.9,5.6c0.1,0.8-0.1,1.7-0.6,2.5c-0.2,0.4-3.4,3.5-3.5,3.5c0,0,0-0.2,0-0.4c0-0.2,0-0.5-0.1-0.7
				l-0.1-0.3l1.4-1.4c1.2-1.2,1.4-1.4,1.5-1.6c0.2-0.3,0.2-0.6,0.3-0.9l0-0.3l0.5-0.5l0.5-0.5l0,0.1C16.9,5.2,16.9,5.4,16.9,5.6z
				M12.4,6c0.1,0.4,0.5,0.8,0.9,1c0.2,0.1,0.5,0.1,0.7,0.2c0.1,0,0,0.1-0.8,0.9l-0.9,0.9l-0.2-0.3c-0.4-0.6-0.8-1-1.4-1.4l-0.3-0.2
				l0.9-0.9l0.9-0.9l0,0.2C12.3,5.7,12.3,5.9,12.4,6z M10.3,8.5c0.5,0.4,1,1,1.2,1.7c0.1,0.4,0.2,0.7,0.2,1.1c0,0.8-0.2,1.5-0.7,2.1
				c-0.3,0.4-3.1,3.2-3.4,3.4c-0.5,0.4-1.2,0.6-1.8,0.6c-0.3,0-0.8,0-1.1-0.1l-0.1,0L5,16.8l0.5-0.5l0.3,0c0.4,0,0.7-0.2,1-0.3
				c0.1-0.1,0.7-0.7,1.8-1.7c1.5-1.5,1.6-1.6,1.7-1.9c0.2-0.4,0.2-0.7,0.2-1.1c0-0.6-0.2-1.1-0.6-1.6C9.7,9.3,9.6,9.2,9.5,8.9
				c0-0.2,0-0.5,0.1-0.7l0-0.1l0.2,0.1C10,8.3,10.2,8.4,10.3,8.5z M6.2,8.8c0,0.2,0,0.5,0.1,0.7l0.1,0.3l-1.4,1.4
				c-1.4,1.4-1.4,1.4-1.5,1.7c-0.1,0.3-0.2,0.7-0.2,1c0,0.1,0,0.2-0.5,0.6l-0.5,0.5l0-0.1C2.1,14.6,2,14.1,2,13.7
				c0-0.6,0.3-1.3,0.6-1.8C2.9,11.6,6,8.4,6.1,8.4C6.2,8.4,6.2,8.6,6.2,8.8z M6.9,11.2c0.4,0.5,0.8,1,1.4,1.3l0.3,0.2l-0.9,0.9
				l-0.9,0.9l0-0.3c-0.1-0.7-0.6-1.3-1.3-1.4c-0.1,0-0.3-0.1-0.4-0.1l-0.1,0l0.9-0.9c0.5-0.5,0.9-0.9,0.9-0.9
				C6.7,10.9,6.8,11.1,6.9,11.2z M5.2,13.9c0.3,0.1,0.4,0.4,0.3,0.7c-0.1,0.2-3.4,3.5-3.6,3.7c-0.1,0-0.2,0.1-0.3,0.1
				c-0.2,0-0.4-0.1-0.5-0.3c-0.1-0.2-0.1-0.3,0-0.5C1.3,17.4,4.7,14,4.8,14C5,13.9,5.1,13.9,5.2,13.9z"/>
		</symbol>

		<symbol viewBox="0 0 19 20" id="ic-candelabra">
			<path fill-rule="evenodd" clip-rule="evenodd" d="M9.07919 0.557039C8.59124 0.731379 8.1742 1.20382 7.91503 1.87583C7.67875 2.48862 7.63804 3.02852 7.79687 3.44411L7.8692 3.63337L7.79138 3.74017C7.7156 3.84411 7.7133 3.88931 7.70313 5.45277C7.69289 7.03285 7.69156 7.05856 7.61819 7.05856C7.47042 7.05856 7.25255 7.20433 7.17596 7.35447C7.1128 7.47831 7.10126 7.57312 7.10126 7.96823C7.10126 8.52242 7.16631 8.857 7.34878 9.24149C7.58672 9.74283 8.16396 10.2503 8.68768 10.4186L8.88251 10.4812V11.1393V11.7974L8.52069 11.82C8.06929 11.8483 7.672 11.9491 7.26984 12.1376C6.83166 12.3429 6.66192 12.4681 6.15345 12.9604C5.60631 13.4902 5.4529 13.5662 4.93036 13.5662C4.4646 13.5662 4.24035 13.4746 3.91063 13.1493C3.55356 12.7971 3.49167 12.6229 3.47259 11.917L3.45801 11.3761L3.68786 11.2976C4.03224 11.18 4.29519 11.0046 4.59099 10.6953C5.0644 10.2002 5.24579 9.68617 5.24579 8.83989C5.24579 8.46378 5.23376 8.36793 5.17109 8.2451C5.09423 8.09451 4.87655 7.94919 4.72774 7.94919C4.65274 7.94919 4.65204 7.93446 4.65144 6.38132C4.65081 4.81798 4.65059 4.813 4.5662 4.66501L4.48159 4.51657L4.55615 4.33103C4.6153 4.18385 4.63055 4.06109 4.62992 3.73728C4.62925 3.3749 4.6156 3.28948 4.5085 2.97653C4.44215 2.78264 4.32922 2.51897 4.25757 2.39061C4.07502 2.06372 3.73666 1.71459 3.45641 1.56411C3.24812 1.45223 3.19167 1.4388 2.92578 1.43772C2.66353 1.43664 2.59907 1.45086 2.38228 1.55755C2.10251 1.69518 1.78033 2.01555 1.57571 2.35959C1.50631 2.47626 1.3902 2.74211 1.31765 2.95037C1.1976 3.29501 1.18573 3.36581 1.18543 3.73728C1.18517 4.06395 1.20035 4.18326 1.2615 4.33474L1.33795 4.52399L1.26013 4.6308C1.18435 4.73474 1.18205 4.77994 1.17188 6.34339C1.16164 7.92347 1.16031 7.94919 1.08694 7.94919C0.939171 7.94919 0.721302 8.09495 0.644709 8.2451C0.581548 8.36893 0.570007 8.46375 0.570007 8.85885C0.570007 9.41304 0.63506 9.74762 0.817527 10.1321C1.05466 10.6317 1.63282 11.141 2.1522 11.3078L2.34283 11.369L2.35998 11.9877C2.37497 12.5269 2.38967 12.6446 2.47457 12.9033C2.73649 13.7013 3.35124 14.3146 4.1593 14.5839C4.41075 14.6677 4.51006 14.68 4.93036 14.6799C5.35352 14.6799 5.44926 14.6677 5.70966 14.5811C6.17003 14.428 6.43637 14.2491 6.91567 13.7711C7.28328 13.4046 7.39464 13.3171 7.66061 13.186C7.9963 13.0205 8.37433 12.9235 8.68768 12.9225L8.88251 12.9218V14.4433V15.9648H7.17399C5.53595 15.9648 5.45946 15.9679 5.3193 16.0394C5.23796 16.0809 5.14511 16.1673 5.10997 16.2342C5.07523 16.3004 4.93674 16.8053 4.80222 17.3564L4.55759 18.3584L4.09454 18.3769C3.74843 18.3908 3.60118 18.4121 3.5113 18.4612C3.37306 18.5367 3.24188 18.7668 3.24188 18.9336C3.24188 19.1177 3.37314 19.3315 3.53779 19.4155C3.6827 19.4894 3.74464 19.4902 9.43915 19.4902C15.1337 19.4902 15.1956 19.4894 15.3405 19.4155C15.5052 19.3315 15.6364 19.1177 15.6364 18.9336C15.6364 18.7668 15.5052 18.5367 15.367 18.4612C15.2771 18.4121 15.1299 18.3908 14.7838 18.3769L14.3207 18.3584L14.0761 17.3564C13.9416 16.8053 13.8031 16.3004 13.7683 16.2342C13.7332 16.1673 13.6403 16.0809 13.559 16.0394C13.4188 15.9679 13.3423 15.9648 11.7043 15.9648H9.99579V14.4433V12.9218L10.1906 12.9225C10.504 12.9235 10.882 13.0205 11.2177 13.186C11.4837 13.3171 11.595 13.4046 11.9626 13.7711C12.4419 14.2491 12.7083 14.428 13.1686 14.5811C13.4291 14.6678 13.5247 14.6799 13.9479 14.6799C14.3712 14.6799 14.4668 14.6678 14.7272 14.5811C15.5293 14.3143 16.1424 13.6987 16.4065 12.8951C16.4884 12.6457 16.5036 12.5224 16.5184 11.9887L16.5354 11.371L16.7578 11.295C17.0948 11.18 17.3596 11.0027 17.6535 10.6953C18.1269 10.2002 18.3083 9.68617 18.3083 8.83989C18.3083 8.46378 18.2963 8.36793 18.2336 8.2451C18.1567 8.09451 17.939 7.94919 17.7902 7.94919C17.7152 7.94919 17.7145 7.93446 17.7139 6.38132C17.7133 4.81798 17.7131 4.813 17.6287 4.66501L17.5441 4.51657L17.6186 4.33103C17.6778 4.18385 17.6931 4.06109 17.6924 3.73728C17.6918 3.3749 17.6781 3.28948 17.571 2.97653C17.5046 2.78264 17.3917 2.51897 17.3201 2.39061C17.1375 2.06372 16.7992 1.71459 16.5189 1.56411C16.3106 1.45223 16.2542 1.4388 15.9883 1.43772C15.726 1.43664 15.6616 1.45086 15.4448 1.55755C15.165 1.69518 14.8428 2.01555 14.6382 2.35959C14.5688 2.47626 14.4527 2.74211 14.3801 2.95037C14.2601 3.29501 14.2482 3.36581 14.2479 3.73728C14.2477 4.06395 14.2628 4.18326 14.324 4.33474L14.4004 4.52399L14.3226 4.6308C14.2469 4.73474 14.2446 4.77994 14.2344 6.34339C14.2241 7.92347 14.2228 7.94919 14.1494 7.94919C14.0017 7.94919 13.7838 8.09495 13.7072 8.2451C13.644 8.36893 13.6325 8.46375 13.6325 8.85885C13.6325 9.41304 13.6976 9.74762 13.88 10.1321C14.118 10.6335 14.6952 11.1409 15.2189 11.3092L15.4138 11.3718V11.8236C15.4138 12.5376 15.2963 12.8617 14.9098 13.215C14.6273 13.4732 14.3725 13.5662 13.9479 13.5662C13.4287 13.5662 13.2799 13.4925 12.7288 12.9623C12.2156 12.4684 12.0433 12.3413 11.6165 12.1416C11.2157 11.954 10.8005 11.848 10.3576 11.8201L9.99579 11.7974V11.1393V10.4812L10.1906 10.4186C10.7125 10.2509 11.2748 9.75738 11.5244 9.24802C11.7036 8.88216 11.777 8.50483 11.777 7.94926C11.777 7.57316 11.765 7.47731 11.7023 7.35447C11.6255 7.20388 11.4078 7.05856 11.259 7.05856C11.184 7.05856 11.1833 7.04383 11.1827 5.49069C11.1821 3.92735 11.1818 3.92238 11.0975 3.77438L11.0128 3.62595L11.0833 3.4404C11.1812 3.18264 11.2031 2.75766 11.135 2.43782C11.0069 1.83601 10.6725 1.19825 10.3097 0.86386C9.95753 0.539227 9.46954 0.417545 9.07919 0.557039ZM9.61078 1.73574C9.77061 1.90522 9.97753 2.33799 10.0359 2.62492C10.1006 2.94299 10.0602 3.10742 9.8708 3.29686C9.6035 3.56412 9.27479 3.56412 9.00749 3.29686C8.81808 3.10742 8.77767 2.94299 8.84239 2.62492C8.92637 2.21208 9.28195 1.60349 9.43915 1.60349C9.46494 1.60349 9.54216 1.66301 9.61078 1.73574ZM3.02847 2.60473C3.17583 2.72066 3.35336 3.02641 3.44999 3.33071C3.59338 3.78225 3.55701 4.00547 3.30385 4.22771C3.15282 4.36034 2.97473 4.40747 2.76992 4.36906C2.57889 4.33321 2.3297 4.08046 2.29311 3.88542C2.23414 3.57121 2.44889 2.96262 2.7189 2.6788C2.87988 2.50955 2.90103 2.5045 3.02847 2.60473ZM16.091 2.60473C16.2383 2.72066 16.4159 3.02641 16.5125 3.33071C16.6559 3.78225 16.6195 4.00547 16.3664 4.22771C16.2153 4.36034 16.0372 4.40747 15.8324 4.36906C15.6414 4.33321 15.3922 4.08046 15.3556 3.88542C15.2966 3.57121 15.5114 2.96262 15.7814 2.6788C15.9424 2.50955 15.9635 2.5045 16.091 2.60473ZM10.07 5.83396V7.05856H9.43915H8.80829V5.83396V4.60935H9.43915H10.07V5.83396ZM3.53876 6.72458V7.94919H2.9079H2.27704V6.72458V5.49997H2.9079H3.53876V6.72458ZM16.6013 6.72458V7.94919H15.9704H15.3395V6.72458V5.49997H15.9704H16.6013V6.72458ZM10.6485 8.36667C10.5968 8.7732 10.3079 9.16085 9.9281 9.33348C9.79588 9.3936 9.6795 9.41267 9.43915 9.41367C9.16227 9.41486 9.09744 9.40169 8.90871 9.30606C8.52963 9.11402 8.27365 8.75817 8.22615 8.35736L8.20418 8.17185H9.43878H10.6733L10.6485 8.36667ZM4.11725 9.25729C4.06552 9.66383 3.77667 10.0515 3.39685 10.2241C3.26463 10.2842 3.14826 10.3033 2.9079 10.3043C2.63674 10.3054 2.56308 10.2912 2.3831 10.2028C2.0097 10.0194 1.74237 9.64854 1.6949 9.24798L1.67294 9.06247H2.90753H4.14208L4.11725 9.25729ZM17.1798 9.25729C17.128 9.66383 16.8392 10.0515 16.4593 10.2241C16.3271 10.2842 16.2108 10.3033 15.9704 10.3043C15.6992 10.3054 15.6256 10.2912 15.4456 10.2028C15.0722 10.0194 14.8049 9.64854 14.7574 9.24798L14.7354 9.06247H15.97H17.2046L17.1798 9.25729ZM13.024 17.7275L13.1789 18.3584L11.309 18.368C10.2806 18.3733 8.59765 18.3733 7.56917 18.368L5.69919 18.3584L5.84429 17.7646C5.92407 17.4381 5.99692 17.1499 6.00612 17.1243C6.01944 17.0873 6.72671 17.0797 9.44598 17.0872L12.869 17.0966L13.024 17.7275Z"/>
		</symbol>

		<symbol viewBox="0 0 32 32" id="ic-bouquet">
			<path fill-rule="evenodd" clip-rule="evenodd" d="M17.9484 0.0964897C17.7593 0.159677 17.4883 0.271365 17.346 0.344615C17.0795 0.481927 16.2318 1.13193 16.0836 1.31261C16.0078 1.40511 15.9718 1.39505 15.6935 1.20368C15.2295 0.88449 14.8331 0.77449 14.2688 0.808365C13.9177 0.829427 13.7072 0.880365 13.4694 1.0018C12.9973 1.2428 12.4282 1.8018 12.013 2.43205L11.6483 2.98549L11.1192 2.3433C10.394 1.46336 9.96041 1.06455 9.66954 1.00999C9.12679 0.908177 8.75866 1.19949 7.78866 2.49843C6.16485 4.67287 4.92941 7.61787 4.38691 10.6074C3.9636 12.9402 3.96591 15.6051 4.39316 17.7319C4.64516 18.9864 5.20985 20.5886 5.71085 21.4705C5.81448 21.653 5.88929 21.8114 5.87698 21.8226C5.86473 21.8337 4.61235 22.4644 3.09398 23.2241C0.206541 24.6689 0.122354 24.7222 0.0342911 25.1624C-0.0703963 25.6858 -0.135709 25.6069 3.03129 28.784C4.65292 30.4108 6.08404 31.7959 6.21154 31.8621C6.50223 32.0129 6.7201 32.0124 7.05566 31.8601C7.31879 31.7406 7.3211 31.7366 8.72766 28.9239C9.50235 27.3749 10.1522 26.1074 10.1718 26.1074C10.1914 26.1074 10.3249 26.1757 10.4685 26.2592C11.6997 26.9747 13.8365 27.609 15.7609 27.8303C16.9704 27.9694 19.3515 27.9253 20.5422 27.7418C22.955 27.3699 24.8465 26.7868 26.8547 25.7956C28.0895 25.1862 29.033 24.5982 29.9163 23.8878C30.8811 23.1118 31.0905 22.7993 30.9806 22.2993C30.9241 22.042 30.4403 21.5231 29.6533 20.8759L29.0078 20.345L29.5563 19.9832C30.6236 19.2792 31.1342 18.5712 31.185 17.7245C31.2186 17.1644 31.1095 16.7666 30.7937 16.2972L30.5881 15.9917L30.7737 15.8152C31.0985 15.5063 31.5217 14.9037 31.7537 14.4199C31.957 13.9959 31.9785 13.9006 31.979 13.4199C31.9798 12.7669 31.831 12.4176 31.3518 11.9474C31.04 11.6413 30.2845 11.2002 29.8154 11.0502L29.5887 10.9777L29.6189 10.3082C29.6451 9.72893 29.6312 9.59112 29.5155 9.28574C29.3267 8.78743 28.9686 8.40743 28.4373 8.14168C28.1935 8.01968 27.9573 7.91993 27.9125 7.91993C27.7698 7.91993 27.758 7.81612 27.8571 7.42962C28.0952 6.50012 28.0813 5.5203 27.8215 4.93174C27.59 4.40693 27.04 3.94949 26.455 3.79518C26.0645 3.69218 25.126 3.70755 24.5508 3.82636C24.281 3.88211 24.0526 3.91893 24.0432 3.90818C24.0337 3.89743 23.9499 3.73737 23.857 3.55237C23.385 2.61299 22.5032 2.20924 21.3147 2.38836L21.0246 2.43205L20.9476 2.19161C20.6735 1.33561 20.0082 0.453115 19.4261 0.17324C19.0137 -0.0250103 18.4062 -0.0565728 17.9484 0.0964897ZM18.7427 1.99805C18.9163 2.18786 19.0717 2.50405 19.2015 2.93136L19.3094 3.28655L18.9816 3.50418C18.8013 3.62393 18.5021 3.84505 18.3167 3.99568C17.8191 4.39987 17.8333 4.39674 17.7215 4.12755C17.667 3.99618 17.5147 3.67243 17.3832 3.40812L17.1439 2.92749L17.5653 2.52999C17.9158 2.19936 18.4303 1.85768 18.5782 1.85749C18.5979 1.85743 18.672 1.92068 18.7427 1.99805ZM14.6696 2.77099C15.0681 3.03211 15.7322 4.15736 16.1315 5.24824L16.3317 5.7953L15.9368 6.24824C15.7196 6.49737 15.355 6.94024 15.1265 7.23243C14.7623 7.69818 14.5548 7.90274 14.2818 8.06499C14.2333 8.0938 14.1623 7.96655 14.07 7.68599C13.8477 7.00955 13.5902 6.37855 13.2165 5.59393L12.8677 4.86168L13.0373 4.46893C13.4053 3.6163 14.1198 2.66993 14.3955 2.66993C14.4613 2.66993 14.5847 2.71543 14.6696 2.77099ZM9.64266 3.49805C9.70898 3.57537 9.96973 3.91993 10.2221 4.26368C11.5865 6.12224 12.4285 8.18218 12.8023 10.5762C12.9356 11.4296 12.9528 13.4959 12.8338 14.3574C12.6293 15.8379 12.162 17.4067 11.5361 18.7139L11.2008 19.4141L10.6754 19.7601C9.97979 20.2181 9.14798 20.8664 8.58666 21.3879C8.33616 21.6206 8.12148 21.8004 8.1096 21.7874C7.9846 21.65 7.45298 20.7476 7.20866 20.258C6.58898 19.0162 6.19016 17.5942 6.01029 15.9851C5.92585 15.2292 5.92704 13.2392 6.01241 12.4417C6.28885 9.85924 7.11729 7.2328 8.31079 5.15468C8.68385 4.50512 9.44366 3.35774 9.50091 3.35749C9.5126 3.35749 9.57641 3.42074 9.64266 3.49805ZM22.2297 4.51368C22.3415 4.73749 22.3538 4.87837 22.3462 5.85743C22.3398 6.66968 22.3077 7.08605 22.2212 7.47524L22.1047 7.9993L21.4172 7.98974C20.931 7.98299 20.5887 8.01437 20.2482 8.09699L19.7667 8.21387L19.6999 8.02005C19.5168 7.48887 18.9535 6.91462 18.4328 6.72855C18.3039 6.68249 18.2005 6.62937 18.2031 6.61049C18.212 6.54437 19.2968 5.6033 19.7609 5.25899C20.6406 4.60637 21.437 4.22187 21.8547 4.24799C22.0778 4.26199 22.1181 4.29055 22.2297 4.51368ZM26.079 5.70799C26.1875 5.83874 26.1124 6.7463 25.9502 7.26449L25.813 7.70274L24.9598 7.80712C24.4905 7.86449 24.0963 7.90118 24.0837 7.88855C24.071 7.87593 24.0927 7.67393 24.1317 7.43962C24.1707 7.20537 24.2228 6.74937 24.2474 6.4263L24.2922 5.83893L24.5912 5.75193C25.2441 5.56193 25.9407 5.5413 26.079 5.70799ZM17.9675 8.7793C18.0897 9.04368 18.1045 9.17887 18.1034 10.0137C18.1022 10.9152 18.0587 11.2991 17.8472 12.2761L17.7498 12.7259L17.3335 12.8628C16.5051 13.1352 15.617 13.5942 14.9832 14.0777L14.7922 14.2234L14.7874 12.6186C14.7848 11.7359 14.7524 10.8309 14.7154 10.6074C14.6377 10.1383 14.5644 10.2395 15.4797 9.55105C16.3987 8.8598 17.1373 8.48674 17.5925 8.48393C17.8159 8.48249 17.8388 8.50055 17.9675 8.7793ZM27.4797 9.76505C27.6958 9.87193 27.7323 9.91999 27.7489 10.1203C27.7976 10.7064 26.9548 12.1017 25.815 13.3223L25.363 13.8062L25.2651 13.5594C25.0225 12.9479 24.426 12.4099 23.795 12.2332C23.5233 12.1571 23.502 12.1372 23.534 11.9883C23.5531 11.8991 23.6115 11.6293 23.6637 11.3887C23.716 11.1481 23.7592 10.7222 23.7598 10.4423C23.7611 9.85137 23.6625 9.92168 24.7609 9.72818C25.6766 9.56687 27.1184 9.58643 27.4797 9.76505ZM21.8238 9.95162C21.9382 10.0895 21.8735 10.9162 21.7037 11.4848L21.563 11.956L20.7145 12.0634C20.2477 12.1224 19.8521 12.1569 19.8353 12.1401C19.8185 12.1234 19.8374 11.9118 19.8773 11.6701C19.9172 11.4283 19.9678 10.9774 19.9898 10.668L20.0298 10.1054L20.3485 10.0166C20.838 9.88018 20.888 9.87243 21.3314 9.86468C21.631 9.85943 21.7672 9.88349 21.8238 9.95162ZM29.6672 13.0284C29.8047 13.0989 29.9687 13.2136 30.0317 13.2832C30.1428 13.4061 30.1425 13.4181 30.0237 13.6869C29.9562 13.8393 29.7135 14.1629 29.4842 14.4059L29.0673 14.8478L28.3673 14.5083C27.9822 14.3216 27.6759 14.1357 27.6867 14.0953C27.6973 14.0549 27.8122 13.8934 27.9418 13.7365C28.0715 13.5796 28.2978 13.2789 28.4448 13.0684L28.712 12.6855L29.0646 12.7928C29.2585 12.8519 29.5297 12.9579 29.6672 13.0284ZM23.222 14.0327L23.5268 14.1699L23.4977 14.4736C23.445 15.0209 22.7834 16.1842 22.0516 17.0159L21.7747 17.3306L21.1272 17.255C19.1775 17.0276 16.9602 17.2315 14.8321 17.8339C14.6924 17.8734 14.6868 17.8642 14.7287 17.6634C14.8003 17.3195 15.171 16.6035 15.4773 16.2173C16.0349 15.5143 16.8106 15.0336 18.1047 14.5889C19.5153 14.1042 20.9117 13.8567 22.1047 13.8797C22.7851 13.8929 22.9667 13.9177 23.222 14.0327ZM26.8105 15.8965C28.2332 16.4278 29.3234 17.1565 29.3234 17.5762C29.3234 17.7757 29.0672 18.0411 28.5238 18.4043C28.2245 18.6044 27.7888 18.8491 27.5555 18.9481L27.1313 19.1282L26.3992 18.7762C25.6325 18.4077 25.0153 18.1561 24.3078 17.9234C24.0758 17.8472 23.8859 17.77 23.8859 17.7519C23.8859 17.647 24.3355 17.1829 24.7202 16.8907C24.966 16.704 25.3922 16.3536 25.6672 16.1121C25.9422 15.8706 26.1754 15.6722 26.1855 15.6714C26.1956 15.6706 26.4768 15.7719 26.8105 15.8965ZM20.7074 19.1086C23.0202 19.3361 25.2232 20.1026 27.1359 21.3454C27.5405 21.6082 28.6313 22.4372 28.6321 22.4824C28.634 22.5975 27.0732 23.578 26.1459 24.0443C23.614 25.3176 21.0641 25.9532 18.1984 26.0256C16.2411 26.075 14.7362 25.8745 13.1359 25.3511C11.9449 24.9615 10.419 24.1246 9.65016 23.4392L9.38323 23.2012L9.97766 22.6743C11.9724 20.9064 14.2471 19.781 16.8032 19.2975C18.0876 19.0546 19.4753 18.9874 20.7074 19.1086ZM7.75629 24.2349L8.57129 25.0499L7.47841 27.2349C6.87735 28.4367 6.37841 29.4199 6.36973 29.4199C6.36104 29.4199 5.49879 28.5644 4.4536 27.5189L2.55335 25.6178L4.73523 24.5222C5.93529 23.9197 6.9226 23.4252 6.92923 23.4233C6.93591 23.4214 7.3081 23.7867 7.75629 24.2349Z"/>
		</symbol>

		<symbol viewBox="0 0 32 22" id="ic-delivery">
			<path fill-rule="evenodd" clip-rule="evenodd" d="M3.70957 0.321188C3.31319 0.574938 3.29213 0.67425 3.27044 2.39063L3.25082 3.9375L2.77044 3.93775C2.40457 3.93794 2.24238 3.967 2.09025 4.05975C1.51882 4.40819 1.49232 5.18025 2.0375 5.59607C2.23275 5.745 2.34107 5.77544 2.76288 5.79988L3.25875 5.82857V6.758V7.6875H2.11175C1.02332 7.6875 0.95388 7.69475 0.75238 7.82938C0.18163 8.21063 0.19613 8.96407 0.78263 9.40238C0.939442 9.51957 1.05932 9.53313 2.10532 9.55182L3.2555 9.57238L3.27275 13.9893L3.29 18.4063L3.42707 18.625C3.66857 19.0104 3.73357 19.0281 5.03113 19.0625L6.20969 19.0938L6.36044 19.4688C6.78438 20.5231 7.83438 21.4262 8.975 21.7174C9.45219 21.8393 10.3766 21.8394 10.855 21.7178C11.9521 21.4389 12.896 20.6742 13.3803 19.6719L13.6444 19.125H18.0976H22.5508L22.8201 19.6719C23.3126 20.6718 24.265 21.442 25.35 21.7178C25.8273 21.8391 26.7516 21.8393 27.23 21.7182C28.3871 21.4253 29.5119 20.4291 29.8866 19.3653L29.9671 19.1368L30.7848 19.1153C31.6806 19.0917 31.8939 19.0221 32.1584 18.6673C32.2879 18.4938 32.2903 18.4356 32.3089 15.0423C32.3222 12.6271 32.3069 11.5218 32.2578 11.3536C32.2016 11.1608 31.6266 10.5349 29.3457 8.18388C27.0046 5.77075 26.4628 5.24313 26.2718 5.19006C26.1385 5.15306 25.3029 5.12556 24.3056 5.12538L22.5713 5.125L22.5711 3.01563C22.5711 0.662 22.563 0.611875 22.1401 0.329375L21.9278 0.1875L12.9214 0.188562L3.915 0.189625L3.70957 0.321188ZM20.6809 9.64063L20.665 17.2188H17.2H13.7349L13.6317 16.871C13.2621 15.6261 12.1485 14.5446 10.906 14.2241C10.3401 14.0781 9.37775 14.0928 8.84344 14.2555C7.59763 14.6351 6.56632 15.6495 6.228 16.8281L6.12488 17.1875H5.62932H5.13375V13.3776V9.56769L7.71188 9.54951C10.5883 9.52913 10.5486 9.535 10.8226 9.0915C10.9349 8.90988 10.9557 8.80232 10.9326 8.523C10.9081 8.22838 10.8708 8.14532 10.6741 7.94863L10.4443 7.71875L7.80463 7.6875L5.165 7.65625L5.14769 6.73675L5.13044 5.81719L8.05394 5.79925C11.3154 5.77919 11.2329 5.79013 11.5101 5.3415C11.7566 4.94281 11.6191 4.31638 11.2275 4.05288C11.1288 3.9865 10.477 3.96219 8.13375 3.9375L5.165 3.90625L5.14769 2.98438L5.13044 2.0625H12.9136H20.6968L20.6809 9.64063ZM26.812 8.26563C27.4859 8.96169 28.2891 9.79138 28.597 10.1094L29.1568 10.6875H25.864H22.5713V8.84375V7H24.079H25.5868L26.812 8.26563ZM30.4463 14.9104V17.2583L30.2778 17.2385C30.1281 17.2209 30.0898 17.1628 29.9344 16.7188C29.5011 15.4804 28.4809 14.5377 27.23 14.2197C26.7579 14.0997 25.7694 14.0988 25.3213 14.2178C24.2657 14.4984 23.3144 15.2716 22.8316 16.2416L22.5713 16.7645V14.6635V12.5625H26.5088H30.4463V14.9104ZM10.8724 16.2184C12.0536 16.8619 12.264 18.4564 11.2925 19.4006C10.7778 19.9008 9.93938 20.076 9.223 19.8331C8.78357 19.684 8.192 19.0836 8.0435 18.6359C7.89319 18.1829 7.92882 17.5116 8.12444 17.1107C8.32013 16.7096 8.77288 16.2783 9.15882 16.1254C9.64619 15.9324 10.4249 15.9746 10.8724 16.2184ZM27.1459 16.1764C28.0343 16.6121 28.4543 17.6079 28.1668 18.5968C28.029 19.0708 27.4509 19.674 26.982 19.8331C26.0026 20.1652 24.9475 19.7444 24.5048 18.8451C23.9746 17.7681 24.4829 16.5055 25.6152 16.0871C25.9816 15.9517 26.783 15.9984 27.1459 16.1764Z"/>
		</symbol>

		<symbol viewBox="0 0 32 32" id="ic-sale">
			<path class="st0" d="M18.2,0.7c-2.9,0.4-4.7,0.7-4.8,0.8c-0.1,0.1-2.9,2.8-6.2,6.1c-5.5,5.5-6,6-6.2,6.4c-0.5,1.1-0.5,2.2,0,3.2
			c0.2,0.4,0.6,0.8,5.3,5.5c2.8,2.8,5.2,5.2,5.4,5.3l0.3,0.2l0,0.5c0.1,1.5,1,2.6,2.3,3.1l0.4,0.1h7.5h7.5l0.4-0.1
			c1-0.4,1.8-1.1,2.2-2.2l0.1-0.4l0-8.6c0-7.9,0-8.7-0.1-8.8c-0.1-0.1-0.8-1.1-1.7-2.3c-0.9-1.2-1.6-2.1-1.6-2.2c0,0,0-0.3,0-0.6
			c0.1-0.8,0.1-0.9-1.2-2.1l-1-1l1-1c1.3-1.3,1.4-1.5,1.1-2C29,0.1,28.5-0.1,28,0.1c-0.1,0.1-0.7,0.6-1.2,1.1l-1,1l-1.1-1.1
			c-0.6-0.6-1.1-1.1-1.2-1.1C23.4,0,23.2,0,23,0C22.9,0,20.7,0.3,18.2,0.7z M23.6,2.8l0.8,0.8l-0.7,0.7l-0.7,0.7l-0.4-0.4
			C22.2,4.1,22.1,4,21.8,4c-0.7,0-1.1,0.7-0.8,1.3c0.1,0.3,2.6,2.8,3,3c0.7,0.5,1.6-0.1,1.4-1c0-0.2-0.2-0.3-0.5-0.7l-0.4-0.4l0.7-0.7
			l0.7-0.7l0.8,0.8l0.8,0.8l-0.6,4.2l-0.6,4.2l-5.7,5.7c-3.4,3.4-5.8,5.8-6,5.9c-0.3,0.2-1,0.2-1.3,0C12.9,26.5,2.9,16.5,2.7,16.2
			c-0.2-0.3-0.2-1,0-1.4c0.1-0.2,2-2.1,5.8-6l5.7-5.7l4.2-0.6c2.3-0.3,4.2-0.6,4.3-0.6C22.7,1.9,23.1,2.3,23.6,2.8z M16.6,7.1
			c-0.1,0-0.3,0.2-0.4,0.3c-0.1,0.1-0.7,1.9-2.4,7c-2.4,7.3-2.3,6.9-2.1,7.4c0.3,0.5,1.2,0.5,1.5,0c0.1-0.2,4.6-13.6,4.6-13.8
			c0-0.3-0.2-0.7-0.5-0.8C17,7,16.8,7,16.6,7.1z M30.8,20.6c0,9.2,0,8.5-0.5,9c-0.5,0.5,0,0.5-8,0.5c-8,0-7.5,0-8-0.5
			c-0.2-0.2-0.5-0.7-0.5-0.9c0,0,0.1-0.1,0.3-0.1c0.5-0.1,0.9-0.2,1.3-0.4c0.3-0.2,1.2-1,6.4-6.2c4.8-4.8,6-6,6.1-6.2
			c0-0.1,0.3-1.5,0.5-3c0.2-1.5,0.4-2.8,0.4-2.8c0,0,0.4,0.5,1,1.2l1,1.3V20.6z M8.9,11.9c-1,0.2-1.9,1-2.2,2c-0.3,1,0,2,0.8,2.8
			c0.7,0.7,1.7,0.9,2.6,0.7c1.4-0.4,2.3-1.8,2-3.2C11.9,12.6,10.4,11.6,8.9,11.9z M19.4,11.9c-0.8,0.2-1.5,0.8-1.9,1.5
			c-0.2,0.4-0.2,0.5-0.3,1.1c0,0.5,0,0.7,0.1,1c0.6,2,3.2,2.6,4.6,1.1c1.1-1.1,1.1-2.8,0-3.9C21.3,12,20.3,11.7,19.4,11.9z M9.9,13.9
			c0.4,0.3,0.5,0.8,0.3,1.2c-0.3,0.6-1.2,0.7-1.6,0.1c-0.2-0.2-0.2-0.7-0.1-1C8.8,13.7,9.5,13.6,9.9,13.9z M20.5,13.9
			c0.2,0.2,0.4,0.5,0.4,0.8c0,0.7-0.8,1.1-1.4,0.8c-0.6-0.3-0.6-1.2-0.1-1.6c0.1-0.1,0.2-0.1,0.3-0.2C20,13.7,20.4,13.7,20.5,13.9z"/>
		</symbol>

		<symbol viewBox="0 0 10 20" id="ic-fb">
			<path d="M7.86001 3.8771H9.58334V0.962101C8.74894 0.875336 7.91057 0.832499 7.07167 0.833768C4.57834 0.833768 2.87334 2.35543 2.87334 5.1421V7.54377H0.0591736V10.8071H2.87334V19.1671H6.24667V10.8071H9.05167L9.47334 7.54377H6.24667V5.46293C6.24667 4.50043 6.50334 3.8771 7.86001 3.8771Z"/>
		</symbol>

		<symbol viewBox="0 0 22 14" id="ic-vk">
			<path d="M18.2561 7.94251C17.9004 7.49333 18.0021 7.29349 18.2561 6.89197C18.2606 6.88739 21.1968 2.83008 21.4993 1.45412L21.5012 1.4532C21.6515 0.951765 21.5012 0.583252 20.7742 0.583252H18.3688C17.7564 0.583252 17.4741 0.899513 17.3228 1.25336C17.3228 1.25336 16.0981 4.18496 14.3656 6.08528C13.8064 6.63438 13.5479 6.81039 13.2426 6.81039C13.0923 6.81039 12.8585 6.63438 12.8585 6.13295V1.4532C12.8585 0.851845 12.6871 0.583252 12.1802 0.583252H8.39787C8.01378 0.583252 7.78552 0.863762 7.78552 1.12502C7.78552 1.69521 8.6518 1.8263 8.74164 3.43052V6.91122C8.74164 7.67392 8.60322 7.81417 8.29612 7.81417C7.47843 7.81417 5.49377 4.87065 4.31765 1.50178C4.08022 0.848178 3.8483 0.584169 3.23136 0.584169H0.825029C0.138421 0.584169 0 0.90043 0 1.25428C0 1.87946 0.817695 4.98799 3.80246 9.0948C5.7917 11.8981 8.59313 13.417 11.1416 13.417C12.6734 13.417 12.8604 13.0797 12.8604 12.4994C12.8604 9.82083 12.7219 9.56782 13.4892 9.56782C13.8449 9.56782 14.4573 9.74382 15.8873 11.096C17.5218 12.6993 17.7904 13.417 18.7052 13.417H21.1106C21.7963 13.417 22.1438 13.0797 21.9439 12.4142C21.4865 11.0144 18.3954 8.13502 18.2561 7.94251Z"/>
		</symbol>

		<symbol viewBox="0 0 22 22" id="ic-instagram">
			<path d="M11.0039 5.35088C7.88448 5.35088 5.35907 7.87905 5.35907 10.9957C5.35907 14.1151 7.88723 16.6405 11.0039 16.6405C14.1233 16.6405 16.6487 14.1124 16.6487 10.9957C16.6487 7.8763 14.1206 5.35088 11.0039 5.35088ZM11.0039 14.6596C8.97898 14.6596 7.33999 13.0197 7.33999 10.9957C7.33999 8.97171 8.9799 7.3318 11.0039 7.3318C13.0279 7.3318 14.6678 8.97171 14.6678 10.9957C14.6687 13.0197 13.0288 14.6596 11.0039 14.6596Z"/>
			<path d="M15.5359 0.0691045C13.5119 -0.0253123 8.49863 -0.0207289 6.47279 0.0691045C4.69263 0.152521 3.12238 0.582438 1.85646 1.84836C-0.259208 3.96402 0.0112083 6.81486 0.0112083 10.9958C0.0112083 15.2748 -0.227125 18.0596 1.85646 20.1432C3.98038 22.2662 6.87246 21.9885 11.0039 21.9885C15.2425 21.9885 16.7055 21.9912 18.2043 21.411C20.242 20.6199 21.7802 18.7985 21.9305 15.5269C22.0259 13.5019 22.0204 8.48961 21.9305 6.46378C21.7491 2.60186 19.6765 0.259771 15.5359 0.0691045ZM18.7396 18.7435C17.3527 20.1304 15.4286 20.0066 10.9773 20.0066C6.39396 20.0066 4.55604 20.0745 3.21496 18.7297C1.67038 17.1925 1.94996 14.7239 1.94996 10.9811C1.94996 5.91653 1.43021 2.26911 6.51313 2.00877C7.68096 1.96752 8.02471 1.95377 10.9645 1.95377L11.0057 1.98127C15.8906 1.98127 19.7232 1.46977 19.9533 6.55178C20.0055 7.71136 20.0175 8.05969 20.0175 10.9949C20.0165 15.525 20.1027 17.374 18.7396 18.7435Z"/>
			<path d="M16.8724 6.44722C17.6009 6.44722 18.1915 5.85665 18.1915 5.12814C18.1915 4.39962 17.6009 3.80905 16.8724 3.80905C16.1439 3.80905 15.5533 4.39962 15.5533 5.12814C15.5533 5.85665 16.1439 6.44722 16.8724 6.44722Z"/>
		</symbol>

		<symbol viewBox="0 0 16 20" id="ic-lock">
			<path d="M8 11C7.69555 10.9964 7.39732 11.0862 7.14544 11.2573C6.89357 11.4284 6.70015 11.6725 6.59121 11.9568C6.48228 12.2411 6.46306 12.552 6.53615 12.8476C6.60923 13.1431 6.77111 13.4092 7 13.61V15C7 15.2652 7.10536 15.5196 7.29289 15.7071C7.48043 15.8946 7.73478 16 8 16C8.26522 16 8.51957 15.8946 8.70711 15.7071C8.89464 15.5196 9 15.2652 9 15V13.61C9.22889 13.4092 9.39077 13.1431 9.46385 12.8476C9.53694 12.552 9.51772 12.2411 9.40879 11.9568C9.29985 11.6725 9.10643 11.4284 8.85456 11.2573C8.60268 11.0862 8.30445 10.9964 8 11ZM13 7V5C13 3.67392 12.4732 2.40215 11.5355 1.46447C10.5979 0.526784 9.32608 0 8 0C6.67392 0 5.40215 0.526784 4.46447 1.46447C3.52678 2.40215 3 3.67392 3 5V7C2.20435 7 1.44129 7.31607 0.87868 7.87868C0.316071 8.44129 0 9.20435 0 10V17C0 17.7956 0.316071 18.5587 0.87868 19.1213C1.44129 19.6839 2.20435 20 3 20H13C13.7956 20 14.5587 19.6839 15.1213 19.1213C15.6839 18.5587 16 17.7956 16 17V10C16 9.20435 15.6839 8.44129 15.1213 7.87868C14.5587 7.31607 13.7956 7 13 7ZM5 5C5 4.20435 5.31607 3.44129 5.87868 2.87868C6.44129 2.31607 7.20435 2 8 2C8.79565 2 9.55871 2.31607 10.1213 2.87868C10.6839 3.44129 11 4.20435 11 5V7H5V5ZM14 17C14 17.2652 13.8946 17.5196 13.7071 17.7071C13.5196 17.8946 13.2652 18 13 18H3C2.73478 18 2.48043 17.8946 2.29289 17.7071C2.10536 17.5196 2 17.2652 2 17V10C2 9.73478 2.10536 9.48043 2.29289 9.29289C2.48043 9.10536 2.73478 9 3 9H13C13.2652 9 13.5196 9.10536 13.7071 9.29289C13.8946 9.48043 14 9.73478 14 10V17Z"/>
		</symbol>

		<symbol viewBox="0 0 20 20" id="ic-mobile">
			<path d="M7.88008 12.12L7.73008 12L7.55008 11.9L7.37008 11.85C7.20942 11.8178 7.04333 11.8256 6.88639 11.8727C6.72946 11.9198 6.5865 12.0047 6.47008 12.12C6.37116 12.2106 6.29567 12.3238 6.25008 12.45C6.19718 12.5697 6.16985 12.6991 6.16985 12.83C6.16985 12.9609 6.19718 13.0903 6.25008 13.21C6.35753 13.4503 6.54979 13.6426 6.79008 13.75C6.9103 13.8012 7.0394 13.8284 7.17008 13.83C7.30389 13.8275 7.43609 13.8004 7.56008 13.75C7.68196 13.7017 7.79135 13.6265 7.88008 13.53C7.97362 13.4387 8.04836 13.33 8.10008 13.21C8.1479 13.0891 8.17167 12.96 8.17008 12.83C8.17346 12.6988 8.14606 12.5687 8.09008 12.45C8.04427 12.3264 7.97268 12.2139 7.88008 12.12ZM1.51008 6.76C1.64239 6.75945 1.77327 6.73266 1.89515 6.68116C2.01702 6.62966 2.12747 6.55449 2.22008 6.46L6.46008 2.22C6.64633 2.03264 6.75087 1.77919 6.75087 1.515C6.75087 1.25082 6.64633 0.997366 6.46008 0.810004C6.27272 0.623753 6.01927 0.519211 5.75508 0.519211C5.49089 0.519211 5.23744 0.623753 5.05008 0.810004L0.81008 5.05C0.623829 5.23737 0.519287 5.49082 0.519287 5.755C0.519287 6.01919 0.623829 6.27264 0.81008 6.46C0.99471 6.64842 1.24631 6.75625 1.51008 6.76ZM19.1901 13.54C19.0027 13.3538 18.7493 13.2492 18.4851 13.2492C18.2209 13.2492 17.9674 13.3538 17.7801 13.54L13.5401 17.78C13.3997 17.9193 13.3037 18.0971 13.2643 18.2909C13.2249 18.4847 13.2439 18.6858 13.3188 18.8689C13.3937 19.0519 13.5213 19.2086 13.6852 19.3192C13.8492 19.4297 14.0423 19.4892 14.2401 19.49C14.3724 19.4895 14.5033 19.4627 14.6251 19.4112C14.747 19.3597 14.8575 19.2845 14.9501 19.19L19.1901 15C19.29 14.9065 19.3696 14.7934 19.4241 14.6678C19.4785 14.5423 19.5066 14.4069 19.5066 14.27C19.5066 14.1331 19.4785 13.9977 19.4241 13.8722C19.3696 13.7466 19.29 13.6335 19.1901 13.54ZM19.3601 7.88C19.362 7.08606 19.0492 6.32371 18.4901 5.76L14.2401 1.51C13.6678 0.966996 12.909 0.664282 12.1201 0.664282C11.3312 0.664282 10.5724 0.966996 10.0001 1.51L1.51008 10C0.948278 10.5625 0.63272 11.325 0.63272 12.12C0.63272 12.915 0.948278 13.6775 1.51008 14.24L5.76008 18.49C6.32258 19.0518 7.08508 19.3674 7.88008 19.3674C8.67508 19.3674 9.43758 19.0518 10.0001 18.49L18.4901 10C19.0492 9.4363 19.362 8.67395 19.3601 7.88ZM17.0701 8.59L8.59008 17.07C8.49712 17.1637 8.38652 17.2381 8.26466 17.2889C8.1428 17.3397 8.01209 17.3658 7.88008 17.3658C7.74807 17.3658 7.61736 17.3397 7.4955 17.2889C7.37364 17.2381 7.26304 17.1637 7.17008 17.07L2.93008 12.83C2.83635 12.737 2.76196 12.6264 2.71119 12.5046C2.66042 12.3827 2.63428 12.252 2.63428 12.12C2.63428 11.988 2.66042 11.8573 2.71119 11.7354C2.76196 11.6136 2.83635 11.503 2.93008 11.41L11.4101 2.93C11.503 2.83627 11.6136 2.76188 11.7355 2.71111C11.8574 2.66034 11.9881 2.63421 12.1201 2.63421C12.2521 2.63421 12.3828 2.66034 12.5047 2.71111C12.6265 2.76188 12.7371 2.83627 12.8301 2.93L17.0701 7.17C17.1638 7.26297 17.2382 7.37357 17.289 7.49543C17.3397 7.61729 17.3659 7.74799 17.3659 7.88C17.3659 8.01202 17.3397 8.14272 17.289 8.26458C17.2382 8.38644 17.1638 8.49704 17.0701 8.59Z"/>
		</symbol>

		<symbol viewBox="0 0 16 16" id="ic-star">
			<path d="M8 0L10.3511 4.76393L15.6085 5.52786L11.8042 9.23607L12.7023 14.4721L8 12L3.29772 14.4721L4.19577 9.23607L0.391548 5.52786L5.64886 4.76393L8 0Z"/>
		</symbol>
	</defs>
</svg>