<svg xmlns="http://www.w3.org/2000/svg" xmlns:xlink="http://www.w3.org/1999/xlink">
	<defs>
		<symbol viewBox="0 0 21 21" id="ic-cart">
			<path d="M19 14H5C4.73478 14 4.48043 13.8946 4.29289 13.7071C4.10536 13.5196 4 13.2652 4 13C4 12.7348 4.10536 12.4804 4.29289 12.2929C4.48043 12.1054 4.73478 12 5 12H15.44C16.1087 12 16.7582 11.7767 17.2854 11.3654C17.8126 10.9542 18.1873 10.3786 18.35 9.73L20 3.24C20.0375 3.09241 20.0407 2.93821 20.0095 2.78917C19.9783 2.64013 19.9135 2.50018 19.82 2.38C19.7227 2.25673 19.5978 2.1581 19.4554 2.09208C19.3129 2.02606 19.1569 1.99452 19 2H4.76C4.55369 1.41645 4.17193 0.910998 3.66707 0.552938C3.1622 0.194879 2.55894 0.00173951 1.94 0H1C0.734784 0 0.48043 0.105357 0.292893 0.292893C0.105357 0.48043 0 0.734784 0 1C0 1.26522 0.105357 1.51957 0.292893 1.70711C0.48043 1.89464 0.734784 2 1 2H1.94C2.16843 1.99334 2.39226 2.06513 2.57421 2.20341C2.75615 2.34169 2.88525 2.53812 2.94 2.76L3 3.24L4.73 10C3.93435 10.0358 3.18551 10.3862 2.64822 10.9741C2.11093 11.5621 1.8292 12.3394 1.865 13.135C1.9008 13.9306 2.25121 14.6795 2.83914 15.2168C3.42707 15.7541 4.20435 16.0358 5 16H5.18C5.01554 16.4531 4.96269 16.9392 5.02593 17.4171C5.08917 17.895 5.26665 18.3506 5.54332 18.7454C5.81999 19.1401 6.18772 19.4624 6.61535 19.6849C7.04299 19.9074 7.51795 20.0235 8 20.0235C8.48205 20.0235 8.95701 19.9074 9.38465 19.6849C9.81228 19.4624 10.18 19.1401 10.4567 18.7454C10.7334 18.3506 10.9108 17.895 10.9741 17.4171C11.0373 16.9392 10.9845 16.4531 10.82 16H13.18C13.0155 16.4531 12.9627 16.9392 13.0259 17.4171C13.0892 17.895 13.2666 18.3506 13.5433 18.7454C13.82 19.1401 14.1877 19.4624 14.6154 19.6849C15.043 19.9074 15.5179 20.0235 16 20.0235C16.4821 20.0235 16.957 19.9074 17.3846 19.6849C17.8123 19.4624 18.18 19.1401 18.4567 18.7454C18.7334 18.3506 18.9108 17.895 18.9741 17.4171C19.0373 16.9392 18.9845 16.4531 18.82 16H19C19.2652 16 19.5196 15.8946 19.7071 15.7071C19.8946 15.5196 20 15.2652 20 15C20 14.7348 19.8946 14.4804 19.7071 14.2929C19.5196 14.1054 19.2652 14 19 14ZM17.72 4L16.41 9.24C16.3552 9.46188 16.2262 9.65831 16.0442 9.79659C15.8623 9.93487 15.6384 10.0067 15.41 10H6.78L5.28 4H17.72ZM8 18C7.80222 18 7.60888 17.9414 7.44443 17.8315C7.27998 17.7216 7.15181 17.5654 7.07612 17.3827C7.00043 17.2 6.98063 16.9989 7.01921 16.8049C7.0578 16.6109 7.15304 16.4327 7.29289 16.2929C7.43275 16.153 7.61093 16.0578 7.80491 16.0192C7.99889 15.9806 8.19996 16.0004 8.38268 16.0761C8.56541 16.1518 8.72159 16.28 8.83147 16.4444C8.94135 16.6089 9 16.8022 9 17C9 17.2652 8.89464 17.5196 8.70711 17.7071C8.51957 17.8946 8.26522 18 8 18ZM16 18C15.8022 18 15.6089 17.9414 15.4444 17.8315C15.28 17.7216 15.1518 17.5654 15.0761 17.3827C15.0004 17.2 14.9806 16.9989 15.0192 16.8049C15.0578 16.6109 15.153 16.4327 15.2929 16.2929C15.4327 16.153 15.6109 16.0578 15.8049 16.0192C15.9989 15.9806 16.2 16.0004 16.3827 16.0761C16.5654 16.1518 16.7216 16.28 16.8315 16.4444C16.9414 16.6089 17 16.8022 17 17C17 17.2652 16.8946 17.5196 16.7071 17.7071C16.5196 17.8946 16.2652 18 16 18Z"/>
		</symbol>

		<symbol viewBox="0 0 16 16" id="ic-search">
			<path d="M15.2825 14.7175L12.5001 11.9575C13.5801 10.6108 14.1032 8.90146 13.9617 7.18096C13.8201 5.46047 13.0248 3.85958 11.7392 2.70747C10.4536 1.55537 8.77541 0.939622 7.04974 0.986842C5.32408 1.03406 3.68209 1.74066 2.46141 2.96135C1.24072 4.18203 0.534124 5.82402 0.486903 7.54968C0.439683 9.27534 1.05543 10.9535 2.20753 12.2391C3.35964 13.5247 4.96053 14.3201 6.68103 14.4616C8.40152 14.6031 10.1109 14.0801 11.4576 13L14.2176 15.76C14.2873 15.8303 14.3702 15.8861 14.4616 15.9242C14.553 15.9622 14.651 15.9818 14.7501 15.9818C14.8491 15.9818 14.9471 15.9622 15.0385 15.9242C15.1299 15.8861 15.2128 15.8303 15.2825 15.76C15.4177 15.6201 15.4933 15.4332 15.4933 15.2387C15.4933 15.0442 15.4177 14.8573 15.2825 14.7175ZM7.25005 13C6.2117 13 5.19666 12.6921 4.33331 12.1152C3.46995 11.5383 2.79704 10.7184 2.39968 9.75908C2.00232 8.79977 1.89836 7.74417 2.10093 6.72577C2.3035 5.70737 2.80351 4.7719 3.53774 4.03768C4.27197 3.30345 5.20743 2.80344 6.22583 2.60087C7.24423 2.39829 8.29983 2.50226 9.25914 2.89962C10.2185 3.29698 11.0384 3.96989 11.6153 4.83325C12.1921 5.6966 12.5001 6.71164 12.5001 7.74999C12.5001 9.14238 11.9469 10.4777 10.9624 11.4623C9.97779 12.4469 8.64244 13 7.25005 13Z" />
		</symbol>

		<symbol viewBox="0 0 12 15" id="ic-lock">
			<path d="M5.99996 8.16666C5.79699 8.16429 5.59817 8.22415 5.43025 8.3382C5.26234 8.45224 5.13339 8.61499 5.06077 8.80453C4.98815 8.99408 4.97533 9.20132 5.02406 9.39837C5.07278 9.59542 5.1807 9.77281 5.33329 9.90666V10.8333C5.33329 11.0101 5.40353 11.1797 5.52855 11.3047C5.65358 11.4298 5.82315 11.5 5.99996 11.5C6.17677 11.5 6.34634 11.4298 6.47136 11.3047C6.59639 11.1797 6.66663 11.0101 6.66663 10.8333V9.90666C6.81922 9.77281 6.92714 9.59542 6.97586 9.39837C7.02458 9.20132 7.01177 8.99408 6.93915 8.80453C6.86653 8.61499 6.73758 8.45224 6.56966 8.3382C6.40175 8.22415 6.20293 8.16429 5.99996 8.16666V8.16666ZM9.33329 5.5V4.16666C9.33329 3.28261 8.9821 2.43476 8.35698 1.80964C7.73186 1.18452 6.88401 0.833328 5.99996 0.833328C5.1159 0.833328 4.26806 1.18452 3.64294 1.80964C3.01782 2.43476 2.66663 3.28261 2.66663 4.16666V5.5C2.13619 5.5 1.62749 5.71071 1.25241 6.08578C0.87734 6.46085 0.666626 6.96956 0.666626 7.5V12.1667C0.666626 12.6971 0.87734 13.2058 1.25241 13.5809C1.62749 13.9559 2.13619 14.1667 2.66663 14.1667H9.33329C9.86373 14.1667 10.3724 13.9559 10.7475 13.5809C11.1226 13.2058 11.3333 12.6971 11.3333 12.1667V7.5C11.3333 6.96956 11.1226 6.46085 10.7475 6.08578C10.3724 5.71071 9.86373 5.5 9.33329 5.5ZM3.99996 4.16666C3.99996 3.63623 4.21067 3.12752 4.58575 2.75245C4.96082 2.37738 5.46953 2.16666 5.99996 2.16666C6.53039 2.16666 7.0391 2.37738 7.41417 2.75245C7.78925 3.12752 7.99996 3.63623 7.99996 4.16666V5.5H3.99996V4.16666ZM9.99996 12.1667C9.99996 12.3435 9.92972 12.513 9.8047 12.6381C9.67967 12.7631 9.5101 12.8333 9.33329 12.8333H2.66663C2.48981 12.8333 2.32025 12.7631 2.19522 12.6381C2.0702 12.513 1.99996 12.3435 1.99996 12.1667V7.5C1.99996 7.32318 2.0702 7.15361 2.19522 7.02859C2.32025 6.90357 2.48981 6.83333 2.66663 6.83333H9.33329C9.5101 6.83333 9.67967 6.90357 9.8047 7.02859C9.92972 7.15361 9.99996 7.32318 9.99996 7.5V12.1667Z"/>
		</symbol>
	</defs>
</svg>