<svg width="220" height="41" viewBox="0 0 220 41" fill="none" xmlns="http://www.w3.org/2000/svg">
<path fill-rule="evenodd" clip-rule="evenodd" d="M199.222 40.6176H181.444C179.788 40.6176 178.444 39.2744 178.444 37.6176V20.3088V3C178.444 1.34315 179.788 0 181.444 0H199.222H217C218.657 0 220 1.34315 220 3V20.3088V37.6176C220 39.2744 218.657 40.6176 217 40.6176H199.222ZM213.572 6.81102C214.507 4.72983 213.705 2.25458 211.81 1.36887C209.237 0.167017 205.537 1.20519 203.014 3.83715C202.277 4.60555 200.169 7.8107 199.923 8.53727C199.869 8.69974 198.113 8.55606 195.775 8.19839C190.574 7.4021 187.348 7.39513 185.602 8.17596C184.123 8.83675 183.354 10.0362 183.881 10.8601C184.372 11.6285 185.216 11.6824 185.216 10.9452C185.216 10.6054 185.528 10.1623 185.909 9.9604C187.211 9.27051 193.117 9.71155 197.232 10.8055C198.196 11.0618 198.804 12.0122 198.634 12.995L198.301 14.9112L197.982 16.7453C197.788 17.8605 196.983 18.7717 195.9 19.1015L195.864 19.1127C193.785 19.7462 193.237 20.1439 193.749 20.648C194.003 20.8984 194.508 20.8893 195.674 20.6137C196.543 20.4085 197.301 20.29 197.359 20.3503C197.416 20.4109 197.293 23.0723 197.086 26.2647C196.631 33.2513 196.196 34.4555 193.198 37.0232C192.194 37.8832 191.373 38.7683 191.373 38.9902C191.373 39.6831 192.9 39.8228 194.623 39.2878C198.201 38.1772 201.87 34.999 203.09 31.9542C203.717 30.3886 203.831 29.4647 203.978 24.704L204.082 21.346C204.121 20.0892 204.95 18.9941 206.148 18.6144C209.416 17.5795 210.873 16.6562 209.796 16.3028C209.602 16.2389 208.597 16.361 207.564 16.5741C204.387 17.23 204.298 17.2015 204.319 15.5347C204.329 14.743 204.435 13.5508 204.555 12.8858C204.689 12.1419 205.222 11.5328 205.942 11.3021L207.786 10.7112C211.301 9.58514 212.77 8.59486 213.572 6.81102ZM206.008 7.82404C206.407 6.56095 208.393 3.87746 209.358 3.2979C210.513 2.60468 211.186 2.57891 211.821 3.20424C213.415 4.77378 210.685 7.64732 206.968 8.31297C205.839 8.51545 205.796 8.49393 206.008 7.82404Z" fill="#9D002C"/>
<path fill-rule="evenodd" clip-rule="evenodd" d="M1.3705 2.45686C0.332444 2.20152 0.0148798 1.0015 0.881037 0.606608C1.15044 0.483539 4.36603 0.468588 8.02722 0.573254C11.6884 0.67792 16.8517 0.7638 19.5011 0.764567L24.3186 0.765716L24.1999 2.77853C24.0981 4.51223 23.963 4.80782 23.2273 4.91057C22.5158 5.00948 22.3521 4.81702 22.2483 3.76039L22.1238 2.49098L14.7818 2.3867L7.43986 2.28242V10.1504V18.0184H12.2417C16.8458 18.0184 17.0592 17.9827 17.43 17.1557C17.6427 16.6815 18.0808 16.2931 18.4039 16.2931C18.8565 16.2931 19.0179 16.8866 19.1071 18.881C19.2125 21.2419 19.1549 21.4689 18.4481 21.4689C18.0221 21.4689 17.5679 21.1426 17.4383 20.7435C17.0557 19.5631 14.8402 19.2874 9.84686 19.7981L7.43986 20.0446V29.5493V39.054L8.51669 39.1755C9.15769 39.2476 9.59351 39.5294 9.59351 39.8717C9.59351 40.3456 8.75045 40.4656 4.79675 40.5545C0.200876 40.6577 0 40.6297 0 39.8836C0 39.274 0.255305 39.1049 1.17472 39.1049H2.34943V20.9011V2.69725L1.3705 2.45686ZM33.3067 2.29929C31.9554 2.29929 31.4565 1.72688 32.123 0.940544C32.5181 0.474722 34.5331 0.382324 44.3161 0.382324H56.0359L55.9172 2.39513C55.8139 4.15184 55.6862 4.42366 54.9136 4.53101C54.1982 4.63031 53.9825 4.42826 53.7879 3.47668L53.5474 2.29929H46.5481H39.5488V10.1588V18.0184H41.6433C42.7953 18.0184 45.0719 18.1288 46.7024 18.2637L49.667 18.5091L49.7962 17.4011C49.8906 16.591 50.1357 16.2931 50.7085 16.2931C51.4028 16.2931 51.505 16.5864 51.6076 18.881C51.7129 21.2419 51.6554 21.4689 50.9486 21.4689C50.5179 21.4689 50.0636 21.1284 49.9254 20.7021C49.6936 19.9875 49.333 19.9353 44.6129 19.9353H39.5488V29.3373V38.7388L46.6871 38.6345L53.8251 38.5299L53.912 37.4172C53.9598 36.8054 54.1685 36.139 54.3756 35.9362C55.1298 35.1978 55.6032 36.1348 55.6032 38.3665V40.65L43.9539 40.5484C32.6003 40.4495 32.3047 40.4273 32.3047 39.68C32.3047 39.1287 32.607 38.8791 33.3815 38.7921L34.4583 38.6706V20.4851V2.29929H33.3067ZM64.903 1.98644C64.1422 1.90056 63.8262 1.64752 63.8262 1.1238C63.8262 0.413762 64.181 0.382708 72.1471 0.386925C77.8237 0.389992 81.0902 0.553702 82.4259 0.902205C93.6127 3.82097 95.4679 16.0274 85.4441 20.76C83.9996 21.4421 82.7532 22.044 82.6745 22.098C82.4838 22.2292 90.2221 34.7013 91.8905 36.9526C92.8511 38.2484 93.4658 38.7215 94.1891 38.7215C95.3129 38.7215 95.9347 39.7774 95.1112 40.2881C94.8105 40.4744 93.3049 40.6293 91.7649 40.6328L88.9651 40.6385L87.039 37.6672C85.9794 36.0332 83.4772 31.8926 81.4786 28.4658L77.8445 22.2357H74.5553H71.2661V30.6703V39.1049H72.2724C73.0916 39.1049 73.2553 39.2652 73.1534 39.9676C73.0321 40.8026 72.8895 40.8302 68.7208 40.8302C64.5976 40.8302 64.4085 40.7945 64.2926 39.9971C64.2017 39.3748 64.3998 39.1325 65.0757 39.0386L65.9798 38.9132V20.5104V2.10759L64.903 1.98644ZM101.817 7.65029C103.406 4.60041 106.235 2.25711 109.971 0.895685C110.925 0.547948 112.708 0.412612 115.318 0.489674C118.68 0.588972 119.538 0.755749 121.387 1.66937C124.293 3.10479 126.6 5.39595 127.82 8.05822C129.948 12.7007 130.082 25.5233 128.069 31.86C127.007 35.2047 124.915 37.5273 121.473 39.1866C118.997 40.3801 118.63 40.4468 114.543 40.4468C110.953 40.4468 109.921 40.308 108.407 39.6229C104.442 37.8282 101.551 33.5511 100.432 27.8252C99.2756 21.9083 100.018 11.1043 101.817 7.65029ZM136.405 2.29929C135.502 2.29929 135.104 1.26528 135.76 0.623094C135.912 0.474721 137.365 0.402645 138.99 0.463604L141.945 0.57402L143.032 2.29929C152.675 17.6051 161.005 30.2781 161.425 30.2831C161.587 30.2854 161.719 23.9897 161.719 16.2931V2.29929H160.728C159.6 2.29929 158.977 1.24457 159.802 0.732745C161.044 -0.0374897 166.222 0.607375 166.222 1.5325C166.222 1.86298 165.731 2.18427 165.048 2.3012L163.873 2.50248V21.3573C163.873 40.9533 163.8 41.8523 162.321 40.6508C161.989 40.3801 161.066 39.1023 160.272 37.8106C159.478 36.5193 156.36 31.6671 153.344 27.0281C150.327 22.389 146.131 15.8449 144.021 12.4852L140.183 6.37705V22.4653V38.5536L141.397 39.0022C143.596 39.815 142.578 40.4368 138.849 40.558C135.477 40.6676 135.427 40.6558 135.552 39.7912C135.644 39.1575 135.979 38.8795 136.756 38.7921L137.833 38.6706L137.831 23.6481C137.83 15.3856 137.715 7.20172 137.577 5.46227C137.339 2.46683 137.277 2.29929 136.405 2.29929ZM125.163 17.7216C124.729 8.75753 123.15 4.65293 119.418 2.78658C113.815 -0.0156355 107.837 2.53967 105.679 8.65899C104.796 11.1648 104.745 11.8097 104.745 20.5104C104.745 29.0328 104.812 29.9181 105.643 32.5071C107.129 37.1385 109.87 39.1161 114.776 39.0965C122.187 39.067 125.832 31.5655 125.163 17.7216ZM86.4501 8.29976C85.7484 6.00669 83.2595 3.65573 80.773 2.93763C79.6484 2.6129 77.0496 2.22644 74.9974 2.07884L71.2661 1.81084V11.3098V20.8091L75.6712 20.5994C80.4578 20.3712 82.1134 19.9583 84.1327 18.4892C86.6474 16.6596 87.6541 12.2341 86.4501 8.29976Z" fill="#9D002C"/>
</svg>
