<svg width="180" height="34" viewBox="0 0 180 34" fill="none" xmlns="http://www.w3.org/2000/svg">
<path fill-rule="evenodd" clip-rule="evenodd" d="M149 33.6829C147.343 33.6829 146 32.3398 146 30.6829V16.8415V3C146 1.34315 147.343 0 149 0H163H177C178.657 0 180 1.34315 180 3V16.8415V30.6829C180 32.3398 178.657 33.6829 177 33.6829H163H149ZM174.74 5.64817C175.505 3.9223 174.85 1.86965 173.299 1.13516C171.194 0.138502 168.167 0.999427 166.102 3.18203C165.499 3.81924 163.775 6.47718 163.574 7.0797C163.529 7.21443 162.092 7.09528 160.18 6.79867C155.924 6.13833 153.285 6.13255 151.856 6.78007C150.646 7.32805 150.017 8.3227 150.448 9.00591C150.85 9.64312 151.541 9.68786 151.541 9.07654C151.541 8.79476 151.796 8.42727 152.107 8.25986C153.173 7.68775 158.005 8.05349 161.372 8.96066V8.96066C162.161 9.1735 162.66 9.95257 162.521 10.7589L162.246 12.3654L161.987 13.8733C161.827 14.8064 161.157 15.5703 160.252 15.8496V15.8496C158.551 16.3749 158.103 16.7047 158.522 17.1227C158.73 17.3304 159.143 17.3228 160.097 17.0943C160.808 16.9242 161.428 16.8259 161.476 16.8759C161.522 16.9262 161.422 19.1332 161.252 21.7805C160.88 27.5742 160.524 28.5729 158.071 30.7022C157.25 31.4154 156.578 32.1493 156.578 32.3333C156.578 32.908 157.827 33.0238 159.237 32.5802C162.164 31.6592 165.166 29.0236 166.165 26.4987C166.678 25.2004 166.77 24.4342 166.891 20.4863L166.977 17.6805C167.009 16.6502 167.685 15.7514 168.667 15.4363V15.4363C171.341 14.5782 172.533 13.8125 171.651 13.5194C171.492 13.4664 170.67 13.5677 169.825 13.7444C167.226 14.2883 167.153 14.2647 167.17 12.8825C167.178 12.2259 167.265 11.2373 167.363 10.6858V10.6858C167.472 10.0688 167.913 9.56242 168.509 9.36885L170.007 8.88249C172.883 7.94867 174.085 7.12746 174.74 5.64817ZM168.552 6.48823C168.878 5.4408 170.504 3.21546 171.293 2.73485C172.238 2.15998 172.788 2.13861 173.308 2.65718C174.612 3.95875 172.378 6.34169 169.337 6.89369C168.413 7.0616 168.379 7.04375 168.552 6.48823Z" fill="white"/>
<path fill-rule="evenodd" clip-rule="evenodd" d="M1.12132 2.03741C0.272 1.82566 0.0121744 0.830524 0.720848 0.503051C0.941267 0.400993 3.5722 0.388594 6.56773 0.475391C9.56325 0.562187 13.7877 0.633405 15.9554 0.634041L19.897 0.634994L19.7999 2.30415C19.7166 3.74186 19.6061 3.98699 19.0041 4.07219C18.422 4.15422 18.2881 3.99462 18.2032 3.11839L18.1013 2.0657L12.0942 1.97922L6.08716 1.89275V8.41742V14.9421H10.0159C13.7829 14.9421 13.9575 14.9125 14.2609 14.2267C14.4349 13.8334 14.7934 13.5114 15.0577 13.5114C15.4281 13.5114 15.5601 14.0035 15.6331 15.6574C15.7193 17.6153 15.6722 17.8035 15.0939 17.8035C14.7453 17.8035 14.3737 17.5329 14.2677 17.202C13.9547 16.223 12.142 15.9945 8.05652 16.4179L6.08716 16.6224V24.5043V32.3862L6.9682 32.487C7.49266 32.5468 7.84924 32.7805 7.84924 33.0644C7.84924 33.4574 7.15946 33.5569 3.92462 33.6306C0.164353 33.7162 0 33.693 0 33.0743C0 32.5687 0.208886 32.4285 0.961131 32.4285H1.92226V17.3326V2.23675L1.12132 2.03741ZM27.2509 1.90674C26.1453 1.90674 25.7372 1.43206 26.2824 0.779973C26.6057 0.393681 28.2544 0.317059 36.2587 0.317059H45.8475L45.7505 1.98622C45.6659 3.443 45.5614 3.66842 44.9293 3.75744C44.344 3.83978 44.1675 3.67223 44.0083 2.88311L43.8115 1.90674H38.0848H32.3581V8.42441V14.9421H34.0718C35.0143 14.9421 36.877 15.0337 38.211 15.1456L40.6366 15.349L40.7423 14.4302C40.8195 13.7584 41.0201 13.5114 41.4888 13.5114C42.0568 13.5114 42.1405 13.7546 42.2244 15.6574C42.3106 17.6153 42.2635 17.8035 41.6852 17.8035C41.3328 17.8035 40.9612 17.5212 40.8481 17.1676C40.6584 16.575 40.3633 16.5318 36.5015 16.5318H32.3581V24.3285V32.1249L38.1985 32.0384L44.0387 31.9516L44.1098 31.029C44.1489 30.5216 44.3197 29.969 44.4891 29.8008C45.1062 29.1885 45.4935 29.9655 45.4935 31.8162V33.7098L35.9623 33.6256C26.673 33.5435 26.4311 33.5251 26.4311 32.9054C26.4311 32.4482 26.6784 32.2413 27.3121 32.1691L28.1932 32.0683V16.9877V1.90674H27.2509ZM53.1025 1.6473C52.48 1.57608 52.2214 1.36624 52.2214 0.931945C52.2214 0.343129 52.5117 0.317377 59.0294 0.320874C63.674 0.323418 66.3465 0.459177 67.4393 0.74818C76.5922 3.16862 78.1101 13.291 69.9088 17.2156C68.7269 17.7812 67.7072 18.2804 67.6428 18.3252C67.4868 18.434 73.818 28.7767 75.1832 30.6436C75.9691 31.7183 76.472 32.1106 77.0638 32.1106C77.9833 32.1106 78.492 32.9862 77.8183 33.4097C77.5722 33.5642 76.3404 33.6926 75.0803 33.6955L72.7896 33.7003L71.2137 31.2363C70.3468 29.8812 68.2996 26.4475 66.6644 23.6058L63.6909 18.4394H60.9998H58.3086V25.434V32.4285H59.132C59.8022 32.4285 59.9361 32.5614 59.8528 33.1439C59.7535 33.8363 59.6369 33.8592 56.2262 33.8592C52.8526 33.8592 52.6978 33.8297 52.603 33.1684C52.5287 32.6524 52.6908 32.4514 53.2438 32.3735L53.9835 32.2696V17.0087V1.74777L53.1025 1.6473ZM83.3051 6.34416C84.6051 3.81498 86.9195 1.87176 89.9759 0.742773C90.7567 0.454406 92.2157 0.342175 94.351 0.40608C97.1021 0.488425 97.8037 0.626728 99.3168 1.38437C101.694 2.57472 103.582 4.4747 104.58 6.68244C106.321 10.5323 106.431 21.1657 104.784 26.4205C103.915 29.1942 102.203 31.1202 99.3867 32.4963C97.3609 33.486 97.0611 33.5413 93.717 33.5413C90.7801 33.5413 89.9356 33.4262 88.6967 32.8581C85.4525 31.3698 83.0869 27.8229 82.1716 23.0746C81.2255 18.1679 81.8326 9.20844 83.3051 6.34416ZM111.604 1.90674C110.865 1.90674 110.54 1.04926 111.076 0.516722C111.201 0.393681 112.39 0.33391 113.719 0.384461L116.137 0.476026L117.026 1.90674C124.916 14.5994 131.731 25.1087 132.075 25.1128C132.208 25.1147 132.316 19.8939 132.316 13.5114V1.90674H131.505C130.582 1.90674 130.072 1.0321 130.747 0.607652C131.764 -0.0310802 136 0.503687 136 1.27086C136 1.54492 135.598 1.81135 135.039 1.90832L134.078 2.07524V17.711C134.078 33.9613 134.018 34.7069 132.808 33.7104C132.536 33.486 131.782 32.4263 131.132 31.3552C130.482 30.2844 127.931 26.2606 125.463 22.4136C122.995 18.5665 119.562 13.1397 117.835 10.3536L114.695 5.2883V18.6298V31.9713L115.688 32.3433C117.488 33.0173 116.655 33.533 113.604 33.6335C110.845 33.7244 110.804 33.7146 110.906 32.9976C110.982 32.4721 111.256 32.2416 111.892 32.1691L112.773 32.0683L112.771 19.6106C112.77 12.7588 112.676 5.97218 112.563 4.5297C112.368 2.04567 112.317 1.90674 111.604 1.90674ZM102.406 14.696C102.051 7.26236 100.759 3.85854 97.706 2.31083C93.1214 -0.0129571 88.2299 2.10608 86.4649 7.18065C85.7425 9.25867 85.7008 9.79344 85.7008 17.0087C85.7008 24.0761 85.755 24.8102 86.4348 26.9572C87.651 30.7978 89.8939 32.4378 93.9076 32.4215C99.9714 32.3971 102.954 26.1763 102.406 14.696ZM70.7319 6.88274C70.1577 4.98117 68.1214 3.03159 66.087 2.4361C65.1669 2.16681 63.0406 1.84633 61.3615 1.72392L58.3086 1.50169V9.37885V17.2563L61.9128 17.0824C65.8291 16.8933 67.1837 16.5508 68.8359 15.3325C70.8933 13.8153 71.717 10.1454 70.7319 6.88274Z" fill="white"/>
</svg>
